<svg width="197" height="56" viewBox="0 0 197 56" fill="none" xmlns="http://www.w3.org/2000/svg">
<g filter="url(#filter0_d_1006_2133)">
<path fill-rule="evenodd" clip-rule="evenodd" d="M43.1546 14.1757L33.6382 10.0419C32.7478 9.65512 31.7368 9.65512 30.8464 10.0419L21.3301 14.1757L12.8871 17.9805C11.6427 18.5412 10.8372 19.7736 10.8231 21.1384L10.7519 28L10.8231 34.8616C10.8372 36.2264 11.6427 37.4588 12.8871 38.0195L21.3299 41.8242L30.8464 45.9581C31.7368 46.3449 32.7478 46.3449 33.6382 45.9581L43.1547 41.8242L51.5975 38.0195C52.8419 37.4588 53.6474 36.2264 53.6615 34.8616L53.7327 28L53.6615 21.1384C53.6474 19.7736 52.8419 18.5412 51.5975 17.9805L43.1546 14.1757ZM43.8635 12.5737L34.3362 8.43515C33.0006 7.85495 31.4841 7.85495 30.1484 8.43515L20.6212 12.5737L12.1673 16.3833C10.3008 17.2245 9.09259 19.073 9.07136 21.1202L9 28L9.07136 34.8798C9.09259 36.927 10.3008 38.7755 12.1673 39.6167L20.6212 43.4263L30.1484 47.5648C31.4841 48.145 33.0006 48.145 34.3362 47.5648L43.8635 43.4263L52.3173 39.6167C54.1838 38.7755 55.392 36.927 55.4133 34.8798L55.4846 28L55.4133 21.1202C55.392 19.073 54.1838 17.2245 52.3173 16.3833L43.8635 12.5737Z" fill="white"/>
</g>
<path fill-rule="evenodd" clip-rule="evenodd" d="M31.3669 13.4379C31.3669 12.9542 31.759 12.562 32.2428 12.562C32.7265 12.562 33.1187 12.9542 33.1187 13.4379V42.343C33.1187 42.8268 32.7265 43.2189 32.2428 43.2189C31.759 43.2189 31.3669 42.8268 31.3669 42.343V13.4379ZM40.126 15.6277C40.126 15.144 40.5181 14.7518 41.0019 14.7518C41.4856 14.7518 41.8778 15.1439 41.8778 15.6277V21.6061C41.8778 22.0675 41.4633 22.416 41.0019 22.416C40.5405 22.416 40.126 22.0675 40.126 21.6061V15.6277ZM37.3455 23.8161C37.4414 23.73 37.4982 23.6094 37.4982 23.4805V20.0073C37.4982 19.5235 37.1061 19.1313 36.6223 19.1313C36.1386 19.1313 35.7464 19.5235 35.7464 20.0073V23.3167C35.7464 23.8189 36.9719 24.1516 37.3455 23.8161ZM35.7464 32.4642C35.7464 31.962 36.9719 31.6293 37.3455 31.9648C37.4414 32.0509 37.4982 32.1715 37.4982 32.3004V35.7737C37.4982 36.2574 37.1061 36.6496 36.6223 36.6496C36.1386 36.6496 35.7464 36.2574 35.7464 35.7737V32.4642ZM40.126 34.1749C40.126 33.7134 40.5405 33.3649 41.0019 33.3649C41.4633 33.3649 41.8778 33.7134 41.8778 34.1748V40.1532C41.8778 40.637 41.4856 41.0291 41.0019 41.0291C40.5181 41.0291 40.126 40.637 40.126 40.1532V34.1749ZM44.6583 31.9649C44.5624 32.051 44.5055 32.1716 44.5055 32.3005V36.8686C44.5055 37.3523 44.8977 37.7445 45.3814 37.7445C45.8652 37.7445 46.2574 37.3523 46.2574 36.8686V32.4643C46.2574 31.9621 45.032 31.6293 44.6583 31.9649ZM44.6583 23.816C45.032 24.1516 46.2574 23.8189 46.2574 23.3166V18.9124C46.2574 18.4286 45.8652 18.0365 45.3814 18.0365C44.8977 18.0365 44.5055 18.4286 44.5055 18.9124V23.4804C44.5055 23.6093 44.5624 23.7299 44.6583 23.816ZM27.8632 20.2262C27.3795 20.2262 26.9873 20.6184 26.9873 21.1021V23.4804C26.9873 23.6093 27.0442 23.7299 27.1401 23.816C27.5137 24.1516 28.7391 23.8189 28.7391 23.3167V21.1021C28.7391 20.6184 28.347 20.2262 27.8632 20.2262ZM28.7391 32.4643C28.7391 31.962 27.5137 31.6293 27.1401 31.9649C27.0442 32.051 26.9873 32.1716 26.9873 32.3005V34.6788C26.9873 35.1625 27.3795 35.5547 27.8632 35.5547C28.347 35.5547 28.7391 35.1625 28.7391 34.6788V32.4643ZM24.3596 34.1748C24.3596 33.7134 23.9451 33.3649 23.4837 33.3649C23.0223 33.3649 22.6077 33.7134 22.6077 34.1748V40.1532C22.6077 40.637 22.9999 41.0291 23.4837 41.0291C23.9674 41.0291 24.3596 40.637 24.3596 40.1532V34.1748ZM19.98 32.3004C19.98 32.1715 19.9231 32.051 19.8273 31.9648C19.4536 31.6293 18.2282 31.962 18.2282 32.4642V36.8686C18.2282 37.3523 18.6203 37.7445 19.1041 37.7445C19.5879 37.7445 19.98 37.3523 19.98 36.8686V32.3004ZM18.2282 23.3167C18.2282 23.8189 19.4536 24.1516 19.8273 23.8161C19.9231 23.73 19.98 23.6094 19.98 23.4805V18.9124C19.98 18.4286 19.5879 18.0365 19.1041 18.0365C18.6203 18.0365 18.2282 18.4286 18.2282 18.9124V23.3167ZM23.4837 22.416C23.0223 22.416 22.6077 22.0675 22.6077 21.6061V15.6277C22.6077 15.144 22.9999 14.7518 23.4837 14.7518C23.9674 14.7518 24.3596 15.1439 24.3596 15.6277V21.6061C24.3596 22.0675 23.9451 22.416 23.4837 22.416ZM13.8486 22.197C13.8486 21.7133 14.2408 21.3211 14.7245 21.3211C15.2083 21.3211 15.6005 21.7133 15.6005 22.197V33.5839C15.6005 34.0676 15.2083 34.4598 14.7245 34.4598C14.2408 34.4598 13.8486 34.0676 13.8486 33.5839V22.197ZM49.761 23.5109C49.2772 23.5109 48.8851 23.9031 48.8851 24.3868V31.3941C48.8851 31.8779 49.2772 32.27 49.761 32.27C50.2448 32.27 50.6369 31.8779 50.6369 31.3941V24.3868C50.6369 23.9031 50.2448 23.5109 49.761 23.5109Z" fill="#37E4FF"/>
<g filter="url(#filter1_d_1006_2133)">
<circle cx="23.4829" cy="27.8906" r="3.28467" fill="white"/>
</g>
<g filter="url(#filter2_d_1006_2133)">
<circle cx="41.2202" cy="27.8906" r="3.28467" fill="white"/>
</g>
<path d="M79.7044 35V32.84L79.5644 32.38V28.6C79.5644 27.8667 79.3444 27.3 78.9044 26.9C78.4644 26.4867 77.7977 26.28 76.9044 26.28C76.3044 26.28 75.711 26.3733 75.1244 26.56C74.551 26.7467 74.0644 27.0067 73.6644 27.34L72.6844 25.52C73.2577 25.08 73.9377 24.7533 74.7244 24.54C75.5244 24.3133 76.351 24.2 77.2044 24.2C78.751 24.2 79.9444 24.5733 80.7844 25.32C81.6377 26.0533 82.0644 27.1933 82.0644 28.74V35H79.7044ZM76.3444 35.14C75.5444 35.14 74.8444 35.0067 74.2444 34.74C73.6444 34.46 73.1777 34.08 72.8444 33.6C72.5244 33.1067 72.3644 32.5533 72.3644 31.94C72.3644 31.34 72.5044 30.8 72.7844 30.32C73.0777 29.84 73.551 29.46 74.2044 29.18C74.8577 28.9 75.7244 28.76 76.8044 28.76H79.9044V30.42H76.9844C76.131 30.42 75.5577 30.56 75.2644 30.84C74.971 31.1067 74.8244 31.44 74.8244 31.84C74.8244 32.2933 75.0044 32.6533 75.3644 32.92C75.7244 33.1867 76.2244 33.32 76.8644 33.32C77.4777 33.32 78.0244 33.18 78.5044 32.9C78.9977 32.62 79.351 32.2067 79.5644 31.66L79.9844 33.16C79.7444 33.7867 79.311 34.2733 78.6844 34.62C78.071 34.9667 77.291 35.14 76.3444 35.14ZM85.2728 35V24.32H87.7728V35H85.2728ZM86.5328 22.56C86.0661 22.56 85.6795 22.4133 85.3728 22.12C85.0795 21.8267 84.9328 21.4733 84.9328 21.06C84.9328 20.6333 85.0795 20.28 85.3728 20C85.6795 19.7067 86.0661 19.56 86.5328 19.56C86.9995 19.56 87.3795 19.7 87.6728 19.98C87.9795 20.2467 88.1328 20.5867 88.1328 21C88.1328 21.44 87.9861 21.8133 87.6928 22.12C87.3995 22.4133 87.0128 22.56 86.5328 22.56ZM91.8541 35.14C91.4007 35.14 91.0141 34.9867 90.6941 34.68C90.3741 34.36 90.2141 33.96 90.2141 33.48C90.2141 32.9733 90.3741 32.5733 90.6941 32.28C91.0141 31.9733 91.4007 31.82 91.8541 31.82C92.3074 31.82 92.6941 31.9733 93.0141 32.28C93.3341 32.5733 93.4941 32.9733 93.4941 33.48C93.4941 33.96 93.3341 34.36 93.0141 34.68C92.6941 34.9867 92.3074 35.14 91.8541 35.14Z" fill="white"/>
<path d="M99.8592 35.14C98.6859 35.14 97.7792 34.84 97.1392 34.24C96.4992 33.6267 96.1792 32.7267 96.1792 31.54V21.96H98.6792V31.48C98.6792 31.9867 98.8059 32.38 99.0592 32.66C99.3259 32.94 99.6926 33.08 100.159 33.08C100.719 33.08 101.186 32.9333 101.559 32.64L102.259 34.42C101.966 34.66 101.606 34.84 101.179 34.96C100.753 35.08 100.313 35.14 99.8592 35.14ZM94.4192 26.4V24.4H101.539V26.4H94.4192ZM108.484 35.14C107.458 35.14 106.531 34.9133 105.704 34.46C104.891 33.9933 104.251 33.3533 103.784 32.54C103.318 31.7267 103.084 30.7667 103.084 29.66C103.084 28.5533 103.318 27.5933 103.784 26.78C104.251 25.9667 104.891 25.3333 105.704 24.88C106.531 24.4267 107.458 24.2 108.484 24.2C109.378 24.2 110.178 24.4 110.884 24.8C111.591 25.1867 112.151 25.78 112.564 26.58C112.978 27.38 113.184 28.4067 113.184 29.66C113.184 30.9 112.984 31.9267 112.584 32.74C112.184 33.54 111.631 34.14 110.924 34.54C110.218 34.94 109.404 35.14 108.484 35.14ZM108.784 33C109.384 33 109.918 32.8667 110.384 32.6C110.864 32.3333 111.244 31.9467 111.524 31.44C111.818 30.9333 111.964 30.34 111.964 29.66C111.964 28.9667 111.818 28.3733 111.524 27.88C111.244 27.3733 110.864 26.9867 110.384 26.72C109.918 26.4533 109.384 26.32 108.784 26.32C108.184 26.32 107.644 26.4533 107.164 26.72C106.698 26.9867 106.318 27.3733 106.024 27.88C105.744 28.3733 105.604 28.9667 105.604 29.66C105.604 30.34 105.744 30.9333 106.024 31.44C106.318 31.9467 106.698 32.3333 107.164 32.6C107.644 32.8667 108.184 33 108.784 33ZM112.024 35V32.48L112.124 29.64L111.924 26.8V20.16H114.404V35H112.024ZM120.995 35.14C120.101 35.14 119.241 35.0267 118.415 34.8C117.601 34.56 116.955 34.2733 116.475 33.94L117.435 32.04C117.915 32.3467 118.488 32.6 119.155 32.8C119.821 33 120.488 33.1 121.155 33.1C121.941 33.1 122.508 32.9933 122.855 32.78C123.215 32.5667 123.395 32.28 123.395 31.92C123.395 31.6267 123.275 31.4067 123.035 31.26C122.795 31.1 122.481 30.98 122.095 30.9C121.708 30.82 121.275 30.7467 120.795 30.68C120.328 30.6133 119.855 30.5267 119.375 30.42C118.908 30.3 118.481 30.1333 118.095 29.92C117.708 29.6933 117.395 29.3933 117.155 29.02C116.915 28.6467 116.795 28.1533 116.795 27.54C116.795 26.86 116.988 26.2733 117.375 25.78C117.761 25.2733 118.301 24.8867 118.995 24.62C119.701 24.34 120.535 24.2 121.495 24.2C122.215 24.2 122.941 24.28 123.675 24.44C124.408 24.6 125.015 24.8267 125.495 25.12L124.535 27.02C124.028 26.7133 123.515 26.5067 122.995 26.4C122.488 26.28 121.981 26.22 121.475 26.22C120.715 26.22 120.148 26.3333 119.775 26.56C119.415 26.7867 119.235 27.0733 119.235 27.42C119.235 27.74 119.355 27.98 119.595 28.14C119.835 28.3 120.148 28.4267 120.535 28.52C120.921 28.6133 121.348 28.6933 121.815 28.76C122.295 28.8133 122.768 28.9 123.235 29.02C123.701 29.14 124.128 29.3067 124.515 29.52C124.915 29.72 125.235 30.0067 125.475 30.38C125.715 30.7533 125.835 31.24 125.835 31.84C125.835 32.5067 125.635 33.0867 125.235 33.58C124.848 34.0733 124.295 34.46 123.575 34.74C122.855 35.0067 121.995 35.14 120.995 35.14ZM128.788 35.14C128.334 35.14 127.948 34.9867 127.628 34.68C127.308 34.36 127.148 33.96 127.148 33.48C127.148 32.9733 127.308 32.5733 127.628 32.28C127.948 31.9733 128.334 31.82 128.788 31.82C129.241 31.82 129.628 31.9733 129.948 32.28C130.268 32.5733 130.428 32.9733 130.428 33.48C130.428 33.96 130.268 34.36 129.948 34.68C129.628 34.9867 129.241 35.14 128.788 35.14ZM146.35 24.2C147.204 24.2 147.957 24.3667 148.61 24.7C149.277 25.0333 149.797 25.5467 150.17 26.24C150.544 26.92 150.73 27.8 150.73 28.88V35H148.23V29.2C148.23 28.2533 148.024 27.5467 147.61 27.08C147.197 26.6133 146.604 26.38 145.83 26.38C145.284 26.38 144.797 26.5 144.37 26.74C143.957 26.98 143.63 27.3333 143.39 27.8C143.164 28.2667 143.05 28.86 143.05 29.58V35H140.55V29.2C140.55 28.2533 140.344 27.5467 139.93 27.08C139.517 26.6133 138.924 26.38 138.15 26.38C137.604 26.38 137.117 26.5 136.69 26.74C136.277 26.98 135.95 27.3333 135.71 27.8C135.484 28.2667 135.37 28.86 135.37 29.58V35H132.87V24.32H135.25V27.16L134.83 26.32C135.19 25.6267 135.71 25.1 136.39 24.74C137.084 24.38 137.87 24.2 138.75 24.2C139.75 24.2 140.617 24.4467 141.35 24.94C142.097 25.4333 142.59 26.18 142.83 27.18L141.85 26.84C142.197 26.04 142.77 25.4 143.57 24.92C144.37 24.44 145.297 24.2 146.35 24.2ZM158.965 35.14C157.778 35.14 156.738 34.9067 155.845 34.44C154.965 33.96 154.278 33.3067 153.785 32.48C153.305 31.6533 153.065 30.7133 153.065 29.66C153.065 28.5933 153.298 27.6533 153.765 26.84C154.245 26.0133 154.898 25.3667 155.725 24.9C156.565 24.4333 157.518 24.2 158.585 24.2C159.625 24.2 160.551 24.4267 161.365 24.88C162.178 25.3333 162.818 25.9733 163.285 26.8C163.751 27.6267 163.985 28.6 163.985 29.72C163.985 29.8267 163.978 29.9467 163.965 30.08C163.965 30.2133 163.958 30.34 163.945 30.46H155.045V28.8H162.625L161.645 29.32C161.658 28.7067 161.531 28.1667 161.265 27.7C160.998 27.2333 160.631 26.8667 160.165 26.6C159.711 26.3333 159.185 26.2 158.585 26.2C157.971 26.2 157.431 26.3333 156.965 26.6C156.511 26.8667 156.151 27.24 155.885 27.72C155.631 28.1867 155.505 28.74 155.505 29.38V29.78C155.505 30.42 155.651 30.9867 155.945 31.48C156.238 31.9733 156.651 32.3533 157.185 32.62C157.718 32.8867 158.331 33.02 159.025 33.02C159.625 33.02 160.165 32.9267 160.645 32.74C161.125 32.5533 161.551 32.26 161.925 31.86L163.265 33.4C162.785 33.96 162.178 34.3933 161.445 34.7C160.725 34.9933 159.898 35.14 158.965 35.14ZM170.906 35.14C169.879 35.14 168.953 34.9133 168.126 34.46C167.313 33.9933 166.673 33.3533 166.206 32.54C165.739 31.7267 165.506 30.7667 165.506 29.66C165.506 28.5533 165.739 27.5933 166.206 26.78C166.673 25.9667 167.313 25.3333 168.126 24.88C168.953 24.4267 169.879 24.2 170.906 24.2C171.799 24.2 172.599 24.4 173.306 24.8C174.013 25.1867 174.573 25.78 174.986 26.58C175.399 27.38 175.606 28.4067 175.606 29.66C175.606 30.9 175.406 31.9267 175.006 32.74C174.606 33.54 174.053 34.14 173.346 34.54C172.639 34.94 171.826 35.14 170.906 35.14ZM171.206 33C171.806 33 172.339 32.8667 172.806 32.6C173.286 32.3333 173.666 31.9467 173.946 31.44C174.239 30.9333 174.386 30.34 174.386 29.66C174.386 28.9667 174.239 28.3733 173.946 27.88C173.666 27.3733 173.286 26.9867 172.806 26.72C172.339 26.4533 171.806 26.32 171.206 26.32C170.606 26.32 170.066 26.4533 169.586 26.72C169.119 26.9867 168.739 27.3733 168.446 27.88C168.166 28.3733 168.026 28.9667 168.026 29.66C168.026 30.34 168.166 30.9333 168.446 31.44C168.739 31.9467 169.119 32.3333 169.586 32.6C170.066 32.8667 170.606 33 171.206 33ZM174.446 35V32.48L174.546 29.64L174.346 26.8V20.16H176.826V35H174.446ZM180.117 35V24.32H182.617V35H180.117ZM181.377 22.56C180.91 22.56 180.523 22.4133 180.217 22.12C179.923 21.8267 179.777 21.4733 179.777 21.06C179.777 20.6333 179.923 20.28 180.217 20C180.523 19.7067 180.91 19.56 181.377 19.56C181.843 19.56 182.223 19.7 182.517 19.98C182.823 20.2467 182.977 20.5867 182.977 21C182.977 21.44 182.83 21.8133 182.537 22.12C182.243 22.4133 181.857 22.56 181.377 22.56ZM192.478 35V32.84L192.338 32.38V28.6C192.338 27.8667 192.118 27.3 191.678 26.9C191.238 26.4867 190.571 26.28 189.678 26.28C189.078 26.28 188.484 26.3733 187.898 26.56C187.324 26.7467 186.838 27.0067 186.438 27.34L185.458 25.52C186.031 25.08 186.711 24.7533 187.498 24.54C188.298 24.3133 189.124 24.2 189.978 24.2C191.524 24.2 192.718 24.5733 193.558 25.32C194.411 26.0533 194.838 27.1933 194.838 28.74V35H192.478ZM189.118 35.14C188.318 35.14 187.618 35.0067 187.018 34.74C186.418 34.46 185.951 34.08 185.618 33.6C185.298 33.1067 185.138 32.5533 185.138 31.94C185.138 31.34 185.278 30.8 185.558 30.32C185.851 29.84 186.324 29.46 186.978 29.18C187.631 28.9 188.498 28.76 189.578 28.76H192.678V30.42H189.758C188.904 30.42 188.331 30.56 188.038 30.84C187.744 31.1067 187.598 31.44 187.598 31.84C187.598 32.2933 187.778 32.6533 188.138 32.92C188.498 33.1867 188.998 33.32 189.638 33.32C190.251 33.32 190.798 33.18 191.278 32.9C191.771 32.62 192.124 32.2067 192.338 31.66L192.758 33.16C192.518 33.7867 192.084 34.2733 191.458 34.62C190.844 34.9667 190.064 35.14 189.118 35.14Z" fill="#37E4FF"/>
<defs>
<filter id="filter0_d_1006_2133" x="1" y="0" width="62.4844" height="56" filterUnits="userSpaceOnUse" color-interpolation-filters="sRGB">
<feFlood flood-opacity="0" result="BackgroundImageFix"/>
<feColorMatrix in="SourceAlpha" type="matrix" values="0 0 0 0 0 0 0 0 0 0 0 0 0 0 0 0 0 0 127 0" result="hardAlpha"/>
<feOffset/>
<feGaussianBlur stdDeviation="4"/>
<feColorMatrix type="matrix" values="0 0 0 0 1 0 0 0 0 1 0 0 0 0 1 0 0 0 1 0"/>
<feBlend mode="normal" in2="BackgroundImageFix" result="effect1_dropShadow_1006_2133"/>
<feBlend mode="normal" in="SourceGraphic" in2="effect1_dropShadow_1006_2133" result="shape"/>
</filter>
<filter id="filter1_d_1006_2133" x="0.198242" y="4.60596" width="46.5693" height="46.5693" filterUnits="userSpaceOnUse" color-interpolation-filters="sRGB">
<feFlood flood-opacity="0" result="BackgroundImageFix"/>
<feColorMatrix in="SourceAlpha" type="matrix" values="0 0 0 0 0 0 0 0 0 0 0 0 0 0 0 0 0 0 127 0" result="hardAlpha"/>
<feMorphology radius="4" operator="erode" in="SourceAlpha" result="effect1_dropShadow_1006_2133"/>
<feOffset/>
<feGaussianBlur stdDeviation="12"/>
<feComposite in2="hardAlpha" operator="out"/>
<feColorMatrix type="matrix" values="0 0 0 0 1 0 0 0 0 1 0 0 0 0 1 0 0 0 1 0"/>
<feBlend mode="normal" in2="BackgroundImageFix" result="effect1_dropShadow_1006_2133"/>
<feBlend mode="normal" in="SourceGraphic" in2="effect1_dropShadow_1006_2133" result="shape"/>
</filter>
<filter id="filter2_d_1006_2133" x="17.9355" y="4.60596" width="46.5693" height="46.5693" filterUnits="userSpaceOnUse" color-interpolation-filters="sRGB">
<feFlood flood-opacity="0" result="BackgroundImageFix"/>
<feColorMatrix in="SourceAlpha" type="matrix" values="0 0 0 0 0 0 0 0 0 0 0 0 0 0 0 0 0 0 127 0" result="hardAlpha"/>
<feMorphology radius="4" operator="erode" in="SourceAlpha" result="effect1_dropShadow_1006_2133"/>
<feOffset/>
<feGaussianBlur stdDeviation="12"/>
<feComposite in2="hardAlpha" operator="out"/>
<feColorMatrix type="matrix" values="0 0 0 0 1 0 0 0 0 1 0 0 0 0 1 0 0 0 1 0"/>
<feBlend mode="normal" in2="BackgroundImageFix" result="effect1_dropShadow_1006_2133"/>
<feBlend mode="normal" in="SourceGraphic" in2="effect1_dropShadow_1006_2133" result="shape"/>
</filter>
</defs>
</svg>
