<svg width="209" height="56" viewBox="0 0 209 56" fill="none" xmlns="http://www.w3.org/2000/svg">
<g filter="url(#filter0_d_21_576)">
<path fill-rule="evenodd" clip-rule="evenodd" d="M43.1546 14.1757L33.6382 10.0419C32.7478 9.65512 31.7368 9.65512 30.8464 10.0419L21.3301 14.1757L12.8871 17.9805C11.6427 18.5412 10.8372 19.7736 10.8231 21.1384L10.7519 28L10.8231 34.8616C10.8372 36.2264 11.6427 37.4588 12.8871 38.0195L21.3299 41.8242L30.8464 45.9581C31.7368 46.3449 32.7478 46.3449 33.6382 45.9581L43.1547 41.8242L51.5975 38.0195C52.8419 37.4588 53.6474 36.2264 53.6615 34.8616L53.7327 28L53.6615 21.1384C53.6474 19.7736 52.8419 18.5412 51.5975 17.9805L43.1546 14.1757ZM43.8635 12.5737L34.3362 8.43515C33.0006 7.85495 31.4841 7.85495 30.1484 8.43515L20.6212 12.5737L12.1673 16.3833C10.3008 17.2245 9.09259 19.073 9.07136 21.1202L9 28L9.07136 34.8798C9.09259 36.927 10.3008 38.7755 12.1673 39.6167L20.6212 43.4263L30.1484 47.5648C31.4841 48.145 33.0006 48.145 34.3362 47.5648L43.8635 43.4263L52.3173 39.6167C54.1838 38.7755 55.392 36.927 55.4133 34.8798L55.4846 28L55.4133 21.1202C55.392 19.073 54.1838 17.2245 52.3173 16.3833L43.8635 12.5737Z" fill="white"/>
</g>
<path fill-rule="evenodd" clip-rule="evenodd" d="M31.3664 13.4379C31.3664 12.9542 31.7586 12.562 32.2423 12.562C32.7261 12.562 33.1182 12.9542 33.1182 13.4379V42.343C33.1182 42.8268 32.7261 43.2189 32.2423 43.2189C31.7586 43.2189 31.3664 42.8268 31.3664 42.343V13.4379ZM40.1255 15.6277C40.1255 15.144 40.5177 14.7518 41.0014 14.7518C41.4852 14.7518 41.8773 15.1439 41.8773 15.6277V21.6061C41.8773 22.0675 41.4628 22.416 41.0015 22.416C40.5401 22.416 40.1255 22.0675 40.1255 21.6061V15.6277ZM37.345 23.8161C37.4409 23.73 37.4978 23.6094 37.4978 23.4805V20.0073C37.4978 19.5235 37.1056 19.1313 36.6219 19.1313C36.1381 19.1313 35.746 19.5235 35.746 20.0073V23.3167C35.746 23.8189 36.9714 24.1516 37.345 23.8161ZM35.746 32.4642C35.746 31.962 36.9714 31.6293 37.345 31.9648C37.4409 32.0509 37.4978 32.1715 37.4978 32.3004V35.7737C37.4978 36.2574 37.1056 36.6496 36.6219 36.6496C36.1381 36.6496 35.746 36.2574 35.746 35.7737V32.4642ZM40.1255 34.1749C40.1255 33.7134 40.5401 33.3649 41.0015 33.3649C41.4628 33.3649 41.8773 33.7134 41.8773 34.1748V40.1532C41.8773 40.637 41.4852 41.0291 41.0014 41.0291C40.5177 41.0291 40.1255 40.637 40.1255 40.1532V34.1749ZM44.6578 31.9649C44.562 32.051 44.5051 32.1716 44.5051 32.3005V36.8686C44.5051 37.3523 44.8972 37.7445 45.381 37.7445C45.8647 37.7445 46.2569 37.3523 46.2569 36.8686V32.4643C46.2569 31.9621 45.0315 31.6293 44.6578 31.9649ZM44.6578 23.816C45.0315 24.1516 46.2569 23.8189 46.2569 23.3166V18.9124C46.2569 18.4286 45.8647 18.0365 45.381 18.0365C44.8972 18.0365 44.5051 18.4286 44.5051 18.9124V23.4804C44.5051 23.6093 44.562 23.7299 44.6578 23.816ZM27.8628 20.2262C27.379 20.2262 26.9868 20.6184 26.9868 21.1021V23.4804C26.9868 23.6093 27.0437 23.7299 27.1396 23.816C27.5133 24.1516 28.7387 23.8189 28.7387 23.3167V21.1021C28.7387 20.6184 28.3465 20.2262 27.8628 20.2262ZM28.7387 32.4643C28.7387 31.962 27.5133 31.6293 27.1396 31.9649C27.0437 32.051 26.9868 32.1716 26.9868 32.3005V34.6788C26.9868 35.1625 27.379 35.5547 27.8628 35.5547C28.3465 35.5547 28.7387 35.1625 28.7387 34.6788V32.4643ZM24.3591 34.1748C24.3591 33.7134 23.9446 33.3649 23.4832 33.3649C23.0218 33.3649 22.6073 33.7134 22.6073 34.1748V40.1532C22.6073 40.637 22.9994 41.0291 23.4832 41.0291C23.967 41.0291 24.3591 40.637 24.3591 40.1532V34.1748ZM19.9796 32.3004C19.9796 32.1715 19.9227 32.051 19.8268 31.9648C19.4532 31.6293 18.2277 31.962 18.2277 32.4642V36.8686C18.2277 37.3523 18.6199 37.7445 19.1036 37.7445C19.5874 37.7445 19.9796 37.3523 19.9796 36.8686V32.3004ZM18.2277 23.3167C18.2277 23.8189 19.4532 24.1516 19.8268 23.8161C19.9227 23.73 19.9796 23.6094 19.9796 23.4805V18.9124C19.9796 18.4286 19.5874 18.0365 19.1036 18.0365C18.6199 18.0365 18.2277 18.4286 18.2277 18.9124V23.3167ZM23.4832 22.416C23.0218 22.416 22.6073 22.0675 22.6073 21.6061V15.6277C22.6073 15.144 22.9994 14.7518 23.4832 14.7518C23.967 14.7518 24.3591 15.1439 24.3591 15.6277V21.6061C24.3591 22.0675 23.9446 22.416 23.4832 22.416ZM13.8482 22.197C13.8482 21.7133 14.2403 21.3211 14.7241 21.3211C15.2078 21.3211 15.6 21.7133 15.6 22.197V33.5839C15.6 34.0676 15.2078 34.4598 14.7241 34.4598C14.2403 34.4598 13.8482 34.0676 13.8482 33.5839V22.197ZM49.7605 23.5109C49.2768 23.5109 48.8846 23.9031 48.8846 24.3868V31.3941C48.8846 31.8779 49.2768 32.27 49.7605 32.27C50.2443 32.27 50.6365 31.8779 50.6365 31.3941V24.3868C50.6365 23.9031 50.2443 23.5109 49.7605 23.5109Z" fill="#37E4FF"/>
<g filter="url(#filter1_d_21_576)">
<circle cx="23.4832" cy="27.8906" r="3.28467" fill="white"/>
</g>
<g filter="url(#filter2_d_21_576)">
<circle cx="41.2204" cy="27.8906" r="3.28467" fill="white"/>
</g>
<path d="M77.7046 35.2C76.6113 35.2 75.5646 35.0467 74.5646 34.74C73.5646 34.42 72.7713 34.0133 72.1846 33.52L73.0846 31.5C73.6446 31.94 74.338 32.3067 75.1646 32.6C75.9913 32.8933 76.838 33.04 77.7046 33.04C78.438 33.04 79.0313 32.96 79.4846 32.8C79.938 32.64 80.2713 32.4267 80.4846 32.16C80.698 31.88 80.8046 31.5667 80.8046 31.22C80.8046 30.7933 80.6513 30.4533 80.3446 30.2C80.038 29.9333 79.638 29.7267 79.1446 29.58C78.6646 29.42 78.1246 29.2733 77.5246 29.14C76.938 29.0067 76.3446 28.8533 75.7446 28.68C75.158 28.4933 74.618 28.26 74.1246 27.98C73.6446 27.6867 73.2513 27.3 72.9446 26.82C72.638 26.34 72.4846 25.7267 72.4846 24.98C72.4846 24.22 72.6846 23.5267 73.0846 22.9C73.498 22.26 74.118 21.7533 74.9446 21.38C75.7846 20.9933 76.8446 20.8 78.1246 20.8C78.9646 20.8 79.798 20.9067 80.6246 21.12C81.4513 21.3333 82.1713 21.64 82.7846 22.04L81.9646 24.06C81.338 23.6867 80.6913 23.4133 80.0246 23.24C79.358 23.0533 78.718 22.96 78.1046 22.96C77.3846 22.96 76.798 23.0467 76.3446 23.22C75.9046 23.3933 75.578 23.62 75.3646 23.9C75.1646 24.18 75.0646 24.5 75.0646 24.86C75.0646 25.2867 75.2113 25.6333 75.5046 25.9C75.8113 26.1533 76.2046 26.3533 76.6846 26.5C77.178 26.6467 77.7246 26.7933 78.3246 26.94C78.9246 27.0733 79.518 27.2267 80.1046 27.4C80.7046 27.5733 81.2446 27.8 81.7246 28.08C82.218 28.36 82.6113 28.74 82.9046 29.22C83.2113 29.7 83.3646 30.3067 83.3646 31.04C83.3646 31.7867 83.158 32.48 82.7446 33.12C82.3446 33.7467 81.7246 34.2533 80.8846 34.64C80.0446 35.0133 78.9846 35.2 77.7046 35.2ZM89.7227 35.14C88.5494 35.14 87.6427 34.84 87.0027 34.24C86.3627 33.6267 86.0427 32.7267 86.0427 31.54V21.96H88.5427V31.48C88.5427 31.9867 88.6694 32.38 88.9227 32.66C89.1894 32.94 89.5561 33.08 90.0227 33.08C90.5827 33.08 91.0494 32.9333 91.4227 32.64L92.1227 34.42C91.8294 34.66 91.4694 34.84 91.0427 34.96C90.6161 35.08 90.1761 35.14 89.7227 35.14ZM84.2827 26.4V24.4H91.4027V26.4H84.2827ZM98.8477 35.14C97.6611 35.14 96.6211 34.9067 95.7277 34.44C94.8477 33.96 94.1611 33.3067 93.6677 32.48C93.1877 31.6533 92.9477 30.7133 92.9477 29.66C92.9477 28.5933 93.1811 27.6533 93.6477 26.84C94.1277 26.0133 94.7811 25.3667 95.6077 24.9C96.4477 24.4333 97.4011 24.2 98.4677 24.2C99.5077 24.2 100.434 24.4267 101.248 24.88C102.061 25.3333 102.701 25.9733 103.168 26.8C103.634 27.6267 103.868 28.6 103.868 29.72C103.868 29.8267 103.861 29.9467 103.848 30.08C103.848 30.2133 103.841 30.34 103.828 30.46H94.9277V28.8H102.508L101.528 29.32C101.541 28.7067 101.414 28.1667 101.148 27.7C100.881 27.2333 100.514 26.8667 100.048 26.6C99.5944 26.3333 99.0677 26.2 98.4677 26.2C97.8544 26.2 97.3144 26.3333 96.8477 26.6C96.3944 26.8667 96.0344 27.24 95.7677 27.72C95.5144 28.1867 95.3877 28.74 95.3877 29.38V29.78C95.3877 30.42 95.5344 30.9867 95.8277 31.48C96.1211 31.9733 96.5344 32.3533 97.0677 32.62C97.6011 32.8867 98.2144 33.02 98.9077 33.02C99.5077 33.02 100.048 32.9267 100.528 32.74C101.008 32.5533 101.434 32.26 101.808 31.86L103.148 33.4C102.668 33.96 102.061 34.3933 101.328 34.7C100.608 34.9933 99.7811 35.14 98.8477 35.14ZM106.269 35V20.16H108.769V35H106.269ZM112.05 35V20.16H114.55V35H112.05ZM124.412 35V32.84L124.272 32.38V28.6C124.272 27.8667 124.052 27.3 123.612 26.9C123.172 26.4867 122.505 26.28 121.612 26.28C121.012 26.28 120.418 26.3733 119.832 26.56C119.258 26.7467 118.772 27.0067 118.372 27.34L117.392 25.52C117.965 25.08 118.645 24.7533 119.432 24.54C120.232 24.3133 121.058 24.2 121.912 24.2C123.458 24.2 124.652 24.5733 125.492 25.32C126.345 26.0533 126.772 27.1933 126.772 28.74V35H124.412ZM121.052 35.14C120.252 35.14 119.552 35.0067 118.952 34.74C118.352 34.46 117.885 34.08 117.552 33.6C117.232 33.1067 117.072 32.5533 117.072 31.94C117.072 31.34 117.212 30.8 117.492 30.32C117.785 29.84 118.258 29.46 118.912 29.18C119.565 28.9 120.432 28.76 121.512 28.76H124.612V30.42H121.692C120.838 30.42 120.265 30.56 119.972 30.84C119.678 31.1067 119.532 31.44 119.532 31.84C119.532 32.2933 119.712 32.6533 120.072 32.92C120.432 33.1867 120.932 33.32 121.572 33.32C122.185 33.32 122.732 33.18 123.212 32.9C123.705 32.62 124.058 32.2067 124.272 31.66L124.692 33.16C124.452 33.7867 124.018 34.2733 123.392 34.62C122.778 34.9667 121.998 35.14 121.052 35.14ZM129.98 35V24.32H132.36V27.26L132.08 26.4C132.4 25.68 132.9 25.1333 133.58 24.76C134.273 24.3867 135.133 24.2 136.16 24.2V26.58C136.053 26.5533 135.953 26.54 135.86 26.54C135.767 26.5267 135.673 26.52 135.58 26.52C134.633 26.52 133.88 26.8 133.32 27.36C132.76 27.9067 132.48 28.7267 132.48 29.82V35H129.98ZM140.873 35V23.2H136.233V21H148.113V23.2H143.473V35H140.873ZM153.75 35.14C152.563 35.14 151.523 34.9067 150.63 34.44C149.75 33.96 149.063 33.3067 148.57 32.48C148.09 31.6533 147.85 30.7133 147.85 29.66C147.85 28.5933 148.083 27.6533 148.55 26.84C149.03 26.0133 149.683 25.3667 150.51 24.9C151.35 24.4333 152.303 24.2 153.37 24.2C154.41 24.2 155.337 24.4267 156.15 24.88C156.963 25.3333 157.603 25.9733 158.07 26.8C158.537 27.6267 158.77 28.6 158.77 29.72C158.77 29.8267 158.763 29.9467 158.75 30.08C158.75 30.2133 158.743 30.34 158.73 30.46H149.83V28.8H157.41L156.43 29.32C156.443 28.7067 156.317 28.1667 156.05 27.7C155.783 27.2333 155.417 26.8667 154.95 26.6C154.497 26.3333 153.97 26.2 153.37 26.2C152.757 26.2 152.217 26.3333 151.75 26.6C151.297 26.8667 150.937 27.24 150.67 27.72C150.417 28.1867 150.29 28.74 150.29 29.38V29.78C150.29 30.42 150.437 30.9867 150.73 31.48C151.023 31.9733 151.437 32.3533 151.97 32.62C152.503 32.8867 153.117 33.02 153.81 33.02C154.41 33.02 154.95 32.9267 155.43 32.74C155.91 32.5533 156.337 32.26 156.71 31.86L158.05 33.4C157.57 33.96 156.963 34.3933 156.23 34.7C155.51 34.9933 154.683 35.14 153.75 35.14ZM166.071 35.14C164.951 35.14 163.951 34.9067 163.071 34.44C162.205 33.96 161.525 33.3067 161.031 32.48C160.538 31.6533 160.291 30.7133 160.291 29.66C160.291 28.5933 160.538 27.6533 161.031 26.84C161.525 26.0133 162.205 25.3667 163.071 24.9C163.951 24.4333 164.951 24.2 166.071 24.2C167.111 24.2 168.025 24.4133 168.811 24.84C169.611 25.2533 170.218 25.8667 170.631 26.68L168.711 27.8C168.391 27.2933 167.998 26.92 167.531 26.68C167.078 26.44 166.585 26.32 166.051 26.32C165.438 26.32 164.885 26.4533 164.391 26.72C163.898 26.9867 163.511 27.3733 163.231 27.88C162.951 28.3733 162.811 28.9667 162.811 29.66C162.811 30.3533 162.951 30.9533 163.231 31.46C163.511 31.9533 163.898 32.3333 164.391 32.6C164.885 32.8667 165.438 33 166.051 33C166.585 33 167.078 32.88 167.531 32.64C167.998 32.4 168.391 32.0267 168.711 31.52L170.631 32.64C170.218 33.44 169.611 34.06 168.811 34.5C168.025 34.9267 167.111 35.14 166.071 35.14ZM178.755 24.2C179.608 24.2 180.368 24.3667 181.035 24.7C181.715 25.0333 182.248 25.5467 182.635 26.24C183.022 26.92 183.215 27.8 183.215 28.88V35H180.715V29.2C180.715 28.2533 180.488 27.5467 180.035 27.08C179.595 26.6133 178.975 26.38 178.175 26.38C177.588 26.38 177.068 26.5 176.615 26.74C176.162 26.98 175.808 27.34 175.555 27.82C175.315 28.2867 175.195 28.88 175.195 29.6V35H172.695V20.16H175.195V27.2L174.655 26.32C175.028 25.64 175.568 25.12 176.275 24.76C176.995 24.3867 177.822 24.2 178.755 24.2ZM187.186 35.14C186.733 35.14 186.346 34.9867 186.026 34.68C185.706 34.36 185.546 33.96 185.546 33.48C185.546 32.9733 185.706 32.5733 186.026 32.28C186.346 31.9733 186.733 31.82 187.186 31.82C187.64 31.82 188.026 31.9733 188.346 32.28C188.666 32.5733 188.826 32.9733 188.826 33.48C188.826 33.96 188.666 34.36 188.346 34.68C188.026 34.9867 187.64 35.14 187.186 35.14Z" fill="white"/>
<path d="M197.849 35V32.84L197.709 32.38V28.6C197.709 27.8667 197.489 27.3 197.049 26.9C196.609 26.4867 195.942 26.28 195.049 26.28C194.449 26.28 193.856 26.3733 193.269 26.56C192.696 26.7467 192.209 27.0067 191.809 27.34L190.829 25.52C191.402 25.08 192.082 24.7533 192.869 24.54C193.669 24.3133 194.496 24.2 195.349 24.2C196.896 24.2 198.089 24.5733 198.929 25.32C199.782 26.0533 200.209 27.1933 200.209 28.74V35H197.849ZM194.489 35.14C193.689 35.14 192.989 35.0067 192.389 34.74C191.789 34.46 191.322 34.08 190.989 33.6C190.669 33.1067 190.509 32.5533 190.509 31.94C190.509 31.34 190.649 30.8 190.929 30.32C191.222 29.84 191.696 29.46 192.349 29.18C193.002 28.9 193.869 28.76 194.949 28.76H198.049V30.42H195.129C194.276 30.42 193.702 30.56 193.409 30.84C193.116 31.1067 192.969 31.44 192.969 31.84C192.969 32.2933 193.149 32.6533 193.509 32.92C193.869 33.1867 194.369 33.32 195.009 33.32C195.622 33.32 196.169 33.18 196.649 32.9C197.142 32.62 197.496 32.2067 197.709 31.66L198.129 33.16C197.889 33.7867 197.456 34.2733 196.829 34.62C196.216 34.9667 195.436 35.14 194.489 35.14ZM203.418 35V24.32H205.918V35H203.418ZM204.678 22.56C204.211 22.56 203.824 22.4133 203.518 22.12C203.224 21.8267 203.078 21.4733 203.078 21.06C203.078 20.6333 203.224 20.28 203.518 20C203.824 19.7067 204.211 19.56 204.678 19.56C205.144 19.56 205.524 19.7 205.818 19.98C206.124 20.2467 206.278 20.5867 206.278 21C206.278 21.44 206.131 21.8133 205.838 22.12C205.544 22.4133 205.158 22.56 204.678 22.56Z" fill="#37E4FF"/>
<defs>
<filter id="filter0_d_21_576" x="1" y="0" width="62.4846" height="56" filterUnits="userSpaceOnUse" color-interpolation-filters="sRGB">
<feFlood flood-opacity="0" result="BackgroundImageFix"/>
<feColorMatrix in="SourceAlpha" type="matrix" values="0 0 0 0 0 0 0 0 0 0 0 0 0 0 0 0 0 0 127 0" result="hardAlpha"/>
<feOffset/>
<feGaussianBlur stdDeviation="4"/>
<feColorMatrix type="matrix" values="0 0 0 0 1 0 0 0 0 1 0 0 0 0 1 0 0 0 1 0"/>
<feBlend mode="normal" in2="BackgroundImageFix" result="effect1_dropShadow_21_576"/>
<feBlend mode="normal" in="SourceGraphic" in2="effect1_dropShadow_21_576" result="shape"/>
</filter>
<filter id="filter1_d_21_576" x="0.198517" y="4.60596" width="46.5693" height="46.5693" filterUnits="userSpaceOnUse" color-interpolation-filters="sRGB">
<feFlood flood-opacity="0" result="BackgroundImageFix"/>
<feColorMatrix in="SourceAlpha" type="matrix" values="0 0 0 0 0 0 0 0 0 0 0 0 0 0 0 0 0 0 127 0" result="hardAlpha"/>
<feMorphology radius="4" operator="erode" in="SourceAlpha" result="effect1_dropShadow_21_576"/>
<feOffset/>
<feGaussianBlur stdDeviation="12"/>
<feComposite in2="hardAlpha" operator="out"/>
<feColorMatrix type="matrix" values="0 0 0 0 1 0 0 0 0 1 0 0 0 0 1 0 0 0 1 0"/>
<feBlend mode="normal" in2="BackgroundImageFix" result="effect1_dropShadow_21_576"/>
<feBlend mode="normal" in="SourceGraphic" in2="effect1_dropShadow_21_576" result="shape"/>
</filter>
<filter id="filter2_d_21_576" x="17.9357" y="4.60596" width="46.5693" height="46.5693" filterUnits="userSpaceOnUse" color-interpolation-filters="sRGB">
<feFlood flood-opacity="0" result="BackgroundImageFix"/>
<feColorMatrix in="SourceAlpha" type="matrix" values="0 0 0 0 0 0 0 0 0 0 0 0 0 0 0 0 0 0 127 0" result="hardAlpha"/>
<feMorphology radius="4" operator="erode" in="SourceAlpha" result="effect1_dropShadow_21_576"/>
<feOffset/>
<feGaussianBlur stdDeviation="12"/>
<feComposite in2="hardAlpha" operator="out"/>
<feColorMatrix type="matrix" values="0 0 0 0 1 0 0 0 0 1 0 0 0 0 1 0 0 0 1 0"/>
<feBlend mode="normal" in2="BackgroundImageFix" result="effect1_dropShadow_21_576"/>
<feBlend mode="normal" in="SourceGraphic" in2="effect1_dropShadow_21_576" result="shape"/>
</filter>
</defs>
</svg>
