<svg width="167" height="56" viewBox="0 0 167 56" fill="none" xmlns="http://www.w3.org/2000/svg">
<g filter="url(#filter0_d_9_884)">
<path fill-rule="evenodd" clip-rule="evenodd" d="M43.1546 14.1757L33.6382 10.0419C32.7478 9.65512 31.7368 9.65512 30.8464 10.0419L21.3301 14.1757L12.8871 17.9805C11.6427 18.5412 10.8372 19.7736 10.8231 21.1384L10.7519 28L10.8231 34.8616C10.8372 36.2264 11.6427 37.4588 12.8871 38.0195L21.3299 41.8242L30.8464 45.9581C31.7368 46.3449 32.7478 46.3449 33.6382 45.9581L43.1547 41.8242L51.5975 38.0195C52.8419 37.4588 53.6474 36.2264 53.6615 34.8616L53.7327 28L53.6615 21.1384C53.6474 19.7736 52.8419 18.5412 51.5975 17.9805L43.1546 14.1757ZM43.8635 12.5737L34.3362 8.43515C33.0006 7.85495 31.4841 7.85495 30.1484 8.43515L20.6212 12.5737L12.1673 16.3833C10.3008 17.2245 9.09259 19.073 9.07136 21.1202L9 28L9.07136 34.8798C9.09259 36.927 10.3008 38.7755 12.1673 39.6167L20.6212 43.4263L30.1484 47.5648C31.4841 48.145 33.0006 48.145 34.3362 47.5648L43.8635 43.4263L52.3173 39.6167C54.1838 38.7755 55.392 36.927 55.4133 34.8798L55.4846 28L55.4133 21.1202C55.392 19.073 54.1838 17.2245 52.3173 16.3833L43.8635 12.5737Z" fill="white"/>
</g>
<path fill-rule="evenodd" clip-rule="evenodd" d="M31.3664 13.438C31.3664 12.9542 31.7585 12.5621 32.2423 12.5621C32.726 12.5621 33.1182 12.9542 33.1182 13.438V42.3431C33.1182 42.8268 32.726 43.219 32.2423 43.219C31.7585 43.219 31.3664 42.8268 31.3664 42.3431V13.438ZM40.1255 15.6278C40.1255 15.144 40.5176 14.7519 41.0014 14.7519C41.4851 14.7519 41.8773 15.144 41.8773 15.6278V21.6062C41.8773 22.0676 41.4628 22.4161 41.0014 22.4161C40.54 22.4161 40.1255 22.0675 40.1255 21.6061V15.6278ZM37.345 23.8161C37.4409 23.73 37.4978 23.6095 37.4978 23.4806V20.0073C37.4978 19.5236 37.1056 19.1314 36.6218 19.1314C36.1381 19.1314 35.7459 19.5236 35.7459 20.0073V23.3168C35.7459 23.819 36.9714 24.1517 37.345 23.8161ZM35.7459 32.4643C35.7459 31.9621 36.9714 31.6294 37.345 31.9649C37.4409 32.051 37.4978 32.1716 37.4978 32.3004V35.7737C37.4978 36.2575 37.1056 36.6496 36.6218 36.6496C36.1381 36.6496 35.7459 36.2575 35.7459 35.7737V32.4643ZM40.1255 34.1749C40.1255 33.7135 40.54 33.365 41.0014 33.365C41.4628 33.365 41.8773 33.7135 41.8773 34.1748V40.1533C41.8773 40.637 41.4851 41.0292 41.0014 41.0292C40.5176 41.0292 40.1255 40.637 40.1255 40.1533V34.1749ZM44.6578 31.965C44.5619 32.0511 44.505 32.1717 44.505 32.3006V36.8686C44.505 37.3524 44.8972 37.7445 45.381 37.7445C45.8647 37.7445 46.2569 37.3524 46.2569 36.8686V32.4643C46.2569 31.9621 45.0315 31.6294 44.6578 31.965ZM44.6578 23.8161C45.0315 24.1516 46.2569 23.8189 46.2569 23.3167V18.9124C46.2569 18.4287 45.8647 18.0365 45.381 18.0365C44.8972 18.0365 44.505 18.4287 44.505 18.9124V23.4805C44.505 23.6094 44.5619 23.73 44.6578 23.8161ZM27.8627 20.2263C27.379 20.2263 26.9868 20.6185 26.9868 21.1022V23.4805C26.9868 23.6094 27.0437 23.73 27.1396 23.8161C27.5133 24.1516 28.7386 23.8189 28.7386 23.3167V21.1022C28.7386 20.6185 28.3465 20.2263 27.8627 20.2263ZM28.7386 32.4643C28.7386 31.9621 27.5133 31.6294 27.1396 31.9649C27.0437 32.0511 26.9868 32.1717 26.9868 32.3005V34.6788C26.9868 35.1626 27.379 35.5547 27.8627 35.5547C28.3465 35.5547 28.7386 35.1626 28.7386 34.6788V32.4643ZM24.3591 34.1749C24.3591 33.7135 23.9446 33.365 23.4832 33.365C23.0218 33.365 22.6073 33.7135 22.6073 34.1749V40.1533C22.6073 40.637 22.9994 41.0292 23.4832 41.0292C23.9669 41.0292 24.3591 40.637 24.3591 40.1533V34.1749ZM19.9795 32.3005C19.9795 32.1716 19.9227 32.051 19.8268 31.9649C19.4531 31.6294 18.2277 31.9621 18.2277 32.4643V36.8686C18.2277 37.3524 18.6199 37.7445 19.1036 37.7445C19.5874 37.7445 19.9795 37.3524 19.9795 36.8686V32.3005ZM18.2277 23.3168C18.2277 23.819 19.4531 24.1517 19.8268 23.8161C19.9227 23.73 19.9795 23.6094 19.9795 23.4806V18.9124C19.9795 18.4287 19.5874 18.0365 19.1036 18.0365C18.6199 18.0365 18.2277 18.4287 18.2277 18.9124V23.3168ZM23.4832 22.4161C23.0218 22.4161 22.6073 22.0675 22.6073 21.6061V15.6278C22.6073 15.144 22.9994 14.7519 23.4832 14.7519C23.9669 14.7519 24.3591 15.144 24.3591 15.6278V21.6062C24.3591 22.0676 23.9446 22.4161 23.4832 22.4161ZM13.8481 22.1971C13.8481 21.7133 14.2403 21.3212 14.7241 21.3212C15.2078 21.3212 15.6 21.7133 15.6 22.1971V33.5839C15.6 34.0677 15.2078 34.4599 14.7241 34.4599C14.2403 34.4599 13.8481 34.0677 13.8481 33.5839V22.1971ZM49.7605 23.511C49.2768 23.511 48.8846 23.9031 48.8846 24.3869V31.3942C48.8846 31.8779 49.2768 32.2701 49.7605 32.2701C50.2443 32.2701 50.6364 31.8779 50.6364 31.3942V24.3869C50.6364 23.9031 50.2443 23.511 49.7605 23.511Z" fill="#37E4FF"/>
<g filter="url(#filter1_d_9_884)">
<circle cx="23.4832" cy="27.8905" r="3.28467" fill="white"/>
</g>
<g filter="url(#filter2_d_9_884)">
<circle cx="41.2204" cy="27.8905" r="3.28467" fill="white"/>
</g>
<path d="M73.3646 35V21H75.9646V32.8H83.2846V35H73.3646ZM85.0973 35V24.32H87.5973V35H85.0973ZM86.3573 22.56C85.8906 22.56 85.5039 22.4133 85.1973 22.12C84.9039 21.8267 84.7573 21.4733 84.7573 21.06C84.7573 20.6333 84.9039 20.28 85.1973 20C85.5039 19.7067 85.8906 19.56 86.3573 19.56C86.8239 19.56 87.2039 19.7 87.4973 19.98C87.8039 20.2467 87.9573 20.5867 87.9573 21C87.9573 21.44 87.8106 21.8133 87.5173 22.12C87.2239 22.4133 86.8373 22.56 86.3573 22.56ZM96.7985 35.14C95.8919 35.14 95.0852 34.94 94.3785 34.54C93.6719 34.14 93.1119 33.54 92.6985 32.74C92.2985 31.9267 92.0985 30.9 92.0985 29.66C92.0985 28.4067 92.3052 27.38 92.7185 26.58C93.1452 25.78 93.7119 25.1867 94.4185 24.8C95.1385 24.4 95.9319 24.2 96.7985 24.2C97.8519 24.2 98.7785 24.4267 99.5785 24.88C100.392 25.3333 101.032 25.9667 101.499 26.78C101.979 27.5933 102.219 28.5533 102.219 29.66C102.219 30.7667 101.979 31.7267 101.499 32.54C101.032 33.3533 100.392 33.9933 99.5785 34.46C98.7785 34.9133 97.8519 35.14 96.7985 35.14ZM90.8785 35V20.16H93.3785V26.8L93.1785 29.64L93.2585 32.48V35H90.8785ZM96.5185 33C97.1185 33 97.6519 32.8667 98.1185 32.6C98.5985 32.3333 98.9785 31.9467 99.2585 31.44C99.5385 30.9333 99.6785 30.34 99.6785 29.66C99.6785 28.9667 99.5385 28.3733 99.2585 27.88C98.9785 27.3733 98.5985 26.9867 98.1185 26.72C97.6519 26.4533 97.1185 26.32 96.5185 26.32C95.9185 26.32 95.3785 26.4533 94.8985 26.72C94.4185 26.9867 94.0385 27.3733 93.7585 27.88C93.4785 28.3733 93.3385 28.9667 93.3385 29.66C93.3385 30.34 93.4785 30.9333 93.7585 31.44C94.0385 31.9467 94.4185 32.3333 94.8985 32.6C95.3785 32.8667 95.9185 33 96.5185 33ZM109.609 35.14C108.423 35.14 107.383 34.9067 106.489 34.44C105.609 33.96 104.923 33.3067 104.429 32.48C103.949 31.6533 103.709 30.7133 103.709 29.66C103.709 28.5933 103.943 27.6533 104.409 26.84C104.889 26.0133 105.543 25.3667 106.369 24.9C107.209 24.4333 108.163 24.2 109.229 24.2C110.269 24.2 111.196 24.4267 112.009 24.88C112.823 25.3333 113.463 25.9733 113.929 26.8C114.396 27.6267 114.629 28.6 114.629 29.72C114.629 29.8267 114.623 29.9467 114.609 30.08C114.609 30.2133 114.603 30.34 114.589 30.46H105.689V28.8H113.269L112.289 29.32C112.303 28.7067 112.176 28.1667 111.909 27.7C111.643 27.2333 111.276 26.8667 110.809 26.6C110.356 26.3333 109.829 26.2 109.229 26.2C108.616 26.2 108.076 26.3333 107.609 26.6C107.156 26.8667 106.796 27.24 106.529 27.72C106.276 28.1867 106.149 28.74 106.149 29.38V29.78C106.149 30.42 106.296 30.9867 106.589 31.48C106.883 31.9733 107.296 32.3533 107.829 32.62C108.363 32.8867 108.976 33.02 109.669 33.02C110.269 33.02 110.809 32.9267 111.289 32.74C111.769 32.5533 112.196 32.26 112.569 31.86L113.909 33.4C113.429 33.96 112.823 34.3933 112.089 34.7C111.369 34.9933 110.543 35.14 109.609 35.14ZM117.031 35V24.32H119.411V27.26L119.131 26.4C119.451 25.68 119.951 25.1333 120.631 24.76C121.324 24.3867 122.184 24.2 123.211 24.2V26.58C123.104 26.5533 123.004 26.54 122.911 26.54C122.818 26.5267 122.724 26.52 122.631 26.52C121.684 26.52 120.931 26.8 120.371 27.36C119.811 27.9067 119.531 28.7267 119.531 29.82V35H117.031ZM129.742 35.14C128.569 35.14 127.662 34.84 127.022 34.24C126.382 33.6267 126.062 32.7267 126.062 31.54V21.96H128.562V31.48C128.562 31.9867 128.689 32.38 128.942 32.66C129.209 32.94 129.576 33.08 130.042 33.08C130.602 33.08 131.069 32.9333 131.442 32.64L132.142 34.42C131.849 34.66 131.489 34.84 131.062 34.96C130.636 35.08 130.196 35.14 129.742 35.14ZM124.302 26.4V24.4H131.422V26.4H124.302ZM134.884 39.02C134.364 39.02 133.844 38.9333 133.324 38.76C132.804 38.5867 132.37 38.3467 132.024 38.04L133.024 36.2C133.277 36.4267 133.564 36.6067 133.884 36.74C134.204 36.8733 134.53 36.94 134.864 36.94C135.317 36.94 135.684 36.8267 135.964 36.6C136.244 36.3733 136.504 35.9933 136.744 35.46L137.364 34.06L137.564 33.76L141.604 24.32H144.004L139.004 35.86C138.67 36.66 138.297 37.2933 137.884 37.76C137.484 38.2267 137.03 38.5533 136.524 38.74C136.03 38.9267 135.484 39.02 134.884 39.02ZM137.084 35.38L132.264 24.32H134.864L138.784 33.54L137.084 35.38ZM145.702 35.14C145.249 35.14 144.862 34.9867 144.542 34.68C144.222 34.36 144.062 33.96 144.062 33.48C144.062 32.9733 144.222 32.5733 144.542 32.28C144.862 31.9733 145.249 31.82 145.702 31.82C146.155 31.82 146.542 31.9733 146.862 32.28C147.182 32.5733 147.342 32.9733 147.342 33.48C147.342 33.96 147.182 34.36 146.862 34.68C146.542 34.9867 146.155 35.14 145.702 35.14Z" fill="white"/>
<path d="M156.365 35V32.84L156.225 32.38V28.6C156.225 27.8667 156.005 27.3 155.565 26.9C155.125 26.4867 154.458 26.28 153.565 26.28C152.965 26.28 152.371 26.3733 151.785 26.56C151.211 26.7467 150.725 27.0067 150.325 27.34L149.345 25.52C149.918 25.08 150.598 24.7533 151.385 24.54C152.185 24.3133 153.011 24.2 153.865 24.2C155.411 24.2 156.605 24.5733 157.445 25.32C158.298 26.0533 158.725 27.1933 158.725 28.74V35H156.365ZM153.005 35.14C152.205 35.14 151.505 35.0067 150.905 34.74C150.305 34.46 149.838 34.08 149.505 33.6C149.185 33.1067 149.025 32.5533 149.025 31.94C149.025 31.34 149.165 30.8 149.445 30.32C149.738 29.84 150.211 29.46 150.865 29.18C151.518 28.9 152.385 28.76 153.465 28.76H156.565V30.42H153.645C152.791 30.42 152.218 30.56 151.925 30.84C151.631 31.1067 151.485 31.44 151.485 31.84C151.485 32.2933 151.665 32.6533 152.025 32.92C152.385 33.1867 152.885 33.32 153.525 33.32C154.138 33.32 154.685 33.18 155.165 32.9C155.658 32.62 156.011 32.2067 156.225 31.66L156.645 33.16C156.405 33.7867 155.971 34.2733 155.345 34.62C154.731 34.9667 153.951 35.14 153.005 35.14ZM161.933 35V24.32H164.433V35H161.933ZM163.193 22.56C162.727 22.56 162.34 22.4133 162.033 22.12C161.74 21.8267 161.593 21.4733 161.593 21.06C161.593 20.6333 161.74 20.28 162.033 20C162.34 19.7067 162.727 19.56 163.193 19.56C163.66 19.56 164.04 19.7 164.333 19.98C164.64 20.2467 164.793 20.5867 164.793 21C164.793 21.44 164.647 21.8133 164.353 22.12C164.06 22.4133 163.673 22.56 163.193 22.56Z" fill="#37E4FF"/>
<defs>
<filter id="filter0_d_9_884" x="1" y="0" width="62.4846" height="56" filterUnits="userSpaceOnUse" color-interpolation-filters="sRGB">
<feFlood flood-opacity="0" result="BackgroundImageFix"/>
<feColorMatrix in="SourceAlpha" type="matrix" values="0 0 0 0 0 0 0 0 0 0 0 0 0 0 0 0 0 0 127 0" result="hardAlpha"/>
<feOffset/>
<feGaussianBlur stdDeviation="4"/>
<feColorMatrix type="matrix" values="0 0 0 0 1 0 0 0 0 1 0 0 0 0 1 0 0 0 1 0"/>
<feBlend mode="normal" in2="BackgroundImageFix" result="effect1_dropShadow_9_884"/>
<feBlend mode="normal" in="SourceGraphic" in2="effect1_dropShadow_9_884" result="shape"/>
</filter>
<filter id="filter1_d_9_884" x="0.198547" y="4.60583" width="46.5693" height="46.5693" filterUnits="userSpaceOnUse" color-interpolation-filters="sRGB">
<feFlood flood-opacity="0" result="BackgroundImageFix"/>
<feColorMatrix in="SourceAlpha" type="matrix" values="0 0 0 0 0 0 0 0 0 0 0 0 0 0 0 0 0 0 127 0" result="hardAlpha"/>
<feMorphology radius="4" operator="erode" in="SourceAlpha" result="effect1_dropShadow_9_884"/>
<feOffset/>
<feGaussianBlur stdDeviation="12"/>
<feComposite in2="hardAlpha" operator="out"/>
<feColorMatrix type="matrix" values="0 0 0 0 1 0 0 0 0 1 0 0 0 0 1 0 0 0 1 0"/>
<feBlend mode="normal" in2="BackgroundImageFix" result="effect1_dropShadow_9_884"/>
<feBlend mode="normal" in="SourceGraphic" in2="effect1_dropShadow_9_884" result="shape"/>
</filter>
<filter id="filter2_d_9_884" x="17.9357" y="4.60583" width="46.5693" height="46.5693" filterUnits="userSpaceOnUse" color-interpolation-filters="sRGB">
<feFlood flood-opacity="0" result="BackgroundImageFix"/>
<feColorMatrix in="SourceAlpha" type="matrix" values="0 0 0 0 0 0 0 0 0 0 0 0 0 0 0 0 0 0 127 0" result="hardAlpha"/>
<feMorphology radius="4" operator="erode" in="SourceAlpha" result="effect1_dropShadow_9_884"/>
<feOffset/>
<feGaussianBlur stdDeviation="12"/>
<feComposite in2="hardAlpha" operator="out"/>
<feColorMatrix type="matrix" values="0 0 0 0 1 0 0 0 0 1 0 0 0 0 1 0 0 0 1 0"/>
<feBlend mode="normal" in2="BackgroundImageFix" result="effect1_dropShadow_9_884"/>
<feBlend mode="normal" in="SourceGraphic" in2="effect1_dropShadow_9_884" result="shape"/>
</filter>
</defs>
</svg>
