<svg width="1440" height="76" viewBox="0 0 1440 76" fill="none" xmlns="http://www.w3.org/2000/svg">
<g filter="url(#filter0_d_9_822)">
<path fill-rule="evenodd" clip-rule="evenodd" d="M174.155 30.1757L164.638 26.0419C163.748 25.6551 162.737 25.6551 161.846 26.0419L152.33 30.1757L143.887 33.9805C142.643 34.5412 141.837 35.7736 141.823 37.1384L141.752 44L141.823 50.8616C141.837 52.2264 142.643 53.4588 143.887 54.0195L152.33 57.8242L161.846 61.9581C162.737 62.3449 163.748 62.3449 164.638 61.9581L174.155 57.8242L182.598 54.0195C183.842 53.4588 184.647 52.2264 184.662 50.8616L184.733 44L184.662 37.1384C184.647 35.7736 183.842 34.5412 182.598 33.9805L174.155 30.1757ZM174.863 28.5737L165.336 24.4351C164.001 23.855 162.484 23.855 161.148 24.4351L151.621 28.5737L143.167 32.3833C141.301 33.2245 140.093 35.073 140.071 37.1202L140 44L140.071 50.8798C140.093 52.927 141.301 54.7755 143.167 55.6167L151.621 59.4263L161.148 63.5648C162.484 64.145 164.001 64.145 165.336 63.5648L174.863 59.4263L183.317 55.6167C185.184 54.7755 186.392 52.927 186.413 50.8798L186.485 44L186.413 37.1202C186.392 35.073 185.184 33.2245 183.317 32.3833L174.863 28.5737Z" fill="white"/>
</g>
<path fill-rule="evenodd" clip-rule="evenodd" d="M162.366 29.438C162.366 28.9542 162.759 28.5621 163.242 28.5621C163.726 28.5621 164.118 28.9542 164.118 29.438V58.3431C164.118 58.8268 163.726 59.219 163.242 59.219C162.759 59.219 162.366 58.8268 162.366 58.3431V29.438ZM171.125 31.6278C171.125 31.144 171.518 30.7519 172.001 30.7519C172.485 30.7519 172.877 31.144 172.877 31.6278V37.6062C172.877 38.0676 172.463 38.4161 172.001 38.4161C171.54 38.4161 171.125 38.0675 171.125 37.6061V31.6278ZM168.345 39.8161C168.441 39.73 168.498 39.6095 168.498 39.4806V36.0073C168.498 35.5236 168.106 35.1314 167.622 35.1314C167.138 35.1314 166.746 35.5236 166.746 36.0073V39.3168C166.746 39.819 167.971 40.1517 168.345 39.8161ZM166.746 48.4643C166.746 47.9621 167.971 47.6294 168.345 47.9649C168.441 48.051 168.498 48.1716 168.498 48.3004V51.7737C168.498 52.2575 168.106 52.6496 167.622 52.6496C167.138 52.6496 166.746 52.2575 166.746 51.7737V48.4643ZM171.125 50.1749C171.125 49.7135 171.54 49.365 172.001 49.365C172.463 49.365 172.877 49.7135 172.877 50.1748V56.1533C172.877 56.637 172.485 57.0292 172.001 57.0292C171.518 57.0292 171.125 56.637 171.125 56.1533V50.1749ZM175.658 47.965C175.562 48.0511 175.505 48.1717 175.505 48.3006V52.8686C175.505 53.3524 175.897 53.7445 176.381 53.7445C176.865 53.7445 177.257 53.3524 177.257 52.8686V48.4643C177.257 47.9621 176.031 47.6294 175.658 47.965ZM175.658 39.8161C176.031 40.1516 177.257 39.8189 177.257 39.3167V34.9124C177.257 34.4287 176.865 34.0365 176.381 34.0365C175.897 34.0365 175.505 34.4287 175.505 34.9124V39.4805C175.505 39.6094 175.562 39.73 175.658 39.8161ZM158.863 36.2263C158.379 36.2263 157.987 36.6185 157.987 37.1022V39.4805C157.987 39.6094 158.044 39.73 158.14 39.8161C158.513 40.1516 159.739 39.8189 159.739 39.3167V37.1022C159.739 36.6185 159.346 36.2263 158.863 36.2263ZM159.739 48.4643C159.739 47.9621 158.513 47.6294 158.14 47.9649C158.044 48.0511 157.987 48.1717 157.987 48.3005V50.6788C157.987 51.1626 158.379 51.5547 158.863 51.5547C159.346 51.5547 159.739 51.1626 159.739 50.6788V48.4643ZM155.359 50.1749C155.359 49.7135 154.945 49.365 154.483 49.365C154.022 49.365 153.607 49.7135 153.607 50.1749V56.1533C153.607 56.637 153.999 57.0292 154.483 57.0292C154.967 57.0292 155.359 56.637 155.359 56.1533V50.1749ZM150.98 48.3005C150.98 48.1716 150.923 48.051 150.827 47.9649C150.453 47.6294 149.228 47.9621 149.228 48.4643V52.8686C149.228 53.3524 149.62 53.7445 150.104 53.7445C150.587 53.7445 150.98 53.3524 150.98 52.8686V48.3005ZM149.228 39.3168C149.228 39.819 150.453 40.1517 150.827 39.8161C150.923 39.73 150.98 39.6094 150.98 39.4806V34.9124C150.98 34.4287 150.587 34.0365 150.104 34.0365C149.62 34.0365 149.228 34.4287 149.228 34.9124V39.3168ZM154.483 38.4161C154.022 38.4161 153.607 38.0675 153.607 37.6061V31.6278C153.607 31.144 153.999 30.7519 154.483 30.7519C154.967 30.7519 155.359 31.144 155.359 31.6278V37.6062C155.359 38.0676 154.945 38.4161 154.483 38.4161ZM144.848 38.1971C144.848 37.7133 145.24 37.3212 145.724 37.3212C146.208 37.3212 146.6 37.7133 146.6 38.1971V49.5839C146.6 50.0677 146.208 50.4599 145.724 50.4599C145.24 50.4599 144.848 50.0677 144.848 49.5839V38.1971ZM180.761 39.511C180.277 39.511 179.885 39.9031 179.885 40.3869V47.3942C179.885 47.8779 180.277 48.2701 180.761 48.2701C181.244 48.2701 181.636 47.8779 181.636 47.3942V40.3869C181.636 39.9031 181.244 39.511 180.761 39.511Z" fill="#37E4FF"/>
<g filter="url(#filter1_d_9_822)">
<circle cx="154.483" cy="43.8905" r="3.28467" fill="white"/>
</g>
<g filter="url(#filter2_d_9_822)">
<circle cx="172.22" cy="43.8905" r="3.28467" fill="white"/>
</g>
<path d="M204.365 51V37H206.965V48.8H214.285V51H204.365ZM216.097 51V40.32H218.597V51H216.097ZM217.357 38.56C216.891 38.56 216.504 38.4133 216.197 38.12C215.904 37.8267 215.757 37.4733 215.757 37.06C215.757 36.6333 215.904 36.28 216.197 36C216.504 35.7067 216.891 35.56 217.357 35.56C217.824 35.56 218.204 35.7 218.497 35.98C218.804 36.2467 218.957 36.5867 218.957 37C218.957 37.44 218.811 37.8133 218.517 38.12C218.224 38.4133 217.837 38.56 217.357 38.56ZM227.799 51.14C226.892 51.14 226.085 50.94 225.379 50.54C224.672 50.14 224.112 49.54 223.699 48.74C223.299 47.9267 223.099 46.9 223.099 45.66C223.099 44.4067 223.305 43.38 223.719 42.58C224.145 41.78 224.712 41.1867 225.419 40.8C226.139 40.4 226.932 40.2 227.799 40.2C228.852 40.2 229.779 40.4267 230.579 40.88C231.392 41.3333 232.032 41.9667 232.499 42.78C232.979 43.5933 233.219 44.5533 233.219 45.66C233.219 46.7667 232.979 47.7267 232.499 48.54C232.032 49.3533 231.392 49.9933 230.579 50.46C229.779 50.9133 228.852 51.14 227.799 51.14ZM221.879 51V36.16H224.379V42.8L224.179 45.64L224.259 48.48V51H221.879ZM227.519 49C228.119 49 228.652 48.8667 229.119 48.6C229.599 48.3333 229.979 47.9467 230.259 47.44C230.539 46.9333 230.679 46.34 230.679 45.66C230.679 44.9667 230.539 44.3733 230.259 43.88C229.979 43.3733 229.599 42.9867 229.119 42.72C228.652 42.4533 228.119 42.32 227.519 42.32C226.919 42.32 226.379 42.4533 225.899 42.72C225.419 42.9867 225.039 43.3733 224.759 43.88C224.479 44.3733 224.339 44.9667 224.339 45.66C224.339 46.34 224.479 46.9333 224.759 47.44C225.039 47.9467 225.419 48.3333 225.899 48.6C226.379 48.8667 226.919 49 227.519 49ZM240.609 51.14C239.423 51.14 238.383 50.9067 237.489 50.44C236.609 49.96 235.923 49.3067 235.429 48.48C234.949 47.6533 234.709 46.7133 234.709 45.66C234.709 44.5933 234.943 43.6533 235.409 42.84C235.889 42.0133 236.543 41.3667 237.369 40.9C238.209 40.4333 239.163 40.2 240.229 40.2C241.269 40.2 242.196 40.4267 243.009 40.88C243.823 41.3333 244.463 41.9733 244.929 42.8C245.396 43.6267 245.629 44.6 245.629 45.72C245.629 45.8267 245.623 45.9467 245.609 46.08C245.609 46.2133 245.603 46.34 245.589 46.46H236.689V44.8H244.269L243.289 45.32C243.303 44.7067 243.176 44.1667 242.909 43.7C242.643 43.2333 242.276 42.8667 241.809 42.6C241.356 42.3333 240.829 42.2 240.229 42.2C239.616 42.2 239.076 42.3333 238.609 42.6C238.156 42.8667 237.796 43.24 237.529 43.72C237.276 44.1867 237.149 44.74 237.149 45.38V45.78C237.149 46.42 237.296 46.9867 237.589 47.48C237.883 47.9733 238.296 48.3533 238.829 48.62C239.363 48.8867 239.976 49.02 240.669 49.02C241.269 49.02 241.809 48.9267 242.289 48.74C242.769 48.5533 243.196 48.26 243.569 47.86L244.909 49.4C244.429 49.96 243.823 50.3933 243.089 50.7C242.369 50.9933 241.543 51.14 240.609 51.14ZM248.031 51V40.32H250.411V43.26L250.131 42.4C250.451 41.68 250.951 41.1333 251.631 40.76C252.324 40.3867 253.184 40.2 254.211 40.2V42.58C254.104 42.5533 254.004 42.54 253.911 42.54C253.818 42.5267 253.724 42.52 253.631 42.52C252.684 42.52 251.931 42.8 251.371 43.36C250.811 43.9067 250.531 44.7267 250.531 45.82V51H248.031ZM260.742 51.14C259.569 51.14 258.662 50.84 258.022 50.24C257.382 49.6267 257.062 48.7267 257.062 47.54V37.96H259.562V47.48C259.562 47.9867 259.689 48.38 259.942 48.66C260.209 48.94 260.576 49.08 261.042 49.08C261.602 49.08 262.069 48.9333 262.442 48.64L263.142 50.42C262.849 50.66 262.489 50.84 262.062 50.96C261.636 51.08 261.196 51.14 260.742 51.14ZM255.302 42.4V40.4H262.422V42.4H255.302ZM265.884 55.02C265.364 55.02 264.844 54.9333 264.324 54.76C263.804 54.5867 263.37 54.3467 263.024 54.04L264.024 52.2C264.277 52.4267 264.564 52.6067 264.884 52.74C265.204 52.8733 265.53 52.94 265.864 52.94C266.317 52.94 266.684 52.8267 266.964 52.6C267.244 52.3733 267.504 51.9933 267.744 51.46L268.364 50.06L268.564 49.76L272.604 40.32H275.004L270.004 51.86C269.67 52.66 269.297 53.2933 268.884 53.76C268.484 54.2267 268.03 54.5533 267.524 54.74C267.03 54.9267 266.484 55.02 265.884 55.02ZM268.084 51.38L263.264 40.32H265.864L269.784 49.54L268.084 51.38ZM276.702 51.14C276.249 51.14 275.862 50.9867 275.542 50.68C275.222 50.36 275.062 49.96 275.062 49.48C275.062 48.9733 275.222 48.5733 275.542 48.28C275.862 47.9733 276.249 47.82 276.702 47.82C277.155 47.82 277.542 47.9733 277.862 48.28C278.182 48.5733 278.342 48.9733 278.342 49.48C278.342 49.96 278.182 50.36 277.862 50.68C277.542 50.9867 277.155 51.14 276.702 51.14Z" fill="white"/>
<path d="M287.365 51V48.84L287.225 48.38V44.6C287.225 43.8667 287.005 43.3 286.565 42.9C286.125 42.4867 285.458 42.28 284.565 42.28C283.965 42.28 283.371 42.3733 282.785 42.56C282.211 42.7467 281.725 43.0067 281.325 43.34L280.345 41.52C280.918 41.08 281.598 40.7533 282.385 40.54C283.185 40.3133 284.011 40.2 284.865 40.2C286.411 40.2 287.605 40.5733 288.445 41.32C289.298 42.0533 289.725 43.1933 289.725 44.74V51H287.365ZM284.005 51.14C283.205 51.14 282.505 51.0067 281.905 50.74C281.305 50.46 280.838 50.08 280.505 49.6C280.185 49.1067 280.025 48.5533 280.025 47.94C280.025 47.34 280.165 46.8 280.445 46.32C280.738 45.84 281.211 45.46 281.865 45.18C282.518 44.9 283.385 44.76 284.465 44.76H287.565V46.42H284.645C283.791 46.42 283.218 46.56 282.925 46.84C282.631 47.1067 282.485 47.44 282.485 47.84C282.485 48.2933 282.665 48.6533 283.025 48.92C283.385 49.1867 283.885 49.32 284.525 49.32C285.138 49.32 285.685 49.18 286.165 48.9C286.658 48.62 287.011 48.2067 287.225 47.66L287.645 49.16C287.405 49.7867 286.971 50.2733 286.345 50.62C285.731 50.9667 284.951 51.14 284.005 51.14ZM292.933 51V40.32H295.433V51H292.933ZM294.193 38.56C293.727 38.56 293.34 38.4133 293.033 38.12C292.74 37.8267 292.593 37.4733 292.593 37.06C292.593 36.6333 292.74 36.28 293.033 36C293.34 35.7067 293.727 35.56 294.193 35.56C294.66 35.56 295.04 35.7 295.333 35.98C295.64 36.2467 295.793 36.5867 295.793 37C295.793 37.44 295.647 37.8133 295.353 38.12C295.06 38.4133 294.673 38.56 294.193 38.56Z" fill="#37E4FF"/>
<g filter="url(#filter3_b_9_822)">
<rect x="1052" y="26" width="78" height="36" rx="16" fill="#303030" fill-opacity="0.5"/>
<path d="M1067.14 43.632H1072.9V44.992H1067.14V43.632ZM1067.28 48.608H1073.81V50H1065.68V38.8H1073.58V40.192H1067.28V48.608ZM1076.4 50V38.8H1077.71L1085.12 48H1084.43V38.8H1086.03V50H1084.72L1077.31 40.8H1078V50H1076.4Z" fill="white"/>
<g clip-path="url(#clip0_9_822)">
<path d="M1103.41 40L1108 44.58L1112.59 40L1114 41.41L1108 47.41L1102 41.41L1103.41 40Z" fill="white"/>
</g>
</g>
<g filter="url(#filter4_b_9_822)">
<rect x="1154" y="26" width="146" height="36" rx="16" fill="#303030" fill-opacity="0.5"/>
<path d="M1169.89 50.096C1169.18 50.096 1168.51 50 1167.87 49.808C1167.24 49.616 1166.75 49.3813 1166.38 49.104L1167.02 47.888C1167.39 48.1333 1167.83 48.3413 1168.37 48.512C1168.9 48.6827 1169.45 48.768 1170 48.768C1170.71 48.768 1171.23 48.6667 1171.54 48.464C1171.86 48.2613 1172.02 47.9787 1172.02 47.616C1172.02 47.3493 1171.92 47.1413 1171.73 46.992C1171.54 46.8427 1171.28 46.7307 1170.96 46.656C1170.65 46.5813 1170.3 46.5173 1169.92 46.464C1169.54 46.4 1169.15 46.3253 1168.77 46.24C1168.38 46.144 1168.03 46.016 1167.71 45.856C1167.39 45.6853 1167.14 45.456 1166.94 45.168C1166.75 44.8693 1166.66 44.4747 1166.66 43.984C1166.66 43.472 1166.8 43.024 1167.09 42.64C1167.38 42.256 1167.78 41.9627 1168.3 41.76C1168.84 41.5467 1169.47 41.44 1170.19 41.44C1170.75 41.44 1171.31 41.5093 1171.87 41.648C1172.45 41.776 1172.92 41.9627 1173.28 42.208L1172.62 43.424C1172.24 43.168 1171.84 42.992 1171.42 42.896C1171.01 42.8 1170.59 42.752 1170.18 42.752C1169.5 42.752 1169 42.864 1168.67 43.088C1168.34 43.3013 1168.18 43.5787 1168.18 43.92C1168.18 44.208 1168.27 44.432 1168.46 44.592C1168.67 44.7413 1168.92 44.8587 1169.23 44.944C1169.55 45.0293 1169.9 45.104 1170.29 45.168C1170.67 45.2213 1171.06 45.296 1171.44 45.392C1171.82 45.4773 1172.17 45.6 1172.48 45.76C1172.8 45.92 1173.06 46.144 1173.25 46.432C1173.45 46.72 1173.55 47.104 1173.55 47.584C1173.55 48.096 1173.4 48.5387 1173.1 48.912C1172.81 49.2853 1172.38 49.5787 1171.84 49.792C1171.3 49.9947 1170.65 50.096 1169.89 50.096ZM1180.74 50V48.208L1180.66 47.872V44.816C1180.66 44.1653 1180.46 43.664 1180.08 43.312C1179.71 42.9493 1179.14 42.768 1178.38 42.768C1177.88 42.768 1177.39 42.8533 1176.91 43.024C1176.43 43.184 1176.03 43.4027 1175.7 43.68L1175.06 42.528C1175.49 42.176 1176.02 41.9093 1176.62 41.728C1177.24 41.536 1177.89 41.44 1178.56 41.44C1179.72 41.44 1180.62 41.7227 1181.25 42.288C1181.88 42.8533 1182.19 43.7173 1182.19 44.88V50H1180.74ZM1177.95 50.096C1177.32 50.096 1176.77 49.9893 1176.29 49.776C1175.82 49.5627 1175.46 49.2693 1175.2 48.896C1174.94 48.512 1174.82 48.08 1174.82 47.6C1174.82 47.1413 1174.92 46.7253 1175.14 46.352C1175.36 45.9787 1175.72 45.68 1176.21 45.456C1176.71 45.232 1177.38 45.12 1178.22 45.12H1180.91V46.224H1178.29C1177.52 46.224 1177 46.352 1176.74 46.608C1176.47 46.864 1176.34 47.1733 1176.34 47.536C1176.34 47.952 1176.5 48.288 1176.83 48.544C1177.16 48.7893 1177.62 48.912 1178.21 48.912C1178.78 48.912 1179.28 48.784 1179.71 48.528C1180.15 48.272 1180.46 47.8987 1180.66 47.408L1180.96 48.464C1180.76 48.9653 1180.4 49.3653 1179.89 49.664C1179.38 49.952 1178.73 50.096 1177.95 50.096ZM1185.03 50V38.128H1186.57V50H1185.03ZM1193.28 50.096C1192.37 50.096 1191.57 49.9093 1190.88 49.536C1190.2 49.1627 1189.66 48.6507 1189.28 48C1188.91 47.3493 1188.72 46.6027 1188.72 45.76C1188.72 44.9173 1188.9 44.1707 1189.26 43.52C1189.64 42.8693 1190.14 42.3627 1190.78 42C1191.43 41.6267 1192.16 41.44 1192.97 41.44C1193.8 41.44 1194.52 41.6213 1195.15 41.984C1195.78 42.3467 1196.27 42.8587 1196.62 43.52C1196.99 44.1707 1197.17 44.9333 1197.17 45.808C1197.17 45.872 1197.16 45.9467 1197.15 46.032C1197.15 46.1173 1197.15 46.1973 1197.13 46.272H1189.92V45.168H1196.33L1195.71 45.552C1195.72 45.008 1195.61 44.5227 1195.37 44.096C1195.14 43.6693 1194.81 43.3387 1194.4 43.104C1193.99 42.8587 1193.52 42.736 1192.97 42.736C1192.44 42.736 1191.97 42.8587 1191.55 43.104C1191.13 43.3387 1190.81 43.6747 1190.57 44.112C1190.34 44.5387 1190.22 45.0293 1190.22 45.584V45.84C1190.22 46.4053 1190.35 46.912 1190.61 47.36C1190.87 47.7973 1191.24 48.1387 1191.71 48.384C1192.18 48.6293 1192.72 48.752 1193.33 48.752C1193.83 48.752 1194.28 48.6667 1194.69 48.496C1195.1 48.3253 1195.47 48.0693 1195.77 47.728L1196.62 48.72C1196.24 49.168 1195.76 49.5093 1195.18 49.744C1194.62 49.9787 1193.98 50.096 1193.28 50.096ZM1201.73 50.096C1201.03 50.096 1200.36 50 1199.72 49.808C1199.09 49.616 1198.59 49.3813 1198.23 49.104L1198.87 47.888C1199.23 48.1333 1199.68 48.3413 1200.21 48.512C1200.75 48.6827 1201.29 48.768 1201.84 48.768C1202.56 48.768 1203.07 48.6667 1203.38 48.464C1203.7 48.2613 1203.86 47.9787 1203.86 47.616C1203.86 47.3493 1203.76 47.1413 1203.57 46.992C1203.38 46.8427 1203.12 46.7307 1202.8 46.656C1202.49 46.5813 1202.15 46.5173 1201.76 46.464C1201.38 46.4 1201 46.3253 1200.61 46.24C1200.23 46.144 1199.88 46.016 1199.56 45.856C1199.24 45.6853 1198.98 45.456 1198.79 45.168C1198.6 44.8693 1198.5 44.4747 1198.5 43.984C1198.5 43.472 1198.64 43.024 1198.93 42.64C1199.22 42.256 1199.63 41.9627 1200.15 41.76C1200.68 41.5467 1201.31 41.44 1202.04 41.44C1202.59 41.44 1203.15 41.5093 1203.72 41.648C1204.29 41.776 1204.76 41.9627 1205.12 42.208L1204.47 43.424C1204.08 43.168 1203.68 42.992 1203.27 42.896C1202.85 42.8 1202.44 42.752 1202.02 42.752C1201.35 42.752 1200.85 42.864 1200.52 43.088C1200.19 43.3013 1200.02 43.5787 1200.02 43.92C1200.02 44.208 1200.12 44.432 1200.31 44.592C1200.51 44.7413 1200.77 44.8587 1201.08 44.944C1201.4 45.0293 1201.75 45.104 1202.13 45.168C1202.52 45.2213 1202.9 45.296 1203.28 45.392C1203.67 45.4773 1204.01 45.6 1204.32 45.76C1204.64 45.92 1204.9 46.144 1205.09 46.432C1205.29 46.72 1205.4 47.104 1205.4 47.584C1205.4 48.096 1205.25 48.5387 1204.95 48.912C1204.65 49.2853 1204.23 49.5787 1203.68 49.792C1203.14 49.9947 1202.49 50.096 1201.73 50.096ZM1214.12 53.232C1213.01 53.232 1211.99 53.0507 1211.08 52.688C1210.16 52.3253 1209.37 51.8187 1208.71 51.168C1208.05 50.5173 1207.53 49.7493 1207.17 48.864C1206.81 47.968 1206.63 46.992 1206.63 45.936C1206.63 44.88 1206.81 43.9093 1207.17 43.024C1207.53 42.1387 1208.05 41.3707 1208.71 40.72C1209.38 40.0693 1210.18 39.568 1211.11 39.216C1212.04 38.864 1213.06 38.688 1214.18 38.688C1215.28 38.688 1216.28 38.8587 1217.19 39.2C1218.09 39.5413 1218.88 40.0267 1219.54 40.656C1220.21 41.2747 1220.73 42.016 1221.09 42.88C1221.45 43.7333 1221.64 44.6773 1221.64 45.712C1221.64 46.6187 1221.52 47.3973 1221.3 48.048C1221.08 48.6987 1220.75 49.2053 1220.32 49.568C1219.91 49.92 1219.4 50.096 1218.79 50.096C1218.19 50.096 1217.71 49.9147 1217.35 49.552C1217 49.1893 1216.82 48.672 1216.82 48V46.912L1216.9 45.936L1216.76 44.096V41.968H1218.15V47.728C1218.15 48.1547 1218.23 48.4533 1218.4 48.624C1218.58 48.7947 1218.8 48.88 1219.06 48.88C1219.37 48.88 1219.64 48.7573 1219.86 48.512C1220.09 48.2667 1220.26 47.9093 1220.37 47.44C1220.49 46.96 1220.55 46.3893 1220.55 45.728C1220.55 44.832 1220.39 44.0213 1220.08 43.296C1219.78 42.56 1219.35 41.9253 1218.77 41.392C1218.21 40.8587 1217.53 40.4533 1216.76 40.176C1215.99 39.888 1215.13 39.744 1214.18 39.744C1213.23 39.744 1212.36 39.8987 1211.57 40.208C1210.79 40.5067 1210.12 40.9333 1209.56 41.488C1208.99 42.032 1208.55 42.6827 1208.24 43.44C1207.94 44.1973 1207.8 45.0293 1207.8 45.936C1207.8 46.8533 1207.94 47.696 1208.24 48.464C1208.54 49.2213 1208.97 49.872 1209.52 50.416C1210.09 50.9707 1210.76 51.3973 1211.52 51.696C1212.3 52.0053 1213.17 52.16 1214.12 52.16C1214.61 52.16 1215.12 52.1013 1215.67 51.984C1216.21 51.8773 1216.72 51.7013 1217.2 51.456L1217.56 52.48C1217.06 52.7253 1216.51 52.912 1215.89 53.04C1215.27 53.168 1214.68 53.232 1214.12 53.232ZM1213.83 50.096C1213.07 50.096 1212.4 49.92 1211.81 49.568C1211.22 49.2053 1210.76 48.7147 1210.42 48.096C1210.08 47.4773 1209.91 46.7733 1209.91 45.984C1209.91 45.184 1210.08 44.48 1210.42 43.872C1210.76 43.2533 1211.22 42.7733 1211.81 42.432C1212.4 42.08 1213.07 41.904 1213.83 41.904C1214.56 41.904 1215.21 42.064 1215.76 42.384C1216.32 42.6933 1216.75 43.152 1217.06 43.76C1217.38 44.368 1217.54 45.1093 1217.54 45.984C1217.54 46.8587 1217.38 47.6 1217.08 48.208C1216.77 48.816 1216.33 49.2853 1215.78 49.616C1215.22 49.936 1214.57 50.096 1213.83 50.096ZM1214.05 48.848C1214.57 48.848 1215.04 48.736 1215.44 48.512C1215.86 48.2773 1216.18 47.9467 1216.42 47.52C1216.66 47.0827 1216.79 46.5707 1216.79 45.984C1216.79 45.3867 1216.66 44.8747 1216.42 44.448C1216.18 44.0213 1215.86 43.696 1215.44 43.472C1215.04 43.248 1214.57 43.136 1214.05 43.136C1213.52 43.136 1213.04 43.2533 1212.63 43.488C1212.22 43.712 1211.9 44.0373 1211.67 44.464C1211.44 44.8907 1211.33 45.3973 1211.33 45.984C1211.33 46.56 1211.44 47.0613 1211.67 47.488C1211.9 47.9147 1212.22 48.2507 1212.63 48.496C1213.04 48.7307 1213.52 48.848 1214.05 48.848ZM1223.86 50V38.128H1225.4V50H1223.86ZM1228.33 50V41.52H1229.87V50H1228.33ZM1229.1 39.888C1228.8 39.888 1228.55 39.792 1228.35 39.6C1228.16 39.408 1228.06 39.1733 1228.06 38.896C1228.06 38.608 1228.16 38.368 1228.35 38.176C1228.55 37.984 1228.8 37.888 1229.1 37.888C1229.4 37.888 1229.64 37.984 1229.84 38.176C1230.04 38.3573 1230.14 38.5867 1230.14 38.864C1230.14 39.152 1230.04 39.3973 1229.85 39.6C1229.66 39.792 1229.41 39.888 1229.1 39.888ZM1237.3 50.096C1236.57 50.096 1235.91 49.936 1235.33 49.616C1234.75 49.2853 1234.29 48.8 1233.95 48.16C1233.62 47.52 1233.46 46.72 1233.46 45.76C1233.46 44.8 1233.63 44 1233.97 43.36C1234.32 42.72 1234.78 42.24 1235.36 41.92C1235.95 41.6 1236.59 41.44 1237.3 41.44C1238.13 41.44 1238.86 41.6213 1239.5 41.984C1240.14 42.3467 1240.65 42.8533 1241.02 43.504C1241.4 44.144 1241.58 44.896 1241.58 45.76C1241.58 46.624 1241.4 47.3813 1241.02 48.032C1240.65 48.6827 1240.14 49.1893 1239.5 49.552C1238.86 49.9147 1238.13 50.096 1237.3 50.096ZM1232.8 50V38.128H1234.34V43.776L1234.18 45.744L1234.27 47.712V50H1232.8ZM1237.17 48.752C1237.71 48.752 1238.2 48.6293 1238.62 48.384C1239.06 48.1387 1239.4 47.792 1239.65 47.344C1239.9 46.8853 1240.03 46.3573 1240.03 45.76C1240.03 45.152 1239.9 44.6293 1239.65 44.192C1239.4 43.744 1239.06 43.3973 1238.62 43.152C1238.2 42.9067 1237.71 42.784 1237.17 42.784C1236.63 42.784 1236.15 42.9067 1235.71 43.152C1235.29 43.3973 1234.94 43.744 1234.69 44.192C1234.44 44.6293 1234.32 45.152 1234.32 45.76C1234.32 46.3573 1234.44 46.8853 1234.69 47.344C1234.94 47.792 1235.29 48.1387 1235.71 48.384C1236.15 48.6293 1236.63 48.752 1237.17 48.752ZM1248.2 50.096C1247.48 50.096 1246.82 49.936 1246.23 49.616C1245.66 49.2853 1245.2 48.8 1244.86 48.16C1244.53 47.52 1244.36 46.72 1244.36 45.76C1244.36 44.8 1244.53 44 1244.87 43.36C1245.23 42.72 1245.69 42.24 1246.27 41.92C1246.85 41.6 1247.5 41.44 1248.2 41.44C1249.03 41.44 1249.77 41.6213 1250.41 41.984C1251.05 42.3467 1251.56 42.8533 1251.93 43.504C1252.3 44.144 1252.49 44.896 1252.49 45.76C1252.49 46.624 1252.3 47.3813 1251.93 48.032C1251.56 48.6827 1251.05 49.1893 1250.41 49.552C1249.77 49.9147 1249.03 50.096 1248.2 50.096ZM1243.71 50V38.128H1245.24V43.776L1245.08 45.744L1245.18 47.712V50H1243.71ZM1248.07 48.752C1248.62 48.752 1249.1 48.6293 1249.53 48.384C1249.97 48.1387 1250.31 47.792 1250.55 47.344C1250.81 46.8853 1250.94 46.3573 1250.94 45.76C1250.94 45.152 1250.81 44.6293 1250.55 44.192C1250.31 43.744 1249.97 43.3973 1249.53 43.152C1249.1 42.9067 1248.62 42.784 1248.07 42.784C1247.54 42.784 1247.06 42.9067 1246.62 43.152C1246.19 43.3973 1245.85 43.744 1245.59 44.192C1245.35 44.6293 1245.23 45.152 1245.23 45.76C1245.23 46.3573 1245.35 46.8853 1245.59 47.344C1245.85 47.792 1246.19 48.1387 1246.62 48.384C1247.06 48.6293 1247.54 48.752 1248.07 48.752ZM1258.24 50.096C1257.39 50.096 1256.63 49.9093 1255.97 49.536C1255.31 49.1627 1254.79 48.6507 1254.4 48C1254.02 47.3387 1253.83 46.592 1253.83 45.76C1253.83 44.9173 1254.02 44.1707 1254.4 43.52C1254.79 42.8693 1255.31 42.3627 1255.97 42C1256.63 41.6267 1257.39 41.44 1258.24 41.44C1259.09 41.44 1259.84 41.6267 1260.5 42C1261.17 42.3627 1261.69 42.8693 1262.07 43.52C1262.45 44.16 1262.64 44.9067 1262.64 45.76C1262.64 46.6027 1262.45 47.3493 1262.07 48C1261.69 48.6507 1261.17 49.1627 1260.5 49.536C1259.84 49.9093 1259.09 50.096 1258.24 50.096ZM1258.24 48.752C1258.79 48.752 1259.27 48.6293 1259.7 48.384C1260.14 48.1387 1260.48 47.792 1260.72 47.344C1260.97 46.8853 1261.09 46.3573 1261.09 45.76C1261.09 45.152 1260.97 44.6293 1260.72 44.192C1260.48 43.744 1260.14 43.3973 1259.7 43.152C1259.27 42.9067 1258.79 42.784 1258.24 42.784C1257.7 42.784 1257.21 42.9067 1256.79 43.152C1256.36 43.3973 1256.02 43.744 1255.76 44.192C1255.51 44.6293 1255.38 45.152 1255.38 45.76C1255.38 46.3573 1255.51 46.8853 1255.76 47.344C1256.02 47.792 1256.36 48.1387 1256.79 48.384C1257.21 48.6293 1257.7 48.752 1258.24 48.752ZM1267.68 50.096C1266.83 50.096 1266.17 49.8667 1265.7 49.408C1265.23 48.9493 1264.99 48.2933 1264.99 47.44V39.664H1266.53V47.376C1266.53 47.8347 1266.64 48.1867 1266.86 48.432C1267.1 48.6773 1267.43 48.8 1267.86 48.8C1268.34 48.8 1268.74 48.6667 1269.06 48.4L1269.54 49.504C1269.3 49.7067 1269.02 49.856 1268.69 49.952C1268.37 50.048 1268.03 50.096 1267.68 50.096ZM1263.55 42.784V41.52H1268.96V42.784H1263.55ZM1271.92 50.096C1271.62 50.096 1271.36 49.9947 1271.15 49.792C1270.94 49.5787 1270.83 49.312 1270.83 48.992C1270.83 48.672 1270.94 48.4107 1271.15 48.208C1271.36 48.0053 1271.62 47.904 1271.92 47.904C1272.21 47.904 1272.45 48.0053 1272.65 48.208C1272.87 48.4107 1272.97 48.672 1272.97 48.992C1272.97 49.312 1272.87 49.5787 1272.65 49.792C1272.45 49.9947 1272.21 50.096 1271.92 50.096ZM1280.6 50V48.208L1280.52 47.872V44.816C1280.52 44.1653 1280.32 43.664 1279.94 43.312C1279.57 42.9493 1279 42.768 1278.24 42.768C1277.74 42.768 1277.25 42.8533 1276.77 43.024C1276.29 43.184 1275.89 43.4027 1275.56 43.68L1274.92 42.528C1275.35 42.176 1275.88 41.9093 1276.48 41.728C1277.1 41.536 1277.75 41.44 1278.42 41.44C1279.58 41.44 1280.48 41.7227 1281.11 42.288C1281.74 42.8533 1282.05 43.7173 1282.05 44.88V50H1280.6ZM1277.81 50.096C1277.18 50.096 1276.63 49.9893 1276.15 49.776C1275.68 49.5627 1275.32 49.2693 1275.06 48.896C1274.8 48.512 1274.68 48.08 1274.68 47.6C1274.68 47.1413 1274.78 46.7253 1275 46.352C1275.22 45.9787 1275.58 45.68 1276.07 45.456C1276.57 45.232 1277.24 45.12 1278.08 45.12H1280.77V46.224H1278.15C1277.38 46.224 1276.86 46.352 1276.6 46.608C1276.33 46.864 1276.2 47.1733 1276.2 47.536C1276.2 47.952 1276.36 48.288 1276.69 48.544C1277.02 48.7893 1277.48 48.912 1278.07 48.912C1278.64 48.912 1279.14 48.784 1279.57 48.528C1280.01 48.272 1280.32 47.8987 1280.52 47.408L1280.82 48.464C1280.62 48.9653 1280.26 49.3653 1279.75 49.664C1279.24 49.952 1278.59 50.096 1277.81 50.096ZM1284.89 50V41.52H1286.43V50H1284.89ZM1285.66 39.888C1285.36 39.888 1285.11 39.792 1284.91 39.6C1284.72 39.408 1284.62 39.1733 1284.62 38.896C1284.62 38.608 1284.72 38.368 1284.91 38.176C1285.11 37.984 1285.36 37.888 1285.66 37.888C1285.96 37.888 1286.21 37.984 1286.4 38.176C1286.6 38.3573 1286.7 38.5867 1286.7 38.864C1286.7 39.152 1286.61 39.3973 1286.41 39.6C1286.22 39.792 1285.97 39.888 1285.66 39.888Z" fill="white"/>
</g>
<defs>
<filter id="filter0_d_9_822" x="132" y="16" width="62.4846" height="56" filterUnits="userSpaceOnUse" color-interpolation-filters="sRGB">
<feFlood flood-opacity="0" result="BackgroundImageFix"/>
<feColorMatrix in="SourceAlpha" type="matrix" values="0 0 0 0 0 0 0 0 0 0 0 0 0 0 0 0 0 0 127 0" result="hardAlpha"/>
<feOffset/>
<feGaussianBlur stdDeviation="4"/>
<feColorMatrix type="matrix" values="0 0 0 0 1 0 0 0 0 1 0 0 0 0 1 0 0 0 1 0"/>
<feBlend mode="normal" in2="BackgroundImageFix" result="effect1_dropShadow_9_822"/>
<feBlend mode="normal" in="SourceGraphic" in2="effect1_dropShadow_9_822" result="shape"/>
</filter>
<filter id="filter1_d_9_822" x="131.199" y="20.6058" width="46.5693" height="46.5693" filterUnits="userSpaceOnUse" color-interpolation-filters="sRGB">
<feFlood flood-opacity="0" result="BackgroundImageFix"/>
<feColorMatrix in="SourceAlpha" type="matrix" values="0 0 0 0 0 0 0 0 0 0 0 0 0 0 0 0 0 0 127 0" result="hardAlpha"/>
<feMorphology radius="4" operator="erode" in="SourceAlpha" result="effect1_dropShadow_9_822"/>
<feOffset/>
<feGaussianBlur stdDeviation="12"/>
<feComposite in2="hardAlpha" operator="out"/>
<feColorMatrix type="matrix" values="0 0 0 0 1 0 0 0 0 1 0 0 0 0 1 0 0 0 1 0"/>
<feBlend mode="normal" in2="BackgroundImageFix" result="effect1_dropShadow_9_822"/>
<feBlend mode="normal" in="SourceGraphic" in2="effect1_dropShadow_9_822" result="shape"/>
</filter>
<filter id="filter2_d_9_822" x="148.936" y="20.6058" width="46.5693" height="46.5693" filterUnits="userSpaceOnUse" color-interpolation-filters="sRGB">
<feFlood flood-opacity="0" result="BackgroundImageFix"/>
<feColorMatrix in="SourceAlpha" type="matrix" values="0 0 0 0 0 0 0 0 0 0 0 0 0 0 0 0 0 0 127 0" result="hardAlpha"/>
<feMorphology radius="4" operator="erode" in="SourceAlpha" result="effect1_dropShadow_9_822"/>
<feOffset/>
<feGaussianBlur stdDeviation="12"/>
<feComposite in2="hardAlpha" operator="out"/>
<feColorMatrix type="matrix" values="0 0 0 0 1 0 0 0 0 1 0 0 0 0 1 0 0 0 1 0"/>
<feBlend mode="normal" in2="BackgroundImageFix" result="effect1_dropShadow_9_822"/>
<feBlend mode="normal" in="SourceGraphic" in2="effect1_dropShadow_9_822" result="shape"/>
</filter>
<filter id="filter3_b_9_822" x="972" y="-54" width="238" height="196" filterUnits="userSpaceOnUse" color-interpolation-filters="sRGB">
<feFlood flood-opacity="0" result="BackgroundImageFix"/>
<feGaussianBlur in="BackgroundImageFix" stdDeviation="40"/>
<feComposite in2="SourceAlpha" operator="in" result="effect1_backgroundBlur_9_822"/>
<feBlend mode="normal" in="SourceGraphic" in2="effect1_backgroundBlur_9_822" result="shape"/>
</filter>
<filter id="filter4_b_9_822" x="1074" y="-54" width="306" height="196" filterUnits="userSpaceOnUse" color-interpolation-filters="sRGB">
<feFlood flood-opacity="0" result="BackgroundImageFix"/>
<feGaussianBlur in="BackgroundImageFix" stdDeviation="40"/>
<feComposite in2="SourceAlpha" operator="in" result="effect1_backgroundBlur_9_822"/>
<feBlend mode="normal" in="SourceGraphic" in2="effect1_backgroundBlur_9_822" result="shape"/>
</filter>
<clipPath id="clip0_9_822">
<rect width="20" height="20" fill="white" transform="translate(1098 34)"/>
</clipPath>
</defs>
</svg>
