<svg width="234" height="48" viewBox="0 0 234 48" fill="none" xmlns="http://www.w3.org/2000/svg">
<g filter="url(#filter0_d_23_1455)">
<path fill-rule="evenodd" clip-rule="evenodd" d="M35.7334 13.3752L28.5094 10.2808C27.5443 9.86737 26.4557 9.86737 25.4906 10.2808L18.2666 13.3752L12.3132 16.0208C10.9141 16.6425 10.0041 18.0391 9.98776 19.5894L9.94136 24L9.98776 28.4106C10.0041 29.9609 10.9141 31.3575 12.3132 31.9792L18.2666 34.6248L25.4906 37.7192C26.4557 38.1326 27.5443 38.1326 28.5094 37.7192L35.7334 34.6248L41.6868 31.9792C43.0859 31.3575 43.9959 29.9609 44.0122 28.4106L44.0586 24L44.0122 19.5894C43.9959 18.0391 43.0859 16.6425 41.6868 16.0208L35.7334 13.3752ZM36.5 11.5646L29.264 8.46506C27.8165 7.84498 26.1835 7.84498 24.736 8.46505L17.5 11.5646L11.5347 14.2154C9.43617 15.148 8.07108 17.2429 8.04661 19.5683L8 24L8.04661 28.4317C8.07108 30.7571 9.43617 32.852 11.5347 33.7846L17.5 36.4354L24.736 39.5349C26.1835 40.155 27.8165 40.155 29.264 39.5349L36.5 36.4354L42.4653 33.7846C44.5638 32.852 45.9289 30.7571 45.9534 28.4317L46 24L45.9534 19.5683C45.9289 17.2429 44.5638 15.148 42.4653 14.2154L36.5 11.5646Z" fill="white"/>
</g>
<g filter="url(#filter1_d_23_1455)">
<path d="M33.0222 23.1892C33.7684 23.5432 33.7684 24.6205 33.0222 24.9745L22.9392 29.7583C22.2956 30.0636 21.5576 29.5868 21.5576 28.8656V19.2981C21.5576 18.5769 22.2956 18.1001 22.9392 18.4054L33.0222 23.1892Z" fill="white"/>
</g>
<mask id="mask0_23_1455" style="mask-type:alpha" maskUnits="userSpaceOnUse" x="62" y="14" width="172" height="20">
<path fill-rule="evenodd" clip-rule="evenodd" d="M115.91 14C114.493 14 113.343 15.1494 113.343 16.5672V31.4328C113.343 32.8506 114.493 34 115.91 34C117.328 34 118.478 32.8506 118.478 31.4328V16.5672C118.478 15.1494 117.328 14 115.91 14ZM141.582 15.1765C140.164 15.1765 139.015 16.3258 139.015 17.7436V30.2564C139.015 31.6742 140.164 32.8235 141.582 32.8235C143 32.8235 144.149 31.6742 144.149 30.2564V17.7436C144.149 16.3258 143 15.1765 141.582 15.1765ZM151.851 20.0966C151.851 18.6788 153 17.5294 154.418 17.5294C155.836 17.5294 156.985 18.6788 156.985 20.0966V27.9034C156.985 29.3212 155.836 30.4706 154.418 30.4706C153 30.4706 151.851 29.3212 151.851 27.9034V20.0966ZM216.03 20.0966C216.03 18.6788 217.179 17.5294 218.597 17.5294C220.015 17.5294 221.164 18.6788 221.164 20.0966V27.9034C221.164 29.3212 220.015 30.4706 218.597 30.4706C217.179 30.4706 216.03 29.3212 216.03 27.9034V20.0966ZM203.194 17.7436C203.194 16.3258 204.343 15.1765 205.761 15.1765C207.179 15.1765 208.328 16.3258 208.328 17.7436V30.2564C208.328 31.6742 207.179 32.8235 205.761 32.8235C204.343 32.8235 203.194 31.6742 203.194 30.2564V17.7436ZM128.746 18.1176C127.328 18.1176 126.179 19.267 126.179 20.6848V27.3152C126.179 28.733 127.328 29.8824 128.746 29.8824C130.164 29.8824 131.313 28.733 131.313 27.3152V20.6848C131.313 19.267 130.164 18.1176 128.746 18.1176ZM190.358 20.6848C190.358 19.267 191.508 18.1176 192.925 18.1176C194.343 18.1176 195.493 19.267 195.493 20.6848V27.3152C195.493 28.733 194.343 29.8824 192.925 29.8824C191.508 29.8824 190.358 28.733 190.358 27.3152V20.6848ZM177.522 16.5672C177.522 15.1494 178.672 14 180.09 14C181.507 14 182.657 15.1494 182.657 16.5672V31.4328C182.657 32.8506 181.507 34 180.09 34C178.672 34 177.522 32.8506 177.522 31.4328V16.5672ZM103.075 18.7059C101.657 18.7059 100.507 19.8552 100.507 21.273V26.1387C100.507 27.5565 101.657 28.7059 103.075 28.7059C104.492 28.7059 105.642 27.5565 105.642 26.1387V21.273C105.642 19.8552 104.492 18.7059 103.075 18.7059ZM164.687 21.273C164.687 19.8552 165.836 18.7059 167.254 18.7059C168.672 18.7059 169.821 19.8552 169.821 21.273V23.626V24.374V26.1387C169.821 27.5565 168.672 28.7059 167.254 28.7059C165.836 28.7059 164.687 27.5565 164.687 26.1387V24.374V23.626V21.273ZM90.2388 15.1765C88.821 15.1765 87.6716 16.3258 87.6716 17.7436V30.2564C87.6716 31.6742 88.821 32.8235 90.2388 32.8235C91.6566 32.8235 92.806 31.6742 92.806 30.2564V17.7436C92.806 16.3258 91.6566 15.1765 90.2388 15.1765ZM74.8358 20.0966C74.8358 18.6788 75.9852 17.5294 77.403 17.5294C78.8208 17.5294 79.9701 18.6788 79.9701 20.0966V27.9034C79.9701 29.3212 78.8208 30.4706 77.403 30.4706C75.9852 30.4706 74.8358 29.3212 74.8358 27.9034V20.0966ZM64.5672 19.8824C63.1494 19.8824 62 21.0317 62 22.4495V25.5505C62 26.9683 63.1494 28.1176 64.5672 28.1176C65.985 28.1176 67.1343 26.9683 67.1343 25.5505V22.4495C67.1343 21.0317 65.985 19.8824 64.5672 19.8824ZM231.433 21.0588C230.015 21.0588 228.866 22.2082 228.866 23.626V24.374C228.866 25.7918 230.015 26.9412 231.433 26.9412C232.851 26.9412 234 25.7918 234 24.374V23.626C234 22.2082 232.851 21.0588 231.433 21.0588Z" fill="#D9D9D9"/>
<path fill-rule="evenodd" clip-rule="evenodd" d="M115.91 14C114.493 14 113.343 15.1494 113.343 16.5672V31.4328C113.343 32.8506 114.493 34 115.91 34C117.328 34 118.478 32.8506 118.478 31.4328V16.5672C118.478 15.1494 117.328 14 115.91 14ZM141.582 15.1765C140.164 15.1765 139.015 16.3258 139.015 17.7436V30.2564C139.015 31.6742 140.164 32.8235 141.582 32.8235C143 32.8235 144.149 31.6742 144.149 30.2564V17.7436C144.149 16.3258 143 15.1765 141.582 15.1765ZM151.851 20.0966C151.851 18.6788 153 17.5294 154.418 17.5294C155.836 17.5294 156.985 18.6788 156.985 20.0966V27.9034C156.985 29.3212 155.836 30.4706 154.418 30.4706C153 30.4706 151.851 29.3212 151.851 27.9034V20.0966ZM216.03 20.0966C216.03 18.6788 217.179 17.5294 218.597 17.5294C220.015 17.5294 221.164 18.6788 221.164 20.0966V27.9034C221.164 29.3212 220.015 30.4706 218.597 30.4706C217.179 30.4706 216.03 29.3212 216.03 27.9034V20.0966ZM203.194 17.7436C203.194 16.3258 204.343 15.1765 205.761 15.1765C207.179 15.1765 208.328 16.3258 208.328 17.7436V30.2564C208.328 31.6742 207.179 32.8235 205.761 32.8235C204.343 32.8235 203.194 31.6742 203.194 30.2564V17.7436ZM128.746 18.1176C127.328 18.1176 126.179 19.267 126.179 20.6848V27.3152C126.179 28.733 127.328 29.8824 128.746 29.8824C130.164 29.8824 131.313 28.733 131.313 27.3152V20.6848C131.313 19.267 130.164 18.1176 128.746 18.1176ZM190.358 20.6848C190.358 19.267 191.508 18.1176 192.925 18.1176C194.343 18.1176 195.493 19.267 195.493 20.6848V27.3152C195.493 28.733 194.343 29.8824 192.925 29.8824C191.508 29.8824 190.358 28.733 190.358 27.3152V20.6848ZM177.522 16.5672C177.522 15.1494 178.672 14 180.09 14C181.507 14 182.657 15.1494 182.657 16.5672V31.4328C182.657 32.8506 181.507 34 180.09 34C178.672 34 177.522 32.8506 177.522 31.4328V16.5672ZM103.075 18.7059C101.657 18.7059 100.507 19.8552 100.507 21.273V26.1387C100.507 27.5565 101.657 28.7059 103.075 28.7059C104.492 28.7059 105.642 27.5565 105.642 26.1387V21.273C105.642 19.8552 104.492 18.7059 103.075 18.7059ZM164.687 21.273C164.687 19.8552 165.836 18.7059 167.254 18.7059C168.672 18.7059 169.821 19.8552 169.821 21.273V23.626V24.374V26.1387C169.821 27.5565 168.672 28.7059 167.254 28.7059C165.836 28.7059 164.687 27.5565 164.687 26.1387V24.374V23.626V21.273ZM90.2388 15.1765C88.821 15.1765 87.6716 16.3258 87.6716 17.7436V30.2564C87.6716 31.6742 88.821 32.8235 90.2388 32.8235C91.6566 32.8235 92.806 31.6742 92.806 30.2564V17.7436C92.806 16.3258 91.6566 15.1765 90.2388 15.1765ZM74.8358 20.0966C74.8358 18.6788 75.9852 17.5294 77.403 17.5294C78.8208 17.5294 79.9701 18.6788 79.9701 20.0966V27.9034C79.9701 29.3212 78.8208 30.4706 77.403 30.4706C75.9852 30.4706 74.8358 29.3212 74.8358 27.9034V20.0966ZM64.5672 19.8824C63.1494 19.8824 62 21.0317 62 22.4495V25.5505C62 26.9683 63.1494 28.1176 64.5672 28.1176C65.985 28.1176 67.1343 26.9683 67.1343 25.5505V22.4495C67.1343 21.0317 65.985 19.8824 64.5672 19.8824ZM231.433 21.0588C230.015 21.0588 228.866 22.2082 228.866 23.626V24.374C228.866 25.7918 230.015 26.9412 231.433 26.9412C232.851 26.9412 234 25.7918 234 24.374V23.626C234 22.2082 232.851 21.0588 231.433 21.0588Z" fill="black" fill-opacity="0.2"/>
</mask>
<g mask="url(#mask0_23_1455)">
<rect x="49.806" y="-1.29419" width="194.463" height="48.8235" fill="#484848"/>
</g>
<defs>
<filter id="filter0_d_23_1455" x="0" y="0" width="54" height="48" filterUnits="userSpaceOnUse" color-interpolation-filters="sRGB">
<feFlood flood-opacity="0" result="BackgroundImageFix"/>
<feColorMatrix in="SourceAlpha" type="matrix" values="0 0 0 0 0 0 0 0 0 0 0 0 0 0 0 0 0 0 127 0" result="hardAlpha"/>
<feOffset/>
<feGaussianBlur stdDeviation="4"/>
<feColorMatrix type="matrix" values="0 0 0 0 1 0 0 0 0 1 0 0 0 0 1 0 0 0 1 0"/>
<feBlend mode="normal" in2="BackgroundImageFix" result="effect1_dropShadow_23_1455"/>
<feBlend mode="normal" in="SourceGraphic" in2="effect1_dropShadow_23_1455" result="shape"/>
</filter>
<filter id="filter1_d_23_1455" x="13.5576" y="10.3115" width="28.0243" height="27.5405" filterUnits="userSpaceOnUse" color-interpolation-filters="sRGB">
<feFlood flood-opacity="0" result="BackgroundImageFix"/>
<feColorMatrix in="SourceAlpha" type="matrix" values="0 0 0 0 0 0 0 0 0 0 0 0 0 0 0 0 0 0 127 0" result="hardAlpha"/>
<feOffset/>
<feGaussianBlur stdDeviation="4"/>
<feColorMatrix type="matrix" values="0 0 0 0 1 0 0 0 0 1 0 0 0 0 1 0 0 0 1 0"/>
<feBlend mode="normal" in2="BackgroundImageFix" result="effect1_dropShadow_23_1455"/>
<feBlend mode="normal" in="SourceGraphic" in2="effect1_dropShadow_23_1455" result="shape"/>
</filter>
</defs>
</svg>
