<svg width="446" height="330" viewBox="0 0 446 330" fill="none" xmlns="http://www.w3.org/2000/svg">
<mask id="path-1-inside-1_428_357" fill="white">
<path fill-rule="evenodd" clip-rule="evenodd" d="M403.571 251C408.305 251 412.143 254.838 412.143 259.571V321.286C412.143 326.02 408.305 329.857 403.571 329.857C398.838 329.857 395 326.02 395 321.286V259.571C395 254.838 398.838 251 403.571 251ZM266.5 257.428C271.195 257.428 275 261.234 275 265.928V314.928C275 319.622 271.195 323.428 266.5 323.428C261.806 323.428 258 319.622 258 314.928V265.928C258 261.234 261.806 257.428 266.5 257.428ZM241 280.928C241 276.234 237.195 272.428 232.5 272.428C227.806 272.428 224 276.234 224 280.928V299.928C224 304.622 227.806 308.428 232.5 308.428C237.195 308.428 241 304.622 241 299.928V280.928ZM206.428 283.571C206.428 278.837 202.591 274.999 197.857 274.999C193.123 274.999 189.285 278.837 189.285 283.571V297.285C189.285 302.019 193.123 305.856 197.857 305.856C202.591 305.856 206.428 302.019 206.428 297.285V283.571ZM309 274.928C309 270.234 305.195 266.428 300.5 266.428C295.806 266.428 292 270.234 292 274.928V305.928C292 310.622 295.806 314.428 300.5 314.428C305.195 314.428 309 310.622 309 305.928V274.928ZM335 261.428C339.971 261.428 344 265.457 344 270.428V310.428C344 315.399 339.971 319.428 335 319.428C330.03 319.428 326 315.399 326 310.428V270.428C326 265.457 330.03 261.428 335 261.428ZM378 276.928C378 272.234 374.195 268.428 369.5 268.428C364.806 268.428 361 272.234 361 276.928V303.928C361 308.622 364.806 312.428 369.5 312.428C374.195 312.428 378 308.622 378 303.928V276.928ZM446 286.928C446 282.234 442.195 278.428 437.5 278.428C432.806 278.428 429 282.234 429 286.928V293.928C429 298.622 432.806 302.428 437.5 302.428C442.195 302.428 446 298.622 446 293.928V286.928ZM163.571 256.144C168.305 256.144 172.143 259.982 172.143 264.716V316.144C172.143 320.878 168.305 324.716 163.571 324.716C158.838 324.716 155 320.878 155 316.144V264.716C155 259.982 158.838 256.144 163.571 256.144Z"/>
</mask>
<path fill-rule="evenodd" clip-rule="evenodd" d="M403.571 251C408.305 251 412.143 254.838 412.143 259.571V321.286C412.143 326.02 408.305 329.857 403.571 329.857C398.838 329.857 395 326.02 395 321.286V259.571C395 254.838 398.838 251 403.571 251ZM266.5 257.428C271.195 257.428 275 261.234 275 265.928V314.928C275 319.622 271.195 323.428 266.5 323.428C261.806 323.428 258 319.622 258 314.928V265.928C258 261.234 261.806 257.428 266.5 257.428ZM241 280.928C241 276.234 237.195 272.428 232.5 272.428C227.806 272.428 224 276.234 224 280.928V299.928C224 304.622 227.806 308.428 232.5 308.428C237.195 308.428 241 304.622 241 299.928V280.928ZM206.428 283.571C206.428 278.837 202.591 274.999 197.857 274.999C193.123 274.999 189.285 278.837 189.285 283.571V297.285C189.285 302.019 193.123 305.856 197.857 305.856C202.591 305.856 206.428 302.019 206.428 297.285V283.571ZM309 274.928C309 270.234 305.195 266.428 300.5 266.428C295.806 266.428 292 270.234 292 274.928V305.928C292 310.622 295.806 314.428 300.5 314.428C305.195 314.428 309 310.622 309 305.928V274.928ZM335 261.428C339.971 261.428 344 265.457 344 270.428V310.428C344 315.399 339.971 319.428 335 319.428C330.03 319.428 326 315.399 326 310.428V270.428C326 265.457 330.03 261.428 335 261.428ZM378 276.928C378 272.234 374.195 268.428 369.5 268.428C364.806 268.428 361 272.234 361 276.928V303.928C361 308.622 364.806 312.428 369.5 312.428C374.195 312.428 378 308.622 378 303.928V276.928ZM446 286.928C446 282.234 442.195 278.428 437.5 278.428C432.806 278.428 429 282.234 429 286.928V293.928C429 298.622 432.806 302.428 437.5 302.428C442.195 302.428 446 298.622 446 293.928V286.928ZM163.571 256.144C168.305 256.144 172.143 259.982 172.143 264.716V316.144C172.143 320.878 168.305 324.716 163.571 324.716C158.838 324.716 155 320.878 155 316.144V264.716C155 259.982 158.838 256.144 163.571 256.144Z" fill="url(#paint0_linear_428_357)" fill-opacity="0.12"/>
<path d="M411.143 259.571C411.143 255.39 407.753 252 403.571 252V250C408.858 250 413.143 254.285 413.143 259.571H411.143ZM411.143 321.286V259.571H413.143V321.286H411.143ZM403.571 328.857C407.753 328.857 411.143 325.467 411.143 321.286H413.143C413.143 326.572 408.858 330.857 403.571 330.857V328.857ZM396 321.286C396 325.467 399.39 328.857 403.571 328.857V330.857C398.285 330.857 394 326.572 394 321.286H396ZM396 259.571V321.286H394V259.571H396ZM403.571 252C399.39 252 396 255.39 396 259.571H394C394 254.285 398.285 250 403.571 250V252ZM274 265.928C274 261.786 270.642 258.428 266.5 258.428V256.428C271.747 256.428 276 260.681 276 265.928H274ZM274 314.928V265.928H276V314.928H274ZM266.5 322.428C270.642 322.428 274 319.07 274 314.928H276C276 320.175 271.747 324.428 266.5 324.428V322.428ZM259 314.928C259 319.07 262.358 322.428 266.5 322.428V324.428C261.253 324.428 257 320.175 257 314.928H259ZM259 265.928V314.928H257V265.928H259ZM266.5 258.428C262.358 258.428 259 261.786 259 265.928H257C257 260.681 261.253 256.428 266.5 256.428V258.428ZM232.5 271.428C237.747 271.428 242 275.681 242 280.928H240C240 276.786 236.642 273.428 232.5 273.428V271.428ZM223 280.928C223 275.681 227.253 271.428 232.5 271.428V273.428C228.358 273.428 225 276.786 225 280.928H223ZM223 299.928V280.928H225V299.928H223ZM232.5 309.428C227.253 309.428 223 305.175 223 299.928H225C225 304.07 228.358 307.428 232.5 307.428V309.428ZM242 299.928C242 305.175 237.747 309.428 232.5 309.428V307.428C236.642 307.428 240 304.07 240 299.928H242ZM242 280.928V299.928H240V280.928H242ZM197.857 273.999C203.143 273.999 207.428 278.285 207.428 283.571H205.428C205.428 279.389 202.038 275.999 197.857 275.999V273.999ZM188.285 283.571C188.285 278.285 192.571 273.999 197.857 273.999V275.999C193.675 275.999 190.285 279.389 190.285 283.571H188.285ZM188.285 297.285V283.571H190.285V297.285H188.285ZM197.857 306.856C192.571 306.856 188.285 302.571 188.285 297.285H190.285C190.285 301.467 193.675 304.856 197.857 304.856V306.856ZM207.428 297.285C207.428 302.571 203.143 306.856 197.857 306.856V304.856C202.038 304.856 205.428 301.467 205.428 297.285H207.428ZM207.428 283.571V297.285H205.428V283.571H207.428ZM300.5 265.428C305.747 265.428 310 269.681 310 274.928H308C308 270.786 304.642 267.428 300.5 267.428V265.428ZM291 274.928C291 269.681 295.253 265.428 300.5 265.428V267.428C296.358 267.428 293 270.786 293 274.928H291ZM291 305.928V274.928H293V305.928H291ZM300.5 315.428C295.253 315.428 291 311.175 291 305.928H293C293 310.07 296.358 313.428 300.5 313.428V315.428ZM310 305.928C310 311.175 305.747 315.428 300.5 315.428V313.428C304.642 313.428 308 310.07 308 305.928H310ZM310 274.928V305.928H308V274.928H310ZM343 270.428C343 266.01 339.418 262.428 335 262.428V260.428C340.523 260.428 345 264.905 345 270.428H343ZM343 310.428V270.428H345V310.428H343ZM335 318.428C339.418 318.428 343 314.846 343 310.428H345C345 315.951 340.523 320.428 335 320.428V318.428ZM327 310.428C327 314.846 330.582 318.428 335 318.428V320.428C329.477 320.428 325 315.951 325 310.428H327ZM327 270.428V310.428H325V270.428H327ZM335 262.428C330.582 262.428 327 266.01 327 270.428H325C325 264.905 329.477 260.428 335 260.428V262.428ZM369.5 267.428C374.747 267.428 379 271.681 379 276.928H377C377 272.786 373.642 269.428 369.5 269.428V267.428ZM360 276.928C360 271.681 364.253 267.428 369.5 267.428V269.428C365.358 269.428 362 272.786 362 276.928H360ZM360 303.928V276.928H362V303.928H360ZM369.5 313.428C364.253 313.428 360 309.175 360 303.928H362C362 308.07 365.358 311.428 369.5 311.428V313.428ZM379 303.928C379 309.175 374.747 313.428 369.5 313.428V311.428C373.642 311.428 377 308.07 377 303.928H379ZM379 276.928V303.928H377V276.928H379ZM437.5 277.428C442.747 277.428 447 281.681 447 286.928H445C445 282.786 441.642 279.428 437.5 279.428V277.428ZM428 286.928C428 281.681 432.253 277.428 437.5 277.428V279.428C433.358 279.428 430 282.786 430 286.928H428ZM428 293.928V286.928H430V293.928H428ZM437.5 303.428C432.253 303.428 428 299.175 428 293.928H430C430 298.07 433.358 301.428 437.5 301.428V303.428ZM447 293.928C447 299.175 442.747 303.428 437.5 303.428V301.428C441.642 301.428 445 298.07 445 293.928H447ZM447 286.928V293.928H445V286.928H447ZM171.143 264.716C171.143 260.534 167.753 257.144 163.571 257.144V255.144C168.858 255.144 173.143 259.429 173.143 264.716H171.143ZM171.143 316.144V264.716H173.143V316.144H171.143ZM163.571 323.716C167.753 323.716 171.143 320.326 171.143 316.144H173.143C173.143 321.43 168.858 325.716 163.571 325.716V323.716ZM156 316.144C156 320.326 159.39 323.716 163.571 323.716V325.716C158.285 325.716 154 321.43 154 316.144H156ZM156 264.716V316.144H154V264.716H156ZM163.571 257.144C159.39 257.144 156 260.534 156 264.716H154C154 259.429 158.285 255.144 163.571 255.144V257.144Z" fill="black" mask="url(#path-1-inside-1_428_357)"/>
<mask id="path-3-inside-2_428_357" fill="white">
<path fill-rule="evenodd" clip-rule="evenodd" d="M137.143 8.57144C137.143 3.83756 140.981 0 145.714 0C150.448 0 154.286 3.83756 154.286 8.57144V231.429C154.286 236.162 150.448 240 145.714 240C140.981 240 137.143 236.162 137.143 231.429V8.57144ZM180 51.4284C175.266 51.4284 171.428 55.266 171.428 59.9998V180C171.428 184.734 175.266 188.571 180 188.571C184.734 188.571 188.571 184.734 188.571 180V59.9998C188.571 55.266 184.734 51.4284 180 51.4284ZM205.714 89.1433C205.714 84.4095 209.552 80.5719 214.286 80.5719C219.02 80.5719 222.857 84.4095 222.857 89.1433V150.858C222.857 155.591 219.02 159.429 214.286 159.429C209.552 159.429 205.714 155.591 205.714 150.858V89.1433ZM240 113.143C240 108.409 243.838 104.571 248.572 104.571C253.306 104.571 257.143 108.409 257.143 113.143V126.857C257.143 131.591 253.306 135.428 248.572 135.428C243.838 135.428 240 131.591 240 126.857V113.143ZM111.428 60.0019C106.694 60.0019 102.857 63.8395 102.857 68.5733V171.43C102.857 176.164 106.694 180.002 111.428 180.002C116.162 180.002 120 176.164 120 171.43V68.5733C120 63.8394 116.162 60.0019 111.428 60.0019ZM68.5717 49.7148C68.5717 44.981 72.4093 41.1434 77.1431 41.1434C81.877 41.1434 85.7146 44.981 85.7146 49.7148V190.286C85.7146 195.02 81.877 198.858 77.1431 198.858C72.4093 198.858 68.5717 195.02 68.5717 190.286V49.7148ZM42.8571 80.5719C38.1232 80.5719 34.2857 84.4095 34.2857 89.1433V150.858C34.2857 155.591 38.1232 159.429 42.8571 159.429C47.591 159.429 51.4285 155.591 51.4285 150.858V89.1433C51.4285 84.4095 47.591 80.5719 42.8571 80.5719ZM0 77.1437C0 72.4098 3.83756 68.5723 8.57143 68.5723C13.3053 68.5723 17.1429 72.4098 17.1429 77.1437V162.858C17.1429 167.592 13.3053 171.429 8.57143 171.429C3.83756 171.429 0 167.592 0 162.858V77.1437ZM282.857 85.7161C278.123 85.7161 274.286 89.5536 274.286 94.2875V145.716C274.286 150.45 278.123 154.288 282.857 154.288C287.591 154.288 291.429 150.45 291.429 145.716V94.2875C291.429 89.5536 287.591 85.7161 282.857 85.7161Z"/>
</mask>
<path fill-rule="evenodd" clip-rule="evenodd" d="M137.143 8.57144C137.143 3.83756 140.981 0 145.714 0C150.448 0 154.286 3.83756 154.286 8.57144V231.429C154.286 236.162 150.448 240 145.714 240C140.981 240 137.143 236.162 137.143 231.429V8.57144ZM180 51.4284C175.266 51.4284 171.428 55.266 171.428 59.9998V180C171.428 184.734 175.266 188.571 180 188.571C184.734 188.571 188.571 184.734 188.571 180V59.9998C188.571 55.266 184.734 51.4284 180 51.4284ZM205.714 89.1433C205.714 84.4095 209.552 80.5719 214.286 80.5719C219.02 80.5719 222.857 84.4095 222.857 89.1433V150.858C222.857 155.591 219.02 159.429 214.286 159.429C209.552 159.429 205.714 155.591 205.714 150.858V89.1433ZM240 113.143C240 108.409 243.838 104.571 248.572 104.571C253.306 104.571 257.143 108.409 257.143 113.143V126.857C257.143 131.591 253.306 135.428 248.572 135.428C243.838 135.428 240 131.591 240 126.857V113.143ZM111.428 60.0019C106.694 60.0019 102.857 63.8395 102.857 68.5733V171.43C102.857 176.164 106.694 180.002 111.428 180.002C116.162 180.002 120 176.164 120 171.43V68.5733C120 63.8394 116.162 60.0019 111.428 60.0019ZM68.5717 49.7148C68.5717 44.981 72.4093 41.1434 77.1431 41.1434C81.877 41.1434 85.7146 44.981 85.7146 49.7148V190.286C85.7146 195.02 81.877 198.858 77.1431 198.858C72.4093 198.858 68.5717 195.02 68.5717 190.286V49.7148ZM42.8571 80.5719C38.1232 80.5719 34.2857 84.4095 34.2857 89.1433V150.858C34.2857 155.591 38.1232 159.429 42.8571 159.429C47.591 159.429 51.4285 155.591 51.4285 150.858V89.1433C51.4285 84.4095 47.591 80.5719 42.8571 80.5719ZM0 77.1437C0 72.4098 3.83756 68.5723 8.57143 68.5723C13.3053 68.5723 17.1429 72.4098 17.1429 77.1437V162.858C17.1429 167.592 13.3053 171.429 8.57143 171.429C3.83756 171.429 0 167.592 0 162.858V77.1437ZM282.857 85.7161C278.123 85.7161 274.286 89.5536 274.286 94.2875V145.716C274.286 150.45 278.123 154.288 282.857 154.288C287.591 154.288 291.429 150.45 291.429 145.716V94.2875C291.429 89.5536 287.591 85.7161 282.857 85.7161Z" fill="url(#paint1_linear_428_357)" fill-opacity="0.24"/>
<path d="M145.714 -1C140.428 -1 136.143 3.28528 136.143 8.57144H138.143C138.143 4.38985 141.533 1 145.714 1V-1ZM155.286 8.57144C155.286 3.28528 151.001 -1 145.714 -1V1C149.896 1 153.286 4.38985 153.286 8.57144H155.286ZM155.286 231.429V8.57144H153.286V231.429H155.286ZM145.714 241C151.001 241 155.286 236.715 155.286 231.429H153.286C153.286 235.61 149.896 239 145.714 239V241ZM136.143 231.429C136.143 236.715 140.428 241 145.714 241V239C141.533 239 138.143 235.61 138.143 231.429H136.143ZM136.143 8.57144V231.429H138.143V8.57144H136.143ZM172.428 59.9998C172.428 55.8182 175.818 52.4284 180 52.4284V50.4284C174.714 50.4284 170.428 54.7137 170.428 59.9998H172.428ZM172.428 180V59.9998H170.428V180H172.428ZM180 187.571C175.818 187.571 172.428 184.182 172.428 180H170.428C170.428 185.286 174.714 189.571 180 189.571V187.571ZM187.571 180C187.571 184.182 184.181 187.571 180 187.571V189.571C185.286 189.571 189.571 185.286 189.571 180H187.571ZM187.571 59.9998V180H189.571V59.9998H187.571ZM180 52.4284C184.181 52.4284 187.571 55.8183 187.571 59.9998H189.571C189.571 54.7137 185.286 50.4284 180 50.4284V52.4284ZM214.286 79.5719C209 79.5719 204.714 83.8572 204.714 89.1433H206.714C206.714 84.9618 210.104 81.5719 214.286 81.5719V79.5719ZM223.857 89.1433C223.857 83.8572 219.572 79.5719 214.286 79.5719V81.5719C218.467 81.5719 221.857 84.9618 221.857 89.1433H223.857ZM223.857 150.858V89.1433H221.857V150.858H223.857ZM214.286 160.429C219.572 160.429 223.857 156.144 223.857 150.858H221.857C221.857 155.039 218.467 158.429 214.286 158.429V160.429ZM204.714 150.858C204.714 156.144 209 160.429 214.286 160.429V158.429C210.104 158.429 206.714 155.039 206.714 150.858H204.714ZM204.714 89.1433V150.858H206.714V89.1433H204.714ZM248.572 103.571C243.286 103.571 239 107.857 239 113.143H241C241 108.961 244.39 105.571 248.572 105.571V103.571ZM258.143 113.143C258.143 107.857 253.858 103.571 248.572 103.571V105.571C252.753 105.571 256.143 108.961 256.143 113.143H258.143ZM258.143 126.857V113.143H256.143V126.857H258.143ZM248.572 136.428C253.858 136.428 258.143 132.143 258.143 126.857H256.143C256.143 131.039 252.753 134.428 248.572 134.428V136.428ZM239 126.857C239 132.143 243.286 136.428 248.572 136.428V134.428C244.39 134.428 241 131.039 241 126.857H239ZM239 113.143V126.857H241V113.143H239ZM103.857 68.5733C103.857 64.3917 107.247 61.0019 111.428 61.0019V59.0019C106.142 59.0019 101.857 63.2872 101.857 68.5733H103.857ZM103.857 171.43V68.5733H101.857V171.43H103.857ZM111.428 179.002C107.247 179.002 103.857 175.612 103.857 171.43H101.857C101.857 176.717 106.142 181.002 111.428 181.002V179.002ZM119 171.43C119 175.612 115.61 179.002 111.428 179.002V181.002C116.715 181.002 121 176.717 121 171.43H119ZM119 68.5733V171.43H121V68.5733H119ZM111.428 61.0019C115.61 61.0019 119 64.3917 119 68.5733H121C121 63.2872 116.715 59.0019 111.428 59.0019V61.0019ZM77.1431 40.1434C71.857 40.1434 67.5717 44.4287 67.5717 49.7148H69.5717C69.5717 45.5332 72.9615 42.1434 77.1431 42.1434V40.1434ZM86.7146 49.7148C86.7146 44.4287 82.4293 40.1434 77.1431 40.1434V42.1434C81.3247 42.1434 84.7146 45.5332 84.7146 49.7148H86.7146ZM86.7146 190.286V49.7148H84.7146V190.286H86.7146ZM77.1431 199.858C82.4293 199.858 86.7146 195.572 86.7146 190.286H84.7146C84.7146 194.468 81.3247 197.858 77.1431 197.858V199.858ZM67.5717 190.286C67.5717 195.572 71.857 199.858 77.1431 199.858V197.858C72.9615 197.858 69.5717 194.468 69.5717 190.286H67.5717ZM67.5717 49.7148V190.286H69.5717V49.7148H67.5717ZM35.2857 89.1433C35.2857 84.9618 38.6755 81.5719 42.8571 81.5719V79.5719C37.571 79.5719 33.2857 83.8572 33.2857 89.1433H35.2857ZM35.2857 150.858V89.1433H33.2857V150.858H35.2857ZM42.8571 158.429C38.6755 158.429 35.2857 155.039 35.2857 150.858H33.2857C33.2857 156.144 37.571 160.429 42.8571 160.429V158.429ZM50.4285 150.858C50.4285 155.039 47.0387 158.429 42.8571 158.429V160.429C48.1433 160.429 52.4285 156.144 52.4285 150.858H50.4285ZM50.4285 89.1433V150.858H52.4285V89.1433H50.4285ZM42.8571 81.5719C47.0387 81.5719 50.4285 84.9618 50.4285 89.1433H52.4285C52.4285 83.8572 48.1433 79.5719 42.8571 79.5719V81.5719ZM8.57143 67.5723C3.28528 67.5723 -1 71.8575 -1 77.1437H1C1 72.9621 4.38985 69.5723 8.57143 69.5723V67.5723ZM18.1429 77.1437C18.1429 71.8575 13.8576 67.5723 8.57143 67.5723V69.5723C12.753 69.5723 16.1429 72.9621 16.1429 77.1437H18.1429ZM18.1429 162.858V77.1437H16.1429V162.858H18.1429ZM8.57143 172.429C13.8576 172.429 18.1429 168.144 18.1429 162.858H16.1429C16.1429 167.04 12.753 170.429 8.57143 170.429V172.429ZM-1 162.858C-1 168.144 3.28528 172.429 8.57143 172.429V170.429C4.38984 170.429 1 167.04 1 162.858H-1ZM-1 77.1437V162.858H1V77.1437H-1ZM275.286 94.2875C275.286 90.1059 278.675 86.7161 282.857 86.7161V84.7161C277.571 84.7161 273.286 89.0014 273.286 94.2875H275.286ZM275.286 145.716V94.2875H273.286V145.716H275.286ZM282.857 153.288C278.675 153.288 275.286 149.898 275.286 145.716H273.286C273.286 151.002 277.571 155.288 282.857 155.288V153.288ZM290.429 145.716C290.429 149.898 287.039 153.288 282.857 153.288V155.288C288.143 155.288 292.429 151.002 292.429 145.716H290.429ZM290.429 94.2875V145.716H292.429V94.2875H290.429ZM282.857 86.7161C287.039 86.7161 290.429 90.1059 290.429 94.2875H292.429C292.429 89.0014 288.143 84.7161 282.857 84.7161V86.7161Z" fill="black" mask="url(#path-3-inside-2_428_357)"/>
<defs>
<linearGradient id="paint0_linear_428_357" x1="446.429" y1="290.428" x2="155" y2="290.428" gradientUnits="userSpaceOnUse">
<stop stop-color="#64E7FC"/>
<stop offset="1" stop-color="#63C6D4"/>
</linearGradient>
<linearGradient id="paint1_linear_428_357" x1="2.17131e-06" y1="120" x2="291.428" y2="120" gradientUnits="userSpaceOnUse">
<stop stop-color="#64E7FC"/>
<stop offset="1" stop-color="#63C6D4"/>
</linearGradient>
</defs>
</svg>
