<svg width="40" height="40" viewBox="0 0 40 40" fill="none" xmlns="http://www.w3.org/2000/svg">
<rect width="40" height="40" rx="16" fill="#303030" fill-opacity="0.5"/>
<path d="M20 10V17M20 17L22 15M20 17L18 15M9.98 21H14.39C14.77 21 15.11 21.21 15.28 21.55L16.45 23.89C16.6156 24.2232 16.8708 24.5036 17.187 24.6997C17.5033 24.8958 17.8679 24.9998 18.24 25H21.77C22.1421 24.9998 22.5067 24.8958 22.823 24.6997C23.1392 24.5036 23.3944 24.2232 23.56 23.89L24.73 21.55C24.8131 21.3851 24.9402 21.2464 25.0973 21.1493C25.2544 21.0522 25.4353 21.0006 25.62 21H29.98" stroke="#37E4FF" stroke-width="1.5" stroke-linecap="round" stroke-linejoin="round"/>
<path d="M15 12.13C11.46 12.65 10 14.73 10 19V23C10 28 12 30 17 30H23C28 30 30 28 30 23V19C30 14.73 28.54 12.65 25 12.13" stroke="#37E4FF" stroke-width="1.5" stroke-linecap="round" stroke-linejoin="round"/>
</svg>
