<svg width="40" height="40" viewBox="0 0 40 40" fill="none" xmlns="http://www.w3.org/2000/svg">
<rect width="40" height="40" rx="16" fill="#303030" fill-opacity="0.5"/>
<path d="M17.62 24L19.12 25.5L22.37 22.5" stroke="#37E4FF" stroke-width="1.5" stroke-linecap="round" stroke-linejoin="round"/>
<path d="M16.81 10L13.19 13.63M23.19 10L26.81 13.63" stroke="#37E4FF" stroke-width="1.5" stroke-miterlimit="10" stroke-linecap="round" stroke-linejoin="round"/>
<path d="M10 15.85C10 14 10.99 13.85 12.22 13.85H27.78C29.01 13.85 30 14 30 15.85C30 18 29.01 17.85 27.78 17.85H12.22C10.99 17.85 10 18 10 15.85Z" stroke="#37E4FF" stroke-width="1.5"/>
<path d="M11.5 18L12.91 26.64C13.23 28.58 14 30 16.86 30H22.89C26 30 26.46 28.64 26.82 26.76L28.5 18" stroke="#37E4FF" stroke-width="1.5" stroke-linecap="round"/>
</svg>
