<svg width="40" height="40" viewBox="0 0 40 40" fill="none" xmlns="http://www.w3.org/2000/svg">
<rect width="40" height="40" rx="16" fill="#303030" fill-opacity="0.5"/>
<path d="M26.04 21.55C25.62 21.96 25.38 22.55 25.44 23.18C25.53 24.26 26.52 25.05 27.6 25.05H29.5V26.24C29.5 28.31 27.81 30 25.74 30H15.64C16.47 29.27 17 28.2 17 27C16.9999 26.2464 16.7869 25.5083 16.3856 24.8705C15.9842 24.2327 15.4108 23.7213 14.7315 23.3952C14.0521 23.0691 13.2945 22.9416 12.5458 23.0274C11.7972 23.1132 11.088 23.4087 10.5 23.88V19.51C10.5 17.44 12.19 15.75 14.26 15.75H25.74C27.81 15.75 29.5 17.44 29.5 19.51V20.95H27.48C26.92 20.95 26.41 21.17 26.04 21.55Z" stroke="#37E4FF" stroke-width="1.5" stroke-linecap="round" stroke-linejoin="round"/>
<path d="M10.5 19.51V15.84C10.5 14.65 11.23 13.59 12.34 13.17L20.28 10.17C21.52 9.70997 22.85 10.62 22.85 11.95V15.75M15 20H22M30.559 21.97V24.03C30.559 24.58 30.119 25.03 29.559 25.05H27.599C26.519 25.05 25.529 24.26 25.439 23.18C25.379 22.55 25.619 21.96 26.039 21.55C26.409 21.17 26.919 20.95 27.479 20.95H29.559C30.119 20.97 30.559 21.42 30.559 21.97Z" stroke="#37E4FF" stroke-width="1.5" stroke-linecap="round" stroke-linejoin="round"/>
<path d="M17 27.0001C17 28.2001 16.47 29.2701 15.64 30.0001C14.9108 30.6432 13.9723 30.9987 13 31.0001C10.79 31.0001 9 29.2101 9 27.0001C9 25.7401 9.58 24.6101 10.5 23.8801C11.088 23.4088 11.7972 23.1132 12.5458 23.0275C13.2945 22.9417 14.0521 23.0692 14.7315 23.3953C15.4108 23.7214 15.9842 24.2328 16.3856 24.8705C16.7869 25.5083 16.9999 26.2465 17 27.0001Z" stroke="#37E4FF" stroke-width="1.5" stroke-miterlimit="10" stroke-linecap="round" stroke-linejoin="round"/>
<path d="M13.25 25.75V27.25L12 28" stroke="#37E4FF" stroke-width="1.5" stroke-miterlimit="10" stroke-linecap="round" stroke-linejoin="round"/>
</svg>
