<svg width="40" height="40" viewBox="0 0 40 40" fill="none" xmlns="http://www.w3.org/2000/svg">
<rect width="40" height="40" rx="16" fill="#303030" fill-opacity="0.5"/>
<path d="M30 23C30 26.87 26.87 30 23 30L24.05 28.25M10 17C10 13.13 13.13 10 17 10L15.95 11.75M30 13.15V16.85C30 19.1 29.1 20 26.85 20H24.15C21.9 20 21 19.1 21 16.85V13.15C21 10.9 21.9 10 24.15 10H26.85C29.1 10 30 10.9 30 13.15ZM19 23.15V26.85C19 29.1 18.1 30 15.85 30H13.15C10.9 30 10 29.1 10 26.85V23.15C10 20.9 10.9 20 13.15 20H15.85C18.1 20 19 20.9 19 23.15Z" stroke="#37E4FF" stroke-width="1.5" stroke-linecap="round" stroke-linejoin="round"/>
</svg>
