<svg width="116" height="96" viewBox="0 0 116 96" fill="none" xmlns="http://www.w3.org/2000/svg">
<g filter="url(#filter0_b_21_492)">
<path d="M51.837 9.91203C55.732 8.2803 60.1544 8.2803 64.0493 9.91203L81.8073 17.3515L96.5267 23.7486C101.97 26.1142 105.493 31.3131 105.555 37.0706L105.672 47.9025L105.555 58.7344C105.493 64.4919 101.97 69.6908 96.5267 72.0564L81.8073 78.4535L64.0493 85.893C60.1544 87.5247 55.732 87.5247 51.837 85.893L34.079 78.4535L19.3597 72.0564C13.9165 69.6908 10.3933 64.4919 10.3313 58.7344L10.2148 47.9025L10.3313 37.0706C10.3933 31.3131 13.9165 26.1142 19.3597 23.7486L34.079 17.3515L51.837 9.91203Z" fill="#303030" fill-opacity="0.12"/>
</g>
<g filter="url(#filter1_d_21_492)">
<path fill-rule="evenodd" clip-rule="evenodd" d="M80.9826 21.438L61.972 13.7019C59.4324 12.6684 56.5676 12.6684 54.028 13.7019L35.0173 21.438L19.3504 28.0519C15.6688 29.6062 13.2738 33.0977 13.2309 36.9734L13.1088 48L13.2309 59.0266C13.2738 62.9023 15.6688 66.3938 19.3504 67.9481L35.0174 74.562L54.028 82.2981C56.5676 83.3316 59.4324 83.3316 61.972 82.2981L80.9825 74.562L96.6496 67.9481C100.331 66.3938 102.726 62.9023 102.769 59.0266L102.891 48L102.769 36.9734C102.726 33.0977 100.331 29.6062 96.6496 28.0519L80.9826 21.438ZM83 16.9115L63.958 9.16264C60.1486 7.61246 55.8514 7.61245 52.042 9.16264L33 16.9115L17.3019 23.5386C11.7794 25.87 8.18704 31.1072 8.12267 36.9208L8 48L8.12267 59.0792C8.18704 64.8928 11.7794 70.13 17.3019 72.4614L33 79.0885L52.042 86.8374C55.8514 88.3875 60.1486 88.3875 63.958 86.8374L83 79.0885L98.6981 72.4614C104.221 70.13 107.813 64.8928 107.877 59.0792L108 48L107.877 36.9208C107.813 31.1072 104.221 25.87 98.6981 23.5386L83 16.9115Z" fill="white"/>
</g>
<path d="M39.3973 43.9509V35.1509C39.3973 34.1803 39.6853 33.4069 40.2613 32.8309C40.8373 32.2443 41.6586 31.9509 42.7253 31.9509C43.0879 31.9509 43.4346 31.9883 43.7653 32.0629C44.1066 32.1376 44.3946 32.2549 44.6293 32.4149L43.9733 34.2229C43.8346 34.1269 43.6799 34.0523 43.5093 33.9989C43.3386 33.9456 43.1573 33.9189 42.9653 33.9189C42.6026 33.9189 42.3199 34.0256 42.1173 34.2389C41.9253 34.4416 41.8293 34.7509 41.8293 35.1669V35.9669L41.8933 37.0389V43.9509H39.3973ZM38.0693 37.4549V35.5349H44.0373V37.4549H38.0693ZM45.3433 43.9509V35.3429H47.7273V37.7749L47.3913 37.0709C47.6473 36.4629 48.0579 36.0043 48.6233 35.6949C49.1886 35.3749 49.8766 35.2149 50.6873 35.2149V37.5189C50.5806 37.5083 50.4846 37.5029 50.3993 37.5029C50.3139 37.4923 50.2233 37.4869 50.1273 37.4869C49.4446 37.4869 48.8899 37.6843 48.4633 38.0789C48.0473 38.4629 47.8393 39.0656 47.8393 39.8869V43.9509H45.3433ZM56.2049 44.0789C55.2876 44.0789 54.4716 43.8869 53.7569 43.5029C53.0529 43.1189 52.4929 42.5963 52.0769 41.9349C51.6716 41.2629 51.4689 40.5003 51.4689 39.6469C51.4689 38.7829 51.6716 38.0203 52.0769 37.3589C52.4929 36.6869 53.0529 36.1643 53.7569 35.7909C54.4716 35.4069 55.2876 35.2149 56.2049 35.2149C57.1116 35.2149 57.9222 35.4069 58.6369 35.7909C59.3516 36.1643 59.9116 36.6816 60.3169 37.3429C60.7222 38.0043 60.9249 38.7723 60.9249 39.6469C60.9249 40.5003 60.7222 41.2629 60.3169 41.9349C59.9116 42.5963 59.3516 43.1189 58.6369 43.5029C57.9222 43.8869 57.1116 44.0789 56.2049 44.0789ZM56.2049 42.0309C56.6209 42.0309 56.9942 41.9349 57.3249 41.7429C57.6556 41.5509 57.9169 41.2789 58.1089 40.9269C58.3009 40.5643 58.3969 40.1376 58.3969 39.6469C58.3969 39.1456 58.3009 38.7189 58.1089 38.3669C57.9169 38.0149 57.6556 37.7429 57.3249 37.5509C56.9942 37.3589 56.6209 37.2629 56.2049 37.2629C55.7889 37.2629 55.4156 37.3589 55.0849 37.5509C54.7542 37.7429 54.4876 38.0149 54.2849 38.3669C54.0929 38.7189 53.9969 39.1456 53.9969 39.6469C53.9969 40.1376 54.0929 40.5643 54.2849 40.9269C54.4876 41.2789 54.7542 41.5509 55.0849 41.7429C55.4156 41.9349 55.7889 42.0309 56.2049 42.0309ZM73.6173 35.2149C74.2999 35.2149 74.9026 35.3536 75.4253 35.6309C75.9586 35.8976 76.3746 36.3136 76.6733 36.8789C76.9826 37.4336 77.1373 38.1483 77.1373 39.0229V43.9509H74.6413V39.4069C74.6413 38.7136 74.4973 38.2016 74.2093 37.8709C73.9213 37.5403 73.5159 37.3749 72.9933 37.3749C72.6306 37.3749 72.3053 37.4603 72.0173 37.6309C71.7293 37.7909 71.5053 38.0363 71.3453 38.3669C71.1853 38.6976 71.1053 39.1189 71.1053 39.6309V43.9509H68.6093V39.4069C68.6093 38.7136 68.4653 38.2016 68.1773 37.8709C67.8999 37.5403 67.4999 37.3749 66.9773 37.3749C66.6146 37.3749 66.2893 37.4603 66.0013 37.6309C65.7133 37.7909 65.4893 38.0363 65.3293 38.3669C65.1693 38.6976 65.0893 39.1189 65.0893 39.6309V43.9509H62.5933V35.3429H64.9773V37.6949L64.5293 37.0069C64.8279 36.4203 65.2493 35.9776 65.7933 35.6789C66.3479 35.3696 66.9773 35.2149 67.6813 35.2149C68.4706 35.2149 69.1586 35.4176 69.7453 35.8229C70.3426 36.2176 70.7373 36.8256 70.9293 37.6469L70.0493 37.4069C70.3373 36.7349 70.7959 36.2016 71.4253 35.8069C72.0653 35.4123 72.7959 35.2149 73.6173 35.2149Z" fill="white"/>
<path d="M33.9042 63.9509L38.4162 53.7429L39.0882 54.8629H33.0562L34.2082 53.6469V56.6869H31.9042V52.7509H40.8802V54.4309L36.7202 63.9509H33.9042ZM50.7893 64.0789C49.9786 64.0789 49.2479 63.8976 48.5973 63.5349C47.9466 63.1616 47.4293 62.6443 47.0453 61.9829C46.6719 61.3216 46.4853 60.5429 46.4853 59.6469C46.4853 58.7403 46.6719 57.9563 47.0453 57.2949C47.4293 56.6336 47.9466 56.1216 48.5973 55.7589C49.2479 55.3963 49.9786 55.2149 50.7893 55.2149C51.5146 55.2149 52.1493 55.3749 52.6933 55.6949C53.2373 56.0149 53.6586 56.5003 53.9573 57.1509C54.2559 57.8016 54.4053 58.6336 54.4053 59.6469C54.4053 60.6496 54.2613 61.4816 53.9733 62.1429C53.6853 62.7936 53.2693 63.2789 52.7253 63.5989C52.1919 63.9189 51.5466 64.0789 50.7893 64.0789ZM51.2213 62.0309C51.6266 62.0309 51.9946 61.9349 52.3253 61.7429C52.6559 61.5509 52.9173 61.2789 53.1093 60.9269C53.3119 60.5643 53.4133 60.1376 53.4133 59.6469C53.4133 59.1456 53.3119 58.7189 53.1093 58.3669C52.9173 58.0149 52.6559 57.7429 52.3253 57.5509C51.9946 57.3589 51.6266 57.2629 51.2213 57.2629C50.8053 57.2629 50.4319 57.3589 50.1013 57.5509C49.7706 57.7429 49.5039 58.0149 49.3013 58.3669C49.1093 58.7189 49.0133 59.1456 49.0133 59.6469C49.0133 60.1376 49.1093 60.5643 49.3013 60.9269C49.5039 61.2789 49.7706 61.5509 50.1013 61.7429C50.4319 61.9349 50.8053 62.0309 51.2213 62.0309ZM53.4773 63.9509V62.1909L53.5253 59.6309L53.3653 57.0869V52.0789H55.8613V63.9509H53.4773ZM63.4514 63.9509V62.2709L63.2914 61.9029V58.8949C63.2914 58.3616 63.1261 57.9456 62.7954 57.6469C62.4754 57.3483 61.9794 57.1989 61.3074 57.1989C60.8487 57.1989 60.3954 57.2736 59.9474 57.4229C59.5101 57.5616 59.1367 57.7536 58.8274 57.9989L57.9314 56.2549C58.4007 55.9243 58.9661 55.6683 59.6274 55.4869C60.2887 55.3056 60.9607 55.2149 61.6434 55.2149C62.9554 55.2149 63.9741 55.5243 64.6994 56.1429C65.4247 56.7616 65.7874 57.7269 65.7874 59.0389V63.9509H63.4514ZM60.8274 64.0789C60.1554 64.0789 59.5794 63.9669 59.0994 63.7429C58.6194 63.5083 58.2514 63.1936 57.9954 62.7989C57.7394 62.4043 57.6114 61.9616 57.6114 61.4709C57.6114 60.9589 57.7341 60.5109 57.9794 60.1269C58.2354 59.7429 58.6354 59.4443 59.1794 59.2309C59.7234 59.0069 60.4327 58.8949 61.3074 58.8949H63.5954V60.3509H61.5794C60.9927 60.3509 60.5874 60.4469 60.3634 60.6389C60.1501 60.8309 60.0434 61.0709 60.0434 61.3589C60.0434 61.6789 60.1661 61.9349 60.4114 62.1269C60.6674 62.3083 61.0141 62.3989 61.4514 62.3989C61.8674 62.3989 62.2407 62.3029 62.5714 62.1109C62.9021 61.9083 63.1421 61.6149 63.2914 61.2309L63.6754 62.3829C63.4941 62.9376 63.1634 63.3589 62.6834 63.6469C62.2034 63.9349 61.5847 64.0789 60.8274 64.0789ZM68.9782 67.1829C68.5302 67.1829 68.0875 67.1136 67.6502 66.9749C67.2128 66.8363 66.8555 66.6443 66.5782 66.3989L67.4902 64.6229C67.6822 64.7936 67.9008 64.9269 68.1462 65.0229C68.4022 65.1189 68.6528 65.1669 68.8982 65.1669C69.2502 65.1669 69.5275 65.0816 69.7302 64.9109C69.9435 64.7509 70.1355 64.4789 70.3062 64.0949L70.7542 63.0389L70.9462 62.7669L74.0342 55.3429H76.4342L72.5462 64.4789C72.2688 65.1723 71.9488 65.7163 71.5862 66.1109C71.2342 66.5056 70.8395 66.7829 70.4022 66.9429C69.9755 67.1029 69.5008 67.1829 68.9782 67.1829ZM70.4502 64.2869L66.6102 55.3429H69.1862L72.1622 62.5429L70.4502 64.2869ZM80.2237 64.0789C79.4877 64.0789 78.7783 63.9936 78.0957 63.8229C77.4237 63.6416 76.8903 63.4176 76.4957 63.1509L77.3277 61.3589C77.7223 61.6043 78.1863 61.8069 78.7197 61.9669C79.2637 62.1163 79.797 62.1909 80.3197 62.1909C80.8957 62.1909 81.301 62.1216 81.5357 61.9829C81.781 61.8443 81.9037 61.6523 81.9037 61.4069C81.9037 61.2043 81.8077 61.0549 81.6157 60.9589C81.4343 60.8523 81.189 60.7723 80.8797 60.7189C80.5703 60.6656 80.229 60.6123 79.8557 60.5589C79.493 60.5056 79.125 60.4363 78.7517 60.3509C78.3783 60.2549 78.037 60.1163 77.7277 59.9349C77.4183 59.7536 77.1677 59.5083 76.9757 59.1989C76.7943 58.8896 76.7037 58.4896 76.7037 57.9989C76.7037 57.4549 76.8583 56.9749 77.1677 56.5589C77.4877 56.1429 77.9463 55.8176 78.5437 55.5829C79.141 55.3376 79.8557 55.2149 80.6877 55.2149C81.2743 55.2149 81.8717 55.2789 82.4797 55.4069C83.0877 55.5349 83.5943 55.7216 83.9997 55.9669L83.1677 57.7429C82.7517 57.4976 82.3303 57.3323 81.9037 57.2469C81.4877 57.1509 81.0823 57.1029 80.6877 57.1029C80.133 57.1029 79.7277 57.1776 79.4717 57.3269C79.2157 57.4763 79.0877 57.6683 79.0877 57.9029C79.0877 58.1163 79.1783 58.2763 79.3597 58.3829C79.5517 58.4896 79.8023 58.5749 80.1117 58.6389C80.421 58.7029 80.757 58.7616 81.1197 58.8149C81.493 58.8576 81.8663 58.9269 82.2397 59.0229C82.613 59.1189 82.949 59.2576 83.2477 59.4389C83.557 59.6096 83.8077 59.8496 83.9997 60.1589C84.1917 60.4576 84.2877 60.8523 84.2877 61.3429C84.2877 61.8763 84.1277 62.3509 83.8077 62.7669C83.4877 63.1723 83.0237 63.4923 82.4157 63.7269C81.8183 63.9616 81.0877 64.0789 80.2237 64.0789Z" fill="#37E4FF"/>
<defs>
<filter id="filter0_b_21_492" x="-1.78516" y="-3.31177" width="119.457" height="102.428" filterUnits="userSpaceOnUse" color-interpolation-filters="sRGB">
<feFlood flood-opacity="0" result="BackgroundImageFix"/>
<feGaussianBlur in="BackgroundImageFix" stdDeviation="6"/>
<feComposite in2="SourceAlpha" operator="in" result="effect1_backgroundBlur_21_492"/>
<feBlend mode="normal" in="SourceGraphic" in2="effect1_backgroundBlur_21_492" result="shape"/>
</filter>
<filter id="filter1_d_21_492" x="0" y="0" width="116" height="96" filterUnits="userSpaceOnUse" color-interpolation-filters="sRGB">
<feFlood flood-opacity="0" result="BackgroundImageFix"/>
<feColorMatrix in="SourceAlpha" type="matrix" values="0 0 0 0 0 0 0 0 0 0 0 0 0 0 0 0 0 0 127 0" result="hardAlpha"/>
<feOffset/>
<feGaussianBlur stdDeviation="4"/>
<feColorMatrix type="matrix" values="0 0 0 0 1 0 0 0 0 1 0 0 0 0 1 0 0 0 1 0"/>
<feBlend mode="normal" in2="BackgroundImageFix" result="effect1_dropShadow_21_492"/>
<feBlend mode="normal" in="SourceGraphic" in2="effect1_dropShadow_21_492" result="shape"/>
</filter>
</defs>
</svg>
