<svg width="40" height="40" viewBox="0 0 40 40" fill="none" xmlns="http://www.w3.org/2000/svg">
<rect width="40" height="40" rx="16" fill="black" fill-opacity="0.25"/>
<path d="M20 23.5C22.21 23.5 24 21.71 24 19.5V14C24 11.79 22.21 10 20 10C17.79 10 16 11.79 16 14V19.5C16 21.71 17.79 23.5 20 23.5Z" stroke="#37E4FF" stroke-width="1.5" stroke-linecap="round" stroke-linejoin="round"/>
<path d="M12.35 17.6501V19.3501C12.35 23.5701 15.78 27.0001 20 27.0001M20 27.0001C24.22 27.0001 27.65 23.5701 27.65 19.3501V17.6501M20 27.0001V30.0001M18.61 14.4301C19.51 14.1001 20.49 14.1001 21.39 14.4301M19.2 16.5501C19.73 16.4101 20.28 16.4101 20.81 16.5501" stroke="#37E4FF" stroke-width="1.5" stroke-linecap="round" stroke-linejoin="round"/>
</svg>
