<svg width="252" height="34" viewBox="0 0 252 34" fill="none" xmlns="http://www.w3.org/2000/svg">
<mask id="mask0_622_779" style="mask-type:alpha" maskUnits="userSpaceOnUse" x="0" y="0" width="252" height="34">
<path fill-rule="evenodd" clip-rule="evenodd" d="M78.9851 0C76.9078 0 75.2239 1.68394 75.2239 3.76119V30.2388C75.2239 32.3161 76.9078 34 78.9851 34C81.0623 34 82.7463 32.3161 82.7463 30.2388V3.76119C82.7463 1.68394 81.0623 0 78.9851 0ZM116.597 2C114.52 2 112.836 3.68394 112.836 5.76119V28.2388C112.836 30.3161 114.52 32 116.597 32C118.674 32 120.358 30.3161 120.358 28.2388V5.76119C120.358 3.68394 118.674 2 116.597 2ZM131.642 9.76119C131.642 7.68394 133.326 6 135.403 6C137.48 6 139.164 7.68394 139.164 9.76119V24.2388C139.164 26.3161 137.48 28 135.403 28C133.326 28 131.642 26.3161 131.642 24.2388V9.76119ZM225.672 9.76119C225.672 7.68394 227.356 6 229.433 6C231.51 6 233.194 7.68394 233.194 9.76119V24.2388C233.194 26.3161 231.51 28 229.433 28C227.356 28 225.672 26.3161 225.672 24.2388V9.76119ZM206.866 5.76119C206.866 3.68394 208.55 2 210.627 2C212.704 2 214.388 3.68394 214.388 5.76119V28.2388C214.388 30.3161 212.704 32 210.627 32C208.55 32 206.866 30.3161 206.866 28.2388V5.76119ZM97.791 7C95.7138 7 94.0299 8.68394 94.0299 10.7612V23.2388C94.0299 25.3161 95.7138 27 97.791 27C99.8683 27 101.552 25.3161 101.552 23.2388V10.7612C101.552 8.68394 99.8683 7 97.791 7ZM188.06 10.7612C188.06 8.68394 189.744 7 191.821 7C193.898 7 195.582 8.68394 195.582 10.7612V23.2388C195.582 25.3161 193.898 27 191.821 27C189.744 27 188.06 25.3161 188.06 23.2388V10.7612ZM169.254 3.76119C169.254 1.68394 170.938 0 173.015 0C175.092 0 176.776 1.68394 176.776 3.76119V30.2388C176.776 32.3161 175.092 34 173.015 34C170.938 34 169.254 32.3161 169.254 30.2388V3.76119ZM60.1791 8C58.1019 8 56.4179 9.68394 56.4179 11.7612V21.2388C56.4179 23.3161 58.1019 25 60.1791 25C62.2564 25 63.9403 23.3161 63.9403 21.2388V11.7612C63.9403 9.68394 62.2564 8 60.1791 8ZM150.448 11.7612C150.448 9.68394 152.132 8 154.209 8C156.286 8 157.97 9.68394 157.97 11.7612V15.7612V18.2388V21.2388C157.97 23.3161 156.286 25 154.209 25C152.132 25 150.448 23.3161 150.448 21.2388V18.2388V15.7612V11.7612ZM41.3731 2C39.2959 2 37.6119 3.68394 37.6119 5.76119V28.2388C37.6119 30.3161 39.2959 32 41.3731 32C43.4504 32 45.1343 30.3161 45.1343 28.2388V5.76119C45.1343 3.68394 43.4504 2 41.3731 2ZM18.806 9.76119C18.806 7.68394 20.4899 6 22.5672 6C24.6444 6 26.3284 7.68394 26.3284 9.76119V24.2388C26.3284 26.3161 24.6444 28 22.5672 28C20.4899 28 18.806 26.3161 18.806 24.2388V9.76119ZM3.76119 10C1.68394 10 0 11.6839 0 13.7612V20.2388C0 22.3161 1.68394 24 3.76119 24C5.83844 24 7.52239 22.3161 7.52239 20.2388V13.7612C7.52239 11.6839 5.83844 10 3.76119 10ZM248.239 12C246.162 12 244.478 13.6839 244.478 15.7612V18.2388C244.478 20.3161 246.162 22 248.239 22C250.316 22 252 20.3161 252 18.2388V15.7612C252 13.6839 250.316 12 248.239 12Z" fill="#D9D9D9"/>
<path fill-rule="evenodd" clip-rule="evenodd" d="M78.9851 0C76.9078 0 75.2239 1.68394 75.2239 3.76119V30.2388C75.2239 32.3161 76.9078 34 78.9851 34C81.0623 34 82.7463 32.3161 82.7463 30.2388V3.76119C82.7463 1.68394 81.0623 0 78.9851 0ZM116.597 2C114.52 2 112.836 3.68394 112.836 5.76119V28.2388C112.836 30.3161 114.52 32 116.597 32C118.674 32 120.358 30.3161 120.358 28.2388V5.76119C120.358 3.68394 118.674 2 116.597 2ZM131.642 9.76119C131.642 7.68394 133.326 6 135.403 6C137.48 6 139.164 7.68394 139.164 9.76119V24.2388C139.164 26.3161 137.48 28 135.403 28C133.326 28 131.642 26.3161 131.642 24.2388V9.76119ZM225.672 9.76119C225.672 7.68394 227.356 6 229.433 6C231.51 6 233.194 7.68394 233.194 9.76119V24.2388C233.194 26.3161 231.51 28 229.433 28C227.356 28 225.672 26.3161 225.672 24.2388V9.76119ZM206.866 5.76119C206.866 3.68394 208.55 2 210.627 2C212.704 2 214.388 3.68394 214.388 5.76119V28.2388C214.388 30.3161 212.704 32 210.627 32C208.55 32 206.866 30.3161 206.866 28.2388V5.76119ZM97.791 7C95.7138 7 94.0299 8.68394 94.0299 10.7612V23.2388C94.0299 25.3161 95.7138 27 97.791 27C99.8683 27 101.552 25.3161 101.552 23.2388V10.7612C101.552 8.68394 99.8683 7 97.791 7ZM188.06 10.7612C188.06 8.68394 189.744 7 191.821 7C193.898 7 195.582 8.68394 195.582 10.7612V23.2388C195.582 25.3161 193.898 27 191.821 27C189.744 27 188.06 25.3161 188.06 23.2388V10.7612ZM169.254 3.76119C169.254 1.68394 170.938 0 173.015 0C175.092 0 176.776 1.68394 176.776 3.76119V30.2388C176.776 32.3161 175.092 34 173.015 34C170.938 34 169.254 32.3161 169.254 30.2388V3.76119ZM60.1791 8C58.1019 8 56.4179 9.68394 56.4179 11.7612V21.2388C56.4179 23.3161 58.1019 25 60.1791 25C62.2564 25 63.9403 23.3161 63.9403 21.2388V11.7612C63.9403 9.68394 62.2564 8 60.1791 8ZM150.448 11.7612C150.448 9.68394 152.132 8 154.209 8C156.286 8 157.97 9.68394 157.97 11.7612V15.7612V18.2388V21.2388C157.97 23.3161 156.286 25 154.209 25C152.132 25 150.448 23.3161 150.448 21.2388V18.2388V15.7612V11.7612ZM41.3731 2C39.2959 2 37.6119 3.68394 37.6119 5.76119V28.2388C37.6119 30.3161 39.2959 32 41.3731 32C43.4504 32 45.1343 30.3161 45.1343 28.2388V5.76119C45.1343 3.68394 43.4504 2 41.3731 2ZM18.806 9.76119C18.806 7.68394 20.4899 6 22.5672 6C24.6444 6 26.3284 7.68394 26.3284 9.76119V24.2388C26.3284 26.3161 24.6444 28 22.5672 28C20.4899 28 18.806 26.3161 18.806 24.2388V9.76119ZM3.76119 10C1.68394 10 0 11.6839 0 13.7612V20.2388C0 22.3161 1.68394 24 3.76119 24C5.83844 24 7.52239 22.3161 7.52239 20.2388V13.7612C7.52239 11.6839 5.83844 10 3.76119 10ZM248.239 12C246.162 12 244.478 13.6839 244.478 15.7612V18.2388C244.478 20.3161 246.162 22 248.239 22C250.316 22 252 20.3161 252 18.2388V15.7612C252 13.6839 250.316 12 248.239 12Z" fill="black" fill-opacity="0.2"/>
</mask>
<g mask="url(#mask0_622_779)">
<rect x="-17.8657" y="-26" width="284.91" height="83" fill="#484848"/>
<rect x="-18" y="-26" width="125" height="83" fill="#37E4FF"/>
</g>
</svg>
