<svg width="40" height="40" viewBox="0 0 40 40" fill="none" xmlns="http://www.w3.org/2000/svg">
<rect width="40" height="40" rx="16" fill="#303030" fill-opacity="0.5"/>
<path d="M30 18V21C30 25 28 27 24 27H23.5C23.19 27 22.89 27.15 22.7 27.4L21.2 29.4C20.54 30.28 19.46 30.28 18.8 29.4L17.3 27.4C17.14 27.18 16.77 27 16.5 27H16C12 27 10 26 10 21V16C10 12 12 10 16 10H22" stroke="#37E4FF" stroke-width="1.5" stroke-miterlimit="10" stroke-linecap="round" stroke-linejoin="round"/>
<path d="M27.5 15C28.163 15 28.7989 14.7366 29.2678 14.2678C29.7366 13.7989 30 13.163 30 12.5C30 11.837 29.7366 11.2011 29.2678 10.7322C28.7989 10.2634 28.163 10 27.5 10C26.837 10 26.2011 10.2634 25.7322 10.7322C25.2634 11.2011 25 11.837 25 12.5C25 13.163 25.2634 13.7989 25.7322 14.2678C26.2011 14.7366 26.837 15 27.5 15Z" stroke="#37E4FF" stroke-width="1.5" stroke-linecap="round" stroke-linejoin="round"/>
<path d="M23.996 19H24.006M19.995 19H20.005M15.995 19H16.003" stroke="#37E4FF" stroke-width="2" stroke-linecap="round" stroke-linejoin="round"/>
</svg>
