<svg width="384" height="156" viewBox="0 0 384 156" fill="none" xmlns="http://www.w3.org/2000/svg">
<path d="M29 48C29 39.1634 36.1634 32 45 32H340.5C349.337 32 356.5 39.1634 356.5 48V88C356.5 96.8366 349.337 104 340.5 104H195.5L147.5 132.5V104H45C36.1634 104 29 96.8366 29 88V48Z" fill="white"/>
<path d="M265 59L263 73.5L276 66L265 59Z" fill="black"/>
<path d="M117.36 73.24C116.28 73.24 115.273 73.0667 114.34 72.72C113.42 72.36 112.62 71.8533 111.94 71.2C111.26 70.5467 110.727 69.78 110.34 68.9C109.967 68.02 109.78 67.0533 109.78 66C109.78 64.9467 109.967 63.98 110.34 63.1C110.727 62.22 111.26 61.4533 111.94 60.8C112.633 60.1467 113.44 59.6467 114.36 59.3C115.28 58.94 116.287 58.76 117.38 58.76C118.593 58.76 119.687 58.9733 120.66 59.4C121.647 59.8133 122.473 60.4267 123.14 61.24L121.06 63.16C120.58 62.6133 120.047 62.2067 119.46 61.94C118.873 61.66 118.233 61.52 117.54 61.52C116.887 61.52 116.287 61.6267 115.74 61.84C115.193 62.0533 114.72 62.36 114.32 62.76C113.92 63.16 113.607 63.6333 113.38 64.18C113.167 64.7267 113.06 65.3333 113.06 66C113.06 66.6667 113.167 67.2733 113.38 67.82C113.607 68.3667 113.92 68.84 114.32 69.24C114.72 69.64 115.193 69.9467 115.74 70.16C116.287 70.3733 116.887 70.48 117.54 70.48C118.233 70.48 118.873 70.3467 119.46 70.08C120.047 69.8 120.58 69.38 121.06 68.82L123.14 70.74C122.473 71.5533 121.647 72.1733 120.66 72.6C119.687 73.0267 118.587 73.24 117.36 73.24ZM125.108 73V58.16H128.228V73H125.108ZM131.124 73V62.24H134.244V73H131.124ZM132.684 60.74C132.11 60.74 131.644 60.5733 131.284 60.24C130.924 59.9067 130.744 59.4933 130.744 59C130.744 58.5067 130.924 58.0933 131.284 57.76C131.644 57.4267 132.11 57.26 132.684 57.26C133.257 57.26 133.724 57.42 134.084 57.74C134.444 58.0467 134.624 58.4467 134.624 58.94C134.624 59.46 134.444 59.8933 134.084 60.24C133.737 60.5733 133.27 60.74 132.684 60.74ZM142.339 73.16C141.179 73.16 140.146 72.9267 139.239 72.46C138.333 71.98 137.619 71.32 137.099 70.48C136.593 69.64 136.339 68.6867 136.339 67.62C136.339 66.54 136.593 65.5867 137.099 64.76C137.619 63.92 138.333 63.2667 139.239 62.8C140.146 62.32 141.179 62.08 142.339 62.08C143.473 62.08 144.459 62.32 145.299 62.8C146.139 63.2667 146.759 63.94 147.159 64.82L144.739 66.12C144.459 65.6133 144.106 65.24 143.679 65C143.266 64.76 142.813 64.64 142.319 64.64C141.786 64.64 141.306 64.76 140.879 65C140.453 65.24 140.113 65.58 139.859 66.02C139.619 66.46 139.499 66.9933 139.499 67.62C139.499 68.2467 139.619 68.78 139.859 69.22C140.113 69.66 140.453 70 140.879 70.24C141.306 70.48 141.786 70.6 142.319 70.6C142.813 70.6 143.266 70.4867 143.679 70.26C144.106 70.02 144.459 69.64 144.739 69.12L147.159 70.44C146.759 71.3067 146.139 71.98 145.299 72.46C144.459 72.9267 143.473 73.16 142.339 73.16ZM151.477 70.8L151.557 67L156.577 62.24H160.297L155.477 67.14L153.857 68.46L151.477 70.8ZM148.897 73V58.16H152.017V73H148.897ZM156.917 73L153.277 68.48L155.237 66.06L160.697 73H156.917ZM172.164 73.16C170.898 73.16 169.911 72.84 169.204 72.2C168.498 71.5467 168.144 70.58 168.144 69.3V59.86H171.264V69.26C171.264 69.7133 171.384 70.0667 171.624 70.32C171.864 70.56 172.191 70.68 172.604 70.68C173.098 70.68 173.518 70.5467 173.864 70.28L174.704 72.48C174.384 72.7067 173.998 72.88 173.544 73C173.104 73.1067 172.644 73.16 172.164 73.16ZM166.484 64.88V62.48H173.944V64.88H166.484ZM181.244 73.16C180.097 73.16 179.077 72.92 178.184 72.44C177.304 71.96 176.604 71.3067 176.084 70.48C175.577 69.64 175.324 68.6867 175.324 67.62C175.324 66.54 175.577 65.5867 176.084 64.76C176.604 63.92 177.304 63.2667 178.184 62.8C179.077 62.32 180.097 62.08 181.244 62.08C182.377 62.08 183.39 62.32 184.284 62.8C185.177 63.2667 185.877 63.9133 186.384 64.74C186.89 65.5667 187.144 66.5267 187.144 67.62C187.144 68.6867 186.89 69.64 186.384 70.48C185.877 71.3067 185.177 71.96 184.284 72.44C183.39 72.92 182.377 73.16 181.244 73.16ZM181.244 70.6C181.764 70.6 182.23 70.48 182.644 70.24C183.057 70 183.384 69.66 183.624 69.22C183.864 68.7667 183.984 68.2333 183.984 67.62C183.984 66.9933 183.864 66.46 183.624 66.02C183.384 65.58 183.057 65.24 182.644 65C182.23 64.76 181.764 64.64 181.244 64.64C180.724 64.64 180.257 64.76 179.844 65C179.43 65.24 179.097 65.58 178.844 66.02C178.604 66.46 178.484 66.9933 178.484 67.62C178.484 68.2333 178.604 68.7667 178.844 69.22C179.097 69.66 179.43 70 179.844 70.24C180.257 70.48 180.724 70.6 181.244 70.6ZM201.253 73.16C200.346 73.16 199.553 72.96 198.873 72.56C198.193 72.16 197.66 71.5533 197.273 70.74C196.9 69.9133 196.713 68.8733 196.713 67.62C196.713 66.3533 196.893 65.3133 197.253 64.5C197.613 63.6867 198.133 63.08 198.813 62.68C199.493 62.28 200.306 62.08 201.253 62.08C202.266 62.08 203.173 62.3133 203.973 62.78C204.786 63.2333 205.426 63.8733 205.893 64.7C206.373 65.5267 206.613 66.5 206.613 67.62C206.613 68.7533 206.373 69.7333 205.893 70.56C205.426 71.3867 204.786 72.0267 203.973 72.48C203.173 72.9333 202.266 73.16 201.253 73.16ZM194.893 76.88V62.24H197.873V64.44L197.813 67.64L198.013 70.82V76.88H194.893ZM200.713 70.6C201.233 70.6 201.693 70.48 202.093 70.24C202.506 70 202.833 69.66 203.073 69.22C203.326 68.7667 203.453 68.2333 203.453 67.62C203.453 66.9933 203.326 66.46 203.073 66.02C202.833 65.58 202.506 65.24 202.093 65C201.693 64.76 201.233 64.64 200.713 64.64C200.193 64.64 199.726 64.76 199.313 65C198.9 65.24 198.573 65.58 198.333 66.02C198.093 66.46 197.973 66.9933 197.973 67.62C197.973 68.2333 198.093 68.7667 198.333 69.22C198.573 69.66 198.9 70 199.313 70.24C199.726 70.48 200.193 70.6 200.713 70.6ZM208.702 73V58.16H211.822V73H208.702ZM221.317 73V70.9L221.117 70.44V66.68C221.117 66.0133 220.911 65.4933 220.497 65.12C220.097 64.7467 219.477 64.56 218.637 64.56C218.064 64.56 217.497 64.6533 216.937 64.84C216.391 65.0133 215.924 65.2533 215.537 65.56L214.417 63.38C215.004 62.9667 215.711 62.6467 216.537 62.42C217.364 62.1933 218.204 62.08 219.057 62.08C220.697 62.08 221.971 62.4667 222.877 63.24C223.784 64.0133 224.237 65.22 224.237 66.86V73H221.317ZM218.037 73.16C217.197 73.16 216.477 73.02 215.877 72.74C215.277 72.4467 214.817 72.0533 214.497 71.56C214.177 71.0667 214.017 70.5133 214.017 69.9C214.017 69.26 214.171 68.7 214.477 68.22C214.797 67.74 215.297 67.3667 215.977 67.1C216.657 66.82 217.544 66.68 218.637 66.68H221.497V68.5H218.977C218.244 68.5 217.737 68.62 217.457 68.86C217.191 69.1 217.057 69.4 217.057 69.76C217.057 70.16 217.211 70.48 217.517 70.72C217.837 70.9467 218.271 71.06 218.817 71.06C219.337 71.06 219.804 70.94 220.217 70.7C220.631 70.4467 220.931 70.08 221.117 69.6L221.597 71.04C221.371 71.7333 220.957 72.26 220.357 72.62C219.757 72.98 218.984 73.16 218.037 73.16ZM228.226 77.04C227.666 77.04 227.112 76.9533 226.566 76.78C226.019 76.6067 225.572 76.3667 225.226 76.06L226.366 73.84C226.606 74.0533 226.879 74.22 227.186 74.34C227.506 74.46 227.819 74.52 228.126 74.52C228.566 74.52 228.912 74.4133 229.166 74.2C229.432 74 229.672 73.66 229.886 73.18L230.446 71.86L230.686 71.52L234.546 62.24H237.546L232.686 73.66C232.339 74.5267 231.939 75.2067 231.486 75.7C231.046 76.1933 230.552 76.54 230.006 76.74C229.472 76.94 228.879 77.04 228.226 77.04ZM230.066 73.42L225.266 62.24H228.486L232.206 71.24L230.066 73.42Z" fill="black"/>
</svg>
