<svg width="259" height="36" viewBox="0 0 259 36" fill="none" xmlns="http://www.w3.org/2000/svg">
<path d="M5.152 24.096C4.288 24.096 3.51467 23.9093 2.832 23.536C2.16 23.1627 1.632 22.6507 1.248 22C0.864 21.3493 0.672 20.6027 0.672 19.76C0.672 18.9173 0.864 18.1707 1.248 17.52C1.632 16.8693 2.16 16.3627 2.832 16C3.51467 15.6267 4.288 15.44 5.152 15.44C5.92 15.44 6.60267 15.5947 7.2 15.904C7.808 16.2027 8.27733 16.6507 8.608 17.248L7.44 18C7.16267 17.584 6.82133 17.28 6.416 17.088C6.02133 16.8853 5.59467 16.784 5.136 16.784C4.58133 16.784 4.08533 16.9067 3.648 17.152C3.21067 17.3973 2.864 17.744 2.608 18.192C2.352 18.6293 2.224 19.152 2.224 19.76C2.224 20.368 2.352 20.896 2.608 21.344C2.864 21.792 3.21067 22.1387 3.648 22.384C4.08533 22.6293 4.58133 22.752 5.136 22.752C5.59467 22.752 6.02133 22.656 6.416 22.464C6.82133 22.2613 7.16267 21.952 7.44 21.536L8.608 22.272C8.27733 22.8587 7.808 23.312 7.2 23.632C6.60267 23.9413 5.92 24.096 5.152 24.096ZM14.1036 24.096C13.2503 24.096 12.493 23.9093 11.8316 23.536C11.1703 23.1627 10.6476 22.6507 10.2636 22C9.87963 21.3387 9.68763 20.592 9.68763 19.76C9.68763 18.9173 9.87963 18.1707 10.2636 17.52C10.6476 16.8693 11.1703 16.3627 11.8316 16C12.493 15.6267 13.2503 15.44 14.1036 15.44C14.9463 15.44 15.6983 15.6267 16.3596 16C17.0316 16.3627 17.5543 16.8693 17.9276 17.52C18.3116 18.16 18.5036 18.9067 18.5036 19.76C18.5036 20.6027 18.3116 21.3493 17.9276 22C17.5543 22.6507 17.0316 23.1627 16.3596 23.536C15.6983 23.9093 14.9463 24.096 14.1036 24.096ZM14.1036 22.752C14.6476 22.752 15.133 22.6293 15.5596 22.384C15.997 22.1387 16.3383 21.792 16.5836 21.344C16.829 20.8853 16.9516 20.3573 16.9516 19.76C16.9516 19.152 16.829 18.6293 16.5836 18.192C16.3383 17.744 15.997 17.3973 15.5596 17.152C15.133 16.9067 14.6476 16.784 14.1036 16.784C13.5596 16.784 13.0743 16.9067 12.6476 17.152C12.221 17.3973 11.8796 17.744 11.6236 18.192C11.3676 18.6293 11.2396 19.152 11.2396 19.76C11.2396 20.3573 11.3676 20.8853 11.6236 21.344C11.8796 21.792 12.221 22.1387 12.6476 22.384C13.0743 22.6293 13.5596 22.752 14.1036 22.752ZM25.1559 15.44C25.8492 15.44 26.4572 15.5733 26.9799 15.84C27.5132 16.1067 27.9292 16.512 28.2279 17.056C28.5265 17.6 28.6759 18.288 28.6759 19.12V24H27.1399V19.296C27.1399 18.4747 26.9372 17.856 26.5319 17.44C26.1372 17.024 25.5772 16.816 24.8519 16.816C24.3079 16.816 23.8332 16.9227 23.4279 17.136C23.0225 17.3493 22.7079 17.664 22.4839 18.08C22.2705 18.496 22.1639 19.0133 22.1639 19.632V24H20.6279V15.52H22.0999V17.808L21.8599 17.2C22.1372 16.6453 22.5639 16.2133 23.1399 15.904C23.7159 15.5947 24.3879 15.44 25.1559 15.44ZM34.4305 24.096C33.5772 24.096 32.9158 23.8667 32.4465 23.408C31.9772 22.9493 31.7425 22.2933 31.7425 21.44V13.664H33.2785V21.376C33.2785 21.8347 33.3905 22.1867 33.6145 22.432C33.8492 22.6773 34.1798 22.8 34.6065 22.8C35.0865 22.8 35.4865 22.6667 35.8065 22.4L36.2865 23.504C36.0518 23.7067 35.7692 23.856 35.4385 23.952C35.1185 24.048 34.7825 24.096 34.4305 24.096ZM30.3025 16.784V15.52H35.7105V16.784H30.3025ZM43.4075 24V22.208L43.3275 21.872V18.816C43.3275 18.1653 43.1355 17.664 42.7515 17.312C42.3782 16.9493 41.8128 16.768 41.0555 16.768C40.5542 16.768 40.0635 16.8533 39.5835 17.024C39.1035 17.184 38.6982 17.4027 38.3675 17.68L37.7275 16.528C38.1648 16.176 38.6875 15.9093 39.2955 15.728C39.9142 15.536 40.5595 15.44 41.2315 15.44C42.3942 15.44 43.2902 15.7227 43.9195 16.288C44.5488 16.8533 44.8635 17.7173 44.8635 18.88V24H43.4075ZM40.6235 24.096C39.9942 24.096 39.4395 23.9893 38.9595 23.776C38.4902 23.5627 38.1275 23.2693 37.8715 22.896C37.6155 22.512 37.4875 22.08 37.4875 21.6C37.4875 21.1413 37.5942 20.7253 37.8075 20.352C38.0315 19.9787 38.3888 19.68 38.8795 19.456C39.3808 19.232 40.0528 19.12 40.8955 19.12H43.5835V20.224H40.9595C40.1915 20.224 39.6742 20.352 39.4075 20.608C39.1408 20.864 39.0075 21.1733 39.0075 21.536C39.0075 21.952 39.1728 22.288 39.5035 22.544C39.8342 22.7893 40.2928 22.912 40.8795 22.912C41.4555 22.912 41.9568 22.784 42.3835 22.528C42.8208 22.272 43.1355 21.8987 43.3275 21.408L43.6315 22.464C43.4288 22.9653 43.0715 23.3653 42.5595 23.664C42.0475 23.952 41.4022 24.096 40.6235 24.096ZM51.402 24.096C50.538 24.096 49.7647 23.9093 49.082 23.536C48.41 23.1627 47.882 22.6507 47.498 22C47.114 21.3493 46.922 20.6027 46.922 19.76C46.922 18.9173 47.114 18.1707 47.498 17.52C47.882 16.8693 48.41 16.3627 49.082 16C49.7647 15.6267 50.538 15.44 51.402 15.44C52.17 15.44 52.8527 15.5947 53.45 15.904C54.058 16.2027 54.5273 16.6507 54.858 17.248L53.69 18C53.4127 17.584 53.0713 17.28 52.666 17.088C52.2713 16.8853 51.8447 16.784 51.386 16.784C50.8313 16.784 50.3353 16.9067 49.898 17.152C49.4607 17.3973 49.114 17.744 48.858 18.192C48.602 18.6293 48.474 19.152 48.474 19.76C48.474 20.368 48.602 20.896 48.858 21.344C49.114 21.792 49.4607 22.1387 49.898 22.384C50.3353 22.6293 50.8313 22.752 51.386 22.752C51.8447 22.752 52.2713 22.656 52.666 22.464C53.0713 22.2613 53.4127 21.952 53.69 21.536L54.858 22.272C54.5273 22.8587 54.058 23.312 53.45 23.632C52.8527 23.9413 52.17 24.096 51.402 24.096ZM59.868 24.096C59.0147 24.096 58.3533 23.8667 57.884 23.408C57.4147 22.9493 57.18 22.2933 57.18 21.44V13.664H58.716V21.376C58.716 21.8347 58.828 22.1867 59.052 22.432C59.2867 22.6773 59.6173 22.8 60.044 22.8C60.524 22.8 60.924 22.6667 61.244 22.4L61.724 23.504C61.4893 23.7067 61.2067 23.856 60.876 23.952C60.556 24.048 60.22 24.096 59.868 24.096ZM55.74 16.784V15.52H61.148V16.784H55.74ZM71.4459 24.096C70.7205 24.096 70.0805 23.9627 69.5259 23.696C68.9819 23.4293 68.5552 23.024 68.2459 22.48C67.9472 21.9253 67.7979 21.232 67.7979 20.4V15.52H69.3339V20.224C69.3339 21.056 69.5312 21.68 69.9259 22.096C70.3312 22.512 70.8965 22.72 71.6219 22.72C72.1552 22.72 72.6192 22.6133 73.0139 22.4C73.4085 22.176 73.7125 21.856 73.9259 21.44C74.1392 21.0133 74.2459 20.5013 74.2459 19.904V15.52H75.7819V24H74.3259V21.712L74.5659 22.32C74.2885 22.8853 73.8725 23.3227 73.3179 23.632C72.7632 23.9413 72.1392 24.096 71.4459 24.096ZM81.138 24.096C80.434 24.096 79.762 24 79.122 23.808C78.4927 23.616 77.9967 23.3813 77.634 23.104L78.274 21.888C78.6367 22.1333 79.0847 22.3413 79.618 22.512C80.1513 22.6827 80.6953 22.768 81.25 22.768C81.9647 22.768 82.4767 22.6667 82.786 22.464C83.106 22.2613 83.266 21.9787 83.266 21.616C83.266 21.3493 83.17 21.1413 82.978 20.992C82.786 20.8427 82.53 20.7307 82.21 20.656C81.9007 20.5813 81.554 20.5173 81.17 20.464C80.786 20.4 80.402 20.3253 80.018 20.24C79.634 20.144 79.282 20.016 78.962 19.856C78.642 19.6853 78.386 19.456 78.194 19.168C78.002 18.8693 77.906 18.4747 77.906 17.984C77.906 17.472 78.05 17.024 78.338 16.64C78.626 16.256 79.0313 15.9627 79.554 15.76C80.0873 15.5467 80.7167 15.44 81.442 15.44C81.9967 15.44 82.5567 15.5093 83.122 15.648C83.698 15.776 84.1673 15.9627 84.53 16.208L83.874 17.424C83.49 17.168 83.09 16.992 82.674 16.896C82.258 16.8 81.842 16.752 81.426 16.752C80.754 16.752 80.2527 16.864 79.922 17.088C79.5913 17.3013 79.426 17.5787 79.426 17.92C79.426 18.208 79.522 18.432 79.714 18.592C79.9167 18.7413 80.1727 18.8587 80.482 18.944C80.802 19.0293 81.154 19.104 81.538 19.168C81.922 19.2213 82.306 19.296 82.69 19.392C83.074 19.4773 83.4207 19.6 83.73 19.76C84.05 19.92 84.306 20.144 84.498 20.432C84.7007 20.72 84.802 21.104 84.802 21.584C84.802 22.096 84.6527 22.5387 84.354 22.912C84.0553 23.2853 83.634 23.5787 83.09 23.792C82.546 23.9947 81.8953 24.096 81.138 24.096ZM87.0896 17.632C86.791 17.632 86.535 17.5307 86.3216 17.328C86.1083 17.1147 86.0016 16.848 86.0016 16.528C86.0016 16.208 86.1083 15.9467 86.3216 15.744C86.535 15.5413 86.791 15.44 87.0896 15.44C87.3776 15.44 87.623 15.5413 87.8256 15.744C88.039 15.9467 88.1456 16.208 88.1456 16.528C88.1456 16.848 88.039 17.1147 87.8256 17.328C87.623 17.5307 87.3776 17.632 87.0896 17.632ZM87.0896 24.096C86.791 24.096 86.535 23.9947 86.3216 23.792C86.1083 23.5787 86.0016 23.312 86.0016 22.992C86.0016 22.672 86.1083 22.4107 86.3216 22.208C86.535 22.0053 86.791 21.904 87.0896 21.904C87.3776 21.904 87.623 22.0053 87.8256 22.208C88.039 22.4107 88.1456 22.672 88.1456 22.992C88.1456 23.312 88.039 23.5787 87.8256 23.792C87.623 23.9947 87.3776 24.096 87.0896 24.096Z" fill="white"/>
<g filter="url(#filter0_b_21_607)">
<rect x="113" width="146" height="36" rx="16" fill="#00DDFF" fill-opacity="0.2"/>
<path d="M128.888 24.096C128.184 24.096 127.512 24 126.872 23.808C126.243 23.616 125.747 23.3813 125.384 23.104L126.024 21.888C126.387 22.1333 126.835 22.3413 127.368 22.512C127.901 22.6827 128.445 22.768 129 22.768C129.715 22.768 130.227 22.6667 130.536 22.464C130.856 22.2613 131.016 21.9787 131.016 21.616C131.016 21.3493 130.92 21.1413 130.728 20.992C130.536 20.8427 130.28 20.7307 129.96 20.656C129.651 20.5813 129.304 20.5173 128.92 20.464C128.536 20.4 128.152 20.3253 127.768 20.24C127.384 20.144 127.032 20.016 126.712 19.856C126.392 19.6853 126.136 19.456 125.944 19.168C125.752 18.8693 125.656 18.4747 125.656 17.984C125.656 17.472 125.8 17.024 126.088 16.64C126.376 16.256 126.781 15.9627 127.304 15.76C127.837 15.5467 128.467 15.44 129.192 15.44C129.747 15.44 130.307 15.5093 130.872 15.648C131.448 15.776 131.917 15.9627 132.28 16.208L131.624 17.424C131.24 17.168 130.84 16.992 130.424 16.896C130.008 16.8 129.592 16.752 129.176 16.752C128.504 16.752 128.003 16.864 127.672 17.088C127.341 17.3013 127.176 17.5787 127.176 17.92C127.176 18.208 127.272 18.432 127.464 18.592C127.667 18.7413 127.923 18.8587 128.232 18.944C128.552 19.0293 128.904 19.104 129.288 19.168C129.672 19.2213 130.056 19.296 130.44 19.392C130.824 19.4773 131.171 19.6 131.48 19.76C131.8 19.92 132.056 20.144 132.248 20.432C132.451 20.72 132.552 21.104 132.552 21.584C132.552 22.096 132.403 22.5387 132.104 22.912C131.805 23.2853 131.384 23.5787 130.84 23.792C130.296 23.9947 129.645 24.096 128.888 24.096ZM139.736 24V22.208L139.656 21.872V18.816C139.656 18.1653 139.464 17.664 139.08 17.312C138.706 16.9493 138.141 16.768 137.384 16.768C136.882 16.768 136.392 16.8533 135.912 17.024C135.432 17.184 135.026 17.4027 134.696 17.68L134.056 16.528C134.493 16.176 135.016 15.9093 135.624 15.728C136.242 15.536 136.888 15.44 137.56 15.44C138.722 15.44 139.618 15.7227 140.248 16.288C140.877 16.8533 141.192 17.7173 141.192 18.88V24H139.736ZM136.952 24.096C136.322 24.096 135.768 23.9893 135.288 23.776C134.818 23.5627 134.456 23.2693 134.2 22.896C133.944 22.512 133.816 22.08 133.816 21.6C133.816 21.1413 133.922 20.7253 134.136 20.352C134.36 19.9787 134.717 19.68 135.208 19.456C135.709 19.232 136.381 19.12 137.224 19.12H139.912V20.224H137.288C136.52 20.224 136.002 20.352 135.736 20.608C135.469 20.864 135.336 21.1733 135.336 21.536C135.336 21.952 135.501 22.288 135.832 22.544C136.162 22.7893 136.621 22.912 137.208 22.912C137.784 22.912 138.285 22.784 138.712 22.528C139.149 22.272 139.464 21.8987 139.656 21.408L139.96 22.464C139.757 22.9653 139.4 23.3653 138.888 23.664C138.376 23.952 137.73 24.096 136.952 24.096ZM144.034 24V12.128H145.57V24H144.034ZM152.279 24.096C151.372 24.096 150.572 23.9093 149.879 23.536C149.196 23.1627 148.663 22.6507 148.279 22C147.906 21.3493 147.719 20.6027 147.719 19.76C147.719 18.9173 147.9 18.1707 148.263 17.52C148.636 16.8693 149.143 16.3627 149.783 16C150.434 15.6267 151.164 15.44 151.975 15.44C152.796 15.44 153.522 15.6213 154.151 15.984C154.78 16.3467 155.271 16.8587 155.623 17.52C155.986 18.1707 156.167 18.9333 156.167 19.808C156.167 19.872 156.162 19.9467 156.151 20.032C156.151 20.1173 156.146 20.1973 156.135 20.272H148.919V19.168H155.335L154.711 19.552C154.722 19.008 154.61 18.5227 154.375 18.096C154.14 17.6693 153.815 17.3387 153.399 17.104C152.994 16.8587 152.519 16.736 151.975 16.736C151.442 16.736 150.967 16.8587 150.551 17.104C150.135 17.3387 149.81 17.6747 149.575 18.112C149.34 18.5387 149.223 19.0293 149.223 19.584V19.84C149.223 20.4053 149.351 20.912 149.607 21.36C149.874 21.7973 150.242 22.1387 150.711 22.384C151.18 22.6293 151.719 22.752 152.327 22.752C152.828 22.752 153.282 22.6667 153.687 22.496C154.103 22.3253 154.466 22.0693 154.775 21.728L155.623 22.72C155.239 23.168 154.759 23.5093 154.183 23.744C153.618 23.9787 152.983 24.096 152.279 24.096ZM160.732 24.096C160.028 24.096 159.356 24 158.716 23.808C158.086 23.616 157.59 23.3813 157.228 23.104L157.868 21.888C158.23 22.1333 158.678 22.3413 159.212 22.512C159.745 22.6827 160.289 22.768 160.844 22.768C161.558 22.768 162.07 22.6667 162.38 22.464C162.7 22.2613 162.86 21.9787 162.86 21.616C162.86 21.3493 162.764 21.1413 162.572 20.992C162.38 20.8427 162.124 20.7307 161.804 20.656C161.494 20.5813 161.148 20.5173 160.764 20.464C160.38 20.4 159.996 20.3253 159.612 20.24C159.228 20.144 158.876 20.016 158.556 19.856C158.236 19.6853 157.98 19.456 157.788 19.168C157.596 18.8693 157.5 18.4747 157.5 17.984C157.5 17.472 157.644 17.024 157.932 16.64C158.22 16.256 158.625 15.9627 159.148 15.76C159.681 15.5467 160.31 15.44 161.036 15.44C161.59 15.44 162.15 15.5093 162.716 15.648C163.292 15.776 163.761 15.9627 164.124 16.208L163.468 17.424C163.084 17.168 162.684 16.992 162.268 16.896C161.852 16.8 161.436 16.752 161.02 16.752C160.348 16.752 159.846 16.864 159.516 17.088C159.185 17.3013 159.02 17.5787 159.02 17.92C159.02 18.208 159.116 18.432 159.308 18.592C159.51 18.7413 159.766 18.8587 160.076 18.944C160.396 19.0293 160.748 19.104 161.132 19.168C161.516 19.2213 161.9 19.296 162.284 19.392C162.668 19.4773 163.014 19.6 163.324 19.76C163.644 19.92 163.9 20.144 164.092 20.432C164.294 20.72 164.396 21.104 164.396 21.584C164.396 22.096 164.246 22.5387 163.948 22.912C163.649 23.2853 163.228 23.5787 162.684 23.792C162.14 23.9947 161.489 24.096 160.732 24.096ZM173.115 27.232C172.006 27.232 170.993 27.0507 170.075 26.688C169.158 26.3253 168.369 25.8187 167.707 25.168C167.046 24.5173 166.534 23.7493 166.171 22.864C165.809 21.968 165.627 20.992 165.627 19.936C165.627 18.88 165.809 17.9093 166.171 17.024C166.534 16.1387 167.046 15.3707 167.707 14.72C168.379 14.0693 169.179 13.568 170.107 13.216C171.035 12.864 172.059 12.688 173.179 12.688C174.278 12.688 175.281 12.8587 176.187 13.2C177.094 13.5413 177.878 14.0267 178.539 14.656C179.211 15.2747 179.729 16.016 180.091 16.88C180.454 17.7333 180.635 18.6773 180.635 19.712C180.635 20.6187 180.523 21.3973 180.299 22.048C180.075 22.6987 179.75 23.2053 179.323 23.568C178.907 23.92 178.395 24.096 177.787 24.096C177.19 24.096 176.71 23.9147 176.347 23.552C175.995 23.1893 175.819 22.672 175.819 22V20.912L175.899 19.936L175.755 18.096V15.968H177.147V21.728C177.147 22.1547 177.233 22.4533 177.403 22.624C177.585 22.7947 177.803 22.88 178.059 22.88C178.369 22.88 178.635 22.7573 178.859 22.512C179.094 22.2667 179.265 21.9093 179.371 21.44C179.489 20.96 179.547 20.3893 179.547 19.728C179.547 18.832 179.393 18.0213 179.083 17.296C178.785 16.56 178.347 15.9253 177.771 15.392C177.206 14.8587 176.534 14.4533 175.755 14.176C174.987 13.888 174.129 13.744 173.179 13.744C172.23 13.744 171.361 13.8987 170.571 14.208C169.793 14.5067 169.121 14.9333 168.555 15.488C167.99 16.032 167.553 16.6827 167.243 17.44C166.945 18.1973 166.795 19.0293 166.795 19.936C166.795 20.8533 166.945 21.696 167.243 22.464C167.542 23.2213 167.969 23.872 168.523 24.416C169.089 24.9707 169.755 25.3973 170.523 25.696C171.302 26.0053 172.166 26.16 173.115 26.16C173.606 26.16 174.123 26.1013 174.667 25.984C175.211 25.8773 175.723 25.7013 176.203 25.456L176.555 26.48C176.065 26.7253 175.51 26.912 174.891 27.04C174.273 27.168 173.681 27.232 173.115 27.232ZM172.827 24.096C172.07 24.096 171.398 23.92 170.811 23.568C170.225 23.2053 169.761 22.7147 169.419 22.096C169.078 21.4773 168.907 20.7733 168.907 19.984C168.907 19.184 169.078 18.48 169.419 17.872C169.761 17.2533 170.225 16.7733 170.811 16.432C171.398 16.08 172.07 15.904 172.827 15.904C173.563 15.904 174.209 16.064 174.763 16.384C175.318 16.6933 175.75 17.152 176.059 17.76C176.379 18.368 176.539 19.1093 176.539 19.984C176.539 20.8587 176.385 21.6 176.075 22.208C175.766 22.816 175.334 23.2853 174.779 23.616C174.225 23.936 173.574 24.096 172.827 24.096ZM173.051 22.848C173.574 22.848 174.038 22.736 174.443 22.512C174.859 22.2773 175.185 21.9467 175.419 21.52C175.665 21.0827 175.787 20.5707 175.787 19.984C175.787 19.3867 175.665 18.8747 175.419 18.448C175.185 18.0213 174.859 17.696 174.443 17.472C174.038 17.248 173.574 17.136 173.051 17.136C172.518 17.136 172.043 17.2533 171.627 17.488C171.222 17.712 170.902 18.0373 170.667 18.464C170.443 18.8907 170.331 19.3973 170.331 19.984C170.331 20.56 170.443 21.0613 170.667 21.488C170.902 21.9147 171.222 22.2507 171.627 22.496C172.043 22.7307 172.518 22.848 173.051 22.848ZM182.862 24V12.128H184.398V24H182.862ZM187.331 24V15.52H188.867V24H187.331ZM188.099 13.888C187.8 13.888 187.55 13.792 187.347 13.6C187.155 13.408 187.059 13.1733 187.059 12.896C187.059 12.608 187.155 12.368 187.347 12.176C187.55 11.984 187.8 11.888 188.099 11.888C188.398 11.888 188.643 11.984 188.835 12.176C189.038 12.3573 189.139 12.5867 189.139 12.864C189.139 13.152 189.043 13.3973 188.851 13.6C188.659 13.792 188.408 13.888 188.099 13.888ZM196.296 24.096C195.57 24.096 194.914 23.936 194.328 23.616C193.752 23.2853 193.293 22.8 192.952 22.16C192.621 21.52 192.456 20.72 192.456 19.76C192.456 18.8 192.626 18 192.968 17.36C193.32 16.72 193.784 16.24 194.36 15.92C194.946 15.6 195.592 15.44 196.296 15.44C197.128 15.44 197.864 15.6213 198.504 15.984C199.144 16.3467 199.65 16.8533 200.024 17.504C200.397 18.144 200.584 18.896 200.584 19.76C200.584 20.624 200.397 21.3813 200.024 22.032C199.65 22.6827 199.144 23.1893 198.504 23.552C197.864 23.9147 197.128 24.096 196.296 24.096ZM191.8 24V12.128H193.336V17.776L193.176 19.744L193.272 21.712V24H191.8ZM196.168 22.752C196.712 22.752 197.197 22.6293 197.624 22.384C198.061 22.1387 198.402 21.792 198.648 21.344C198.904 20.8853 199.032 20.3573 199.032 19.76C199.032 19.152 198.904 18.6293 198.648 18.192C198.402 17.744 198.061 17.3973 197.624 17.152C197.197 16.9067 196.712 16.784 196.168 16.784C195.634 16.784 195.149 16.9067 194.712 17.152C194.285 17.3973 193.944 17.744 193.688 18.192C193.442 18.6293 193.32 19.152 193.32 19.76C193.32 20.3573 193.442 20.8853 193.688 21.344C193.944 21.792 194.285 22.1387 194.712 22.384C195.149 22.6293 195.634 22.752 196.168 22.752ZM207.202 24.096C206.477 24.096 205.821 23.936 205.234 23.616C204.658 23.2853 204.199 22.8 203.858 22.16C203.527 21.52 203.362 20.72 203.362 19.76C203.362 18.8 203.533 18 203.874 17.36C204.226 16.72 204.69 16.24 205.266 15.92C205.853 15.6 206.498 15.44 207.202 15.44C208.034 15.44 208.77 15.6213 209.41 15.984C210.05 16.3467 210.557 16.8533 210.93 17.504C211.303 18.144 211.49 18.896 211.49 19.76C211.49 20.624 211.303 21.3813 210.93 22.032C210.557 22.6827 210.05 23.1893 209.41 23.552C208.77 23.9147 208.034 24.096 207.202 24.096ZM202.706 24V12.128H204.242V17.776L204.082 19.744L204.178 21.712V24H202.706ZM207.074 22.752C207.618 22.752 208.103 22.6293 208.53 22.384C208.967 22.1387 209.309 21.792 209.554 21.344C209.81 20.8853 209.938 20.3573 209.938 19.76C209.938 19.152 209.81 18.6293 209.554 18.192C209.309 17.744 208.967 17.3973 208.53 17.152C208.103 16.9067 207.618 16.784 207.074 16.784C206.541 16.784 206.055 16.9067 205.618 17.152C205.191 17.3973 204.85 17.744 204.594 18.192C204.349 18.6293 204.226 19.152 204.226 19.76C204.226 20.3573 204.349 20.8853 204.594 21.344C204.85 21.792 205.191 22.1387 205.618 22.384C206.055 22.6293 206.541 22.752 207.074 22.752ZM217.244 24.096C216.391 24.096 215.634 23.9093 214.972 23.536C214.311 23.1627 213.788 22.6507 213.404 22C213.02 21.3387 212.828 20.592 212.828 19.76C212.828 18.9173 213.02 18.1707 213.404 17.52C213.788 16.8693 214.311 16.3627 214.972 16C215.634 15.6267 216.391 15.44 217.244 15.44C218.087 15.44 218.839 15.6267 219.5 16C220.172 16.3627 220.695 16.8693 221.068 17.52C221.452 18.16 221.644 18.9067 221.644 19.76C221.644 20.6027 221.452 21.3493 221.068 22C220.695 22.6507 220.172 23.1627 219.5 23.536C218.839 23.9093 218.087 24.096 217.244 24.096ZM217.244 22.752C217.788 22.752 218.274 22.6293 218.7 22.384C219.138 22.1387 219.479 21.792 219.724 21.344C219.97 20.8853 220.092 20.3573 220.092 19.76C220.092 19.152 219.97 18.6293 219.724 18.192C219.479 17.744 219.138 17.3973 218.7 17.152C218.274 16.9067 217.788 16.784 217.244 16.784C216.7 16.784 216.215 16.9067 215.788 17.152C215.362 17.3973 215.02 17.744 214.764 18.192C214.508 18.6293 214.38 19.152 214.38 19.76C214.38 20.3573 214.508 20.8853 214.764 21.344C215.02 21.792 215.362 22.1387 215.788 22.384C216.215 22.6293 216.7 22.752 217.244 22.752ZM226.681 24.096C225.827 24.096 225.166 23.8667 224.697 23.408C224.227 22.9493 223.993 22.2933 223.993 21.44V13.664H225.529V21.376C225.529 21.8347 225.641 22.1867 225.865 22.432C226.099 22.6773 226.43 22.8 226.857 22.8C227.337 22.8 227.737 22.6667 228.057 22.4L228.537 23.504C228.302 23.7067 228.019 23.856 227.689 23.952C227.369 24.048 227.033 24.096 226.681 24.096ZM222.553 16.784V15.52H227.961V16.784H222.553ZM230.918 24.096C230.619 24.096 230.363 23.9947 230.15 23.792C229.936 23.5787 229.83 23.312 229.83 22.992C229.83 22.672 229.936 22.4107 230.15 22.208C230.363 22.0053 230.619 21.904 230.918 21.904C231.206 21.904 231.451 22.0053 231.654 22.208C231.867 22.4107 231.974 22.672 231.974 22.992C231.974 23.312 231.867 23.5787 231.654 23.792C231.451 23.9947 231.206 24.096 230.918 24.096ZM239.595 24V22.208L239.515 21.872V18.816C239.515 18.1653 239.323 17.664 238.939 17.312C238.566 16.9493 238 16.768 237.243 16.768C236.742 16.768 236.251 16.8533 235.771 17.024C235.291 17.184 234.886 17.4027 234.555 17.68L233.915 16.528C234.352 16.176 234.875 15.9093 235.483 15.728C236.102 15.536 236.747 15.44 237.419 15.44C238.582 15.44 239.478 15.7227 240.107 16.288C240.736 16.8533 241.051 17.7173 241.051 18.88V24H239.595ZM236.811 24.096C236.182 24.096 235.627 23.9893 235.147 23.776C234.678 23.5627 234.315 23.2693 234.059 22.896C233.803 22.512 233.675 22.08 233.675 21.6C233.675 21.1413 233.782 20.7253 233.995 20.352C234.219 19.9787 234.576 19.68 235.067 19.456C235.568 19.232 236.24 19.12 237.083 19.12H239.771V20.224H237.147C236.379 20.224 235.862 20.352 235.595 20.608C235.328 20.864 235.195 21.1733 235.195 21.536C235.195 21.952 235.36 22.288 235.691 22.544C236.022 22.7893 236.48 22.912 237.067 22.912C237.643 22.912 238.144 22.784 238.571 22.528C239.008 22.272 239.323 21.8987 239.515 21.408L239.819 22.464C239.616 22.9653 239.259 23.3653 238.747 23.664C238.235 23.952 237.59 24.096 236.811 24.096ZM243.894 24V15.52H245.43V24H243.894ZM244.662 13.888C244.363 13.888 244.112 13.792 243.91 13.6C243.718 13.408 243.622 13.1733 243.622 12.896C243.622 12.608 243.718 12.368 243.91 12.176C244.112 11.984 244.363 11.888 244.662 11.888C244.96 11.888 245.206 11.984 245.398 12.176C245.6 12.3573 245.702 12.5867 245.702 12.864C245.702 13.152 245.606 13.3973 245.414 13.6C245.222 13.792 244.971 13.888 244.662 13.888Z" fill="white"/>
</g>
<defs>
<filter id="filter0_b_21_607" x="33" y="-80" width="306" height="196" filterUnits="userSpaceOnUse" color-interpolation-filters="sRGB">
<feFlood flood-opacity="0" result="BackgroundImageFix"/>
<feGaussianBlur in="BackgroundImageFix" stdDeviation="40"/>
<feComposite in2="SourceAlpha" operator="in" result="effect1_backgroundBlur_21_607"/>
<feBlend mode="normal" in="SourceGraphic" in2="effect1_backgroundBlur_21_607" result="shape"/>
</filter>
</defs>
</svg>
