<svg width="274" height="141" viewBox="0 0 274 141" fill="none" xmlns="http://www.w3.org/2000/svg">
<g opacity="0.5">
<path fill-rule="evenodd" clip-rule="evenodd" d="M99.3761 24.3662C96.7787 24.3662 94.6731 26.4718 94.6731 29.0692V121.248C94.6731 123.845 96.7787 125.951 99.3761 125.951C101.973 125.951 104.079 123.845 104.079 121.248V29.0692C104.079 26.4718 101.973 24.3662 99.3761 24.3662ZM118.188 61.0496C115.591 61.0496 113.485 63.1551 113.485 65.7525V84.5644C113.485 87.1618 115.591 89.2674 118.188 89.2674C120.785 89.2674 122.891 87.1618 122.891 84.5644V65.7525C122.891 63.1552 120.785 61.0496 118.188 61.0496ZM75.8612 42.2372C75.8612 39.6398 77.9668 37.5342 80.5642 37.5342C83.1616 37.5342 85.2672 39.6398 85.2672 42.2372V108.079C85.2672 110.676 83.1616 112.782 80.5642 112.782C77.9668 112.782 75.8612 110.676 75.8612 108.079V42.2372ZM61.7523 59.1679C59.1549 59.1679 57.0493 61.2735 57.0493 63.8709V86.4452C57.0493 89.0426 59.1549 91.1482 61.7523 91.1482C64.3497 91.1482 66.4553 89.0426 66.4553 86.4452V63.8709C66.4553 61.2735 64.3497 59.1679 61.7523 59.1679ZM38.2373 46.9414C38.2373 44.344 40.3429 42.2384 42.9403 42.2384C45.5377 42.2384 47.6433 44.344 47.6433 46.9414V103.377C47.6433 105.974 45.5377 108.08 42.9403 108.08C40.3429 108.08 38.2373 105.974 38.2373 103.377V46.9414ZM24.1284 56.3472C21.531 56.3472 19.4254 58.4528 19.4254 61.0502V89.2681C19.4254 91.8655 21.531 93.9711 24.1284 93.9711C26.7258 93.9711 28.8314 91.8655 28.8314 89.2681V61.0502C28.8314 58.4528 26.7258 56.3472 24.1284 56.3472ZM0.613495 37.5349C0.613495 34.9375 2.71909 32.8319 5.31648 32.8319C7.91386 32.8319 10.0195 34.9375 10.0195 37.5349V112.782C10.0195 115.38 7.91386 117.485 5.31648 117.485C2.71909 117.485 0.613495 115.38 0.613495 112.782V37.5349ZM137 56.3472C134.403 56.3472 132.297 58.4528 132.297 61.0502V89.2681C132.297 91.8655 134.403 93.9711 137 93.9711C139.597 93.9711 141.703 91.8655 141.703 89.2681V61.0502C141.703 58.4528 139.597 56.3472 137 56.3472Z" fill="url(#paint0_linear_23_1628)"/>
<path fill-rule="evenodd" clip-rule="evenodd" d="M212.248 9.31641C209.65 9.31641 207.545 11.422 207.545 14.0194V136.297C207.545 138.894 209.65 141 212.248 141C214.845 141 216.951 138.894 216.951 136.297V14.0194C216.951 11.422 214.845 9.31641 212.248 9.31641ZM226.356 42.2371C226.356 39.6397 228.462 37.5341 231.059 37.5341C233.657 37.5341 235.762 39.6397 235.762 42.2371V108.079C235.762 110.676 233.657 112.782 231.059 112.782C228.462 112.782 226.356 110.676 226.356 108.079V42.2371ZM249.871 53.5247C247.274 53.5247 245.168 55.6303 245.168 58.2276V92.0891C245.168 94.6864 247.274 96.792 249.871 96.792C252.469 96.792 254.574 94.6864 254.574 92.0891V58.2276C254.574 55.6302 252.469 53.5247 249.871 53.5247ZM268.684 66.6926C266.086 66.6926 263.981 68.7982 263.981 71.3956V78.9204C263.981 81.5178 266.086 83.6234 268.684 83.6234C271.281 83.6234 273.387 81.5178 273.387 78.9204V71.3956C273.387 68.7982 271.281 66.6926 268.684 66.6926ZM188.733 46.9413C188.733 44.3439 190.838 42.2383 193.436 42.2383C196.033 42.2383 198.139 44.3439 198.139 46.9413V103.377C198.139 105.974 196.033 108.08 193.436 108.08C190.838 108.08 188.733 105.974 188.733 103.377V46.9413ZM174.624 31.891C172.027 31.891 169.921 33.9966 169.921 36.594V113.723C169.921 116.32 172.027 118.426 174.624 118.426C177.221 118.426 179.327 116.32 179.327 113.723V36.594C179.327 33.9966 177.221 31.891 174.624 31.891ZM151.109 58.2276C151.109 55.6303 153.214 53.5247 155.812 53.5247C158.409 53.5247 160.515 55.6302 160.515 58.2276V92.0891C160.515 94.6864 158.409 96.792 155.812 96.792C153.214 96.792 151.109 94.6864 151.109 92.0891V58.2276ZM137 46.9406C134.403 46.9406 132.297 49.0462 132.297 51.6436V98.6734C132.297 101.271 134.403 103.376 137 103.376C139.597 103.376 141.703 101.271 141.703 98.6734V51.6436C141.703 49.0462 139.597 46.9406 137 46.9406Z" fill="url(#paint1_linear_23_1628)"/>
</g>
<g filter="url(#filter0_b_23_1628)">
<path d="M127.943 12.1537C134.042 9.50418 140.968 9.50417 147.067 12.1537L174.876 24.2338L197.927 34.6212C206.451 38.4625 211.968 46.9042 212.065 56.2532L212.247 73.8417L212.065 91.4302C211.968 100.779 206.451 109.221 197.927 113.062L174.876 123.45L147.067 135.53C140.968 138.179 134.042 138.179 127.943 135.53L100.134 123.45L77.083 113.062C68.559 109.221 63.0416 100.779 62.9447 91.4302L62.7622 73.8417L62.9447 56.2532C63.0416 46.9042 68.559 38.4625 77.083 34.6212L100.134 24.2338L127.943 12.1537Z" fill="#303030" fill-opacity="0.12"/>
</g>
<g filter="url(#filter1_d_23_1628)">
<path fill-rule="evenodd" clip-rule="evenodd" d="M171.661 30.0238L143.901 17.9654C139.835 16.199 135.218 16.199 131.152 17.9654L103.392 30.0238L80.3915 40.3889C74.7088 42.9497 71.0306 48.5776 70.9659 54.8102L70.8729 63.7799C70.8502 65.9728 69.0661 67.7385 66.8731 67.7385C64.6478 67.7385 62.8502 65.9222 62.8733 63.697L62.9664 54.7273C63.0633 45.3782 68.5807 36.9365 77.1047 33.0953L100.155 22.7078L127.964 10.6278C134.064 7.97823 140.989 7.97823 147.089 10.6278L174.898 22.7078L197.948 33.0953C206.472 36.9365 211.99 45.3782 212.087 54.7273L212.269 72.3157L212.087 89.9042C211.99 99.2532 206.472 107.695 197.948 111.536L186.83 116.547C185.968 116.935 185.07 116.992 184.25 116.792C183.298 120.751 177.646 124.621 170.296 125.998C161.695 127.609 154.026 125.197 153.166 120.61C152.307 116.023 158.583 110.998 167.184 109.386C173.044 108.289 178.472 109.059 181.608 111.112C182.012 110.304 182.686 109.639 183.543 109.253L194.661 104.243C200.344 101.682 204.022 96.0539 204.087 89.8213L204.269 72.3157L204.087 54.8102C204.022 48.5775 200.344 42.9497 194.661 40.3889L171.661 30.0238ZM108.655 74.0757C114.489 74.0757 119.218 69.3465 119.218 63.5128C119.218 57.6791 114.489 52.95 108.655 52.95C102.821 52.95 98.092 57.6791 98.092 63.5128C98.092 69.3465 102.821 74.0757 108.655 74.0757ZM176.257 63.5128C176.257 69.3465 171.528 74.0757 165.694 74.0757C159.86 74.0757 155.131 69.3465 155.131 63.5128C155.131 57.6791 159.86 52.95 165.694 52.95C171.528 52.95 176.257 57.6791 176.257 63.5128Z" fill="white"/>
</g>
<defs>
<filter id="filter0_b_23_1628" x="50.7622" y="-1.8335" width="173.485" height="151.35" filterUnits="userSpaceOnUse" color-interpolation-filters="sRGB">
<feFlood flood-opacity="0" result="BackgroundImageFix"/>
<feGaussianBlur in="BackgroundImageFix" stdDeviation="6"/>
<feComposite in2="SourceAlpha" operator="in" result="effect1_backgroundBlur_23_1628"/>
<feBlend mode="normal" in="SourceGraphic" in2="effect1_backgroundBlur_23_1628" result="shape"/>
</filter>
<filter id="filter1_d_23_1628" x="54.8731" y="0.640625" width="165.396" height="133.857" filterUnits="userSpaceOnUse" color-interpolation-filters="sRGB">
<feFlood flood-opacity="0" result="BackgroundImageFix"/>
<feColorMatrix in="SourceAlpha" type="matrix" values="0 0 0 0 0 0 0 0 0 0 0 0 0 0 0 0 0 0 127 0" result="hardAlpha"/>
<feOffset/>
<feGaussianBlur stdDeviation="4"/>
<feColorMatrix type="matrix" values="0 0 0 0 1 0 0 0 0 1 0 0 0 0 1 0 0 0 1 0"/>
<feBlend mode="normal" in2="BackgroundImageFix" result="effect1_dropShadow_23_1628"/>
<feBlend mode="normal" in="SourceGraphic" in2="effect1_dropShadow_23_1628" result="shape"/>
</filter>
<linearGradient id="paint0_linear_23_1628" x1="0.613496" y1="75.1584" x2="141.703" y2="75.1584" gradientUnits="userSpaceOnUse">
<stop stop-color="#64E7FC"/>
<stop offset="1" stop-color="#63C6D4"/>
</linearGradient>
<linearGradient id="paint1_linear_23_1628" x1="132.297" y1="75.1581" x2="273.387" y2="75.1581" gradientUnits="userSpaceOnUse">
<stop stop-color="#64E7FC"/>
<stop offset="1" stop-color="#63C6D4"/>
</linearGradient>
</defs>
</svg>
