<svg width="180" height="138" viewBox="0 0 180 138" fill="none" xmlns="http://www.w3.org/2000/svg">
<g filter="url(#filter0_d_17_237)">
<path d="M82.2248 9.62226C87.1961 7.52463 92.8039 7.52463 97.7752 9.62226L127.57 22.1943L152.129 32.9445C159.336 36.0992 164.024 43.1859 164.108 51.0526L164.3 69L164.108 86.9474C164.024 94.8141 159.336 101.901 152.129 105.055L127.571 115.806L97.7752 128.378C92.804 130.475 87.1961 130.475 82.2248 128.378L52.4294 115.806L27.8708 105.055C20.6639 101.901 15.9759 94.8141 15.8919 86.9474L15.7002 69L15.8919 51.0526C15.9759 43.1859 20.6639 36.0992 27.8708 32.9445L52.4297 22.1943L82.2248 9.62226Z" stroke="white" stroke-width="8"/>
</g>
<g filter="url(#filter1_d_17_237)">
<path d="M114.818 65.7086C117.893 67.1458 117.893 71.519 114.818 72.9562L73.2652 92.3756C70.6131 93.6151 67.5716 91.6793 67.5716 88.7518V49.9129C67.5716 46.9855 70.6131 45.0497 73.2652 46.2892L114.818 65.7086Z" fill="white"/>
</g>
<defs>
<filter id="filter0_d_17_237" x="7.70001" y="0.0490723" width="164.6" height="137.902" filterUnits="userSpaceOnUse" color-interpolation-filters="sRGB">
<feFlood flood-opacity="0" result="BackgroundImageFix"/>
<feColorMatrix in="SourceAlpha" type="matrix" values="0 0 0 0 0 0 0 0 0 0 0 0 0 0 0 0 0 0 127 0" result="hardAlpha"/>
<feMorphology radius="4" operator="erode" in="SourceAlpha" result="effect1_dropShadow_17_237"/>
<feOffset/>
<feGaussianBlur stdDeviation="4"/>
<feColorMatrix type="matrix" values="0 0 0 0 1 0 0 0 0 1 0 0 0 0 1 0 0 0 1 0"/>
<feBlend mode="normal" in2="BackgroundImageFix" result="effect1_dropShadow_17_237"/>
<feBlend mode="normal" in="SourceGraphic" in2="effect1_dropShadow_17_237" result="shape"/>
</filter>
<filter id="filter1_d_17_237" x="63.5716" y="41.9082" width="57.5526" height="54.8484" filterUnits="userSpaceOnUse" color-interpolation-filters="sRGB">
<feFlood flood-opacity="0" result="BackgroundImageFix"/>
<feColorMatrix in="SourceAlpha" type="matrix" values="0 0 0 0 0 0 0 0 0 0 0 0 0 0 0 0 0 0 127 0" result="hardAlpha"/>
<feMorphology radius="4" operator="erode" in="SourceAlpha" result="effect1_dropShadow_17_237"/>
<feOffset/>
<feGaussianBlur stdDeviation="4"/>
<feColorMatrix type="matrix" values="0 0 0 0 1 0 0 0 0 1 0 0 0 0 1 0 0 0 1 0"/>
<feBlend mode="normal" in2="BackgroundImageFix" result="effect1_dropShadow_17_237"/>
<feBlend mode="normal" in="SourceGraphic" in2="effect1_dropShadow_17_237" result="shape"/>
</filter>
</defs>
</svg>
