<svg width="244" height="191" viewBox="0 0 244 191" fill="none" xmlns="http://www.w3.org/2000/svg">
<g filter="url(#filter0_d_3_581)">
<path d="M114.032 9.82253C119.114 7.61457 124.886 7.61457 129.968 9.82254L173.452 28.7113L212.032 46.0972C219.136 49.2982 223.734 56.333 223.814 64.1238L224.14 95.5L223.814 126.876C223.734 134.667 219.136 141.702 212.032 144.903L173.452 162.289L129.968 181.177C124.886 183.385 119.114 183.385 114.032 181.177L70.5488 162.289L31.9676 144.903C24.8643 141.702 20.2665 134.667 20.1857 126.876L19.8602 95.5L20.1857 64.1238C20.2665 56.333 24.8643 49.2982 31.9676 46.0972L70.5487 28.7111L114.032 9.82253Z" stroke="white" stroke-width="8"/>
</g>
<path fill-rule="evenodd" clip-rule="evenodd" d="M78 49C78 46.7909 79.7909 45 82 45C84.2091 45 86 46.7909 86 49V69.1446C86 69.7603 85.449 70.2283 84.8373 70.1592C83.9061 70.054 82.9593 70 82 70C81.0407 70 80.0939 70.054 79.1627 70.1592C78.551 70.2283 78 69.7603 78 69.1446V49ZM65.6432 76.093C65.8675 75.8988 66 75.6183 66 75.3216V64C66 61.7909 64.2091 60 62 60C59.7909 60 58 61.7909 58 64V80.9879C58 82.144 60.2525 82.6065 60.8716 81.6302C62.1856 79.558 63.796 77.6924 65.6432 76.093ZM60.8716 108.37C60.2525 107.393 58 107.856 58 109.012V126C58 128.209 59.7909 130 62 130C64.2091 130 66 128.209 66 126V114.678C66 114.382 65.8675 114.101 65.6432 113.907C63.796 112.308 62.1856 110.442 60.8716 108.37ZM79.1627 119.841C78.551 119.772 78 120.24 78 120.855V141C78 143.209 79.7909 145 82 145C84.2091 145 86 143.209 86 141V120.855C86 120.24 85.449 119.772 84.8373 119.841C83.9061 119.946 82.9593 120 82 120C81.0407 120 80.0939 119.946 79.1627 119.841ZM98.3568 113.907C98.1325 114.101 98 114.382 98 114.678V126C98 128.209 99.7909 130 102 130C104.209 130 106 128.209 106 126V109.012C106 107.856 103.747 107.393 103.128 108.37C101.814 110.442 100.204 112.308 98.3568 113.907ZM103.128 81.6302C103.747 82.6065 106 82.144 106 80.9879V64C106 61.7909 104.209 60 102 60C99.7909 60 98 61.7909 98 64V75.3216C98 75.6183 98.1325 75.8988 98.3568 76.093C100.204 77.6924 101.814 79.558 103.128 81.6302ZM118 59C118 56.7909 119.791 55 122 55C124.209 55 126 56.7909 126 59V131C126 133.209 124.209 135 122 135C119.791 135 118 133.209 118 131V59ZM158 59C158 56.7909 159.791 55 162 55C164.209 55 166 56.7909 166 59V69.1446C166 69.7603 165.449 70.2283 164.837 70.1592C163.906 70.054 162.959 70 162 70C161.041 70 160.094 70.054 159.163 70.1592C158.551 70.2283 158 69.7603 158 69.1446V59ZM145.643 76.093C145.867 75.8988 146 75.6183 146 75.3216V69C146 66.7909 144.209 65 142 65C139.791 65 138 66.7909 138 69V80.9879C138 82.144 140.253 82.6065 140.872 81.6302C142.186 79.558 143.796 77.6924 145.643 76.093ZM138 109.012C138 107.856 140.253 107.393 140.872 108.37C142.186 110.442 143.796 112.308 145.643 113.907C145.867 114.101 146 114.382 146 114.678V121C146 123.209 144.209 125 142 125C139.791 125 138 123.209 138 121V109.012ZM158 120.855C158 120.24 158.551 119.772 159.163 119.841C160.094 119.946 161.041 120 162 120C162.959 120 163.906 119.946 164.837 119.841C165.449 119.772 166 120.24 166 120.855V131C166 133.209 164.209 135 162 135C159.791 135 158 133.209 158 131V120.855ZM178.357 113.907C178.133 114.101 178 114.382 178 114.678V131C178 133.209 179.791 135 182 135C184.209 135 186 133.209 186 131V109.012C186 107.856 183.747 107.393 183.128 108.37C181.814 110.442 180.204 112.308 178.357 113.907ZM183.128 81.6302C183.747 82.6065 186 82.144 186 80.9879V59C186 56.7909 184.209 55 182 55C179.791 55 178 56.7909 178 59V75.3216C178 75.6183 178.133 75.8988 178.357 76.093C180.204 77.6924 181.814 79.558 183.128 81.6302ZM38 89C38 86.7909 39.7909 85 42 85C44.2091 85 46 86.7909 46 89V101C46 103.209 44.2091 105 42 105C39.7909 105 38 103.209 38 101V89ZM202 65C199.791 65 198 66.7909 198 69V121C198 123.209 199.791 125 202 125C204.209 125 206 123.209 206 121V69C206 66.7909 204.209 65 202 65Z" fill="#37E4FF"/>
<g filter="url(#filter1_d_3_581)">
<circle cx="82" cy="95" r="15" fill="white"/>
</g>
<g filter="url(#filter2_d_3_581)">
<circle cx="163" cy="95" r="15" fill="white"/>
</g>
<defs>
<filter id="filter0_d_3_581" x="11.86" y="0.166504" width="220.28" height="190.667" filterUnits="userSpaceOnUse" color-interpolation-filters="sRGB">
<feFlood flood-opacity="0" result="BackgroundImageFix"/>
<feColorMatrix in="SourceAlpha" type="matrix" values="0 0 0 0 0 0 0 0 0 0 0 0 0 0 0 0 0 0 127 0" result="hardAlpha"/>
<feMorphology radius="4" operator="erode" in="SourceAlpha" result="effect1_dropShadow_3_581"/>
<feOffset/>
<feGaussianBlur stdDeviation="4"/>
<feColorMatrix type="matrix" values="0 0 0 0 1 0 0 0 0 1 0 0 0 0 1 0 0 0 1 0"/>
<feBlend mode="normal" in2="BackgroundImageFix" result="effect1_dropShadow_3_581"/>
<feBlend mode="normal" in="SourceGraphic" in2="effect1_dropShadow_3_581" result="shape"/>
</filter>
<filter id="filter1_d_3_581" x="47" y="60" width="70" height="70" filterUnits="userSpaceOnUse" color-interpolation-filters="sRGB">
<feFlood flood-opacity="0" result="BackgroundImageFix"/>
<feColorMatrix in="SourceAlpha" type="matrix" values="0 0 0 0 0 0 0 0 0 0 0 0 0 0 0 0 0 0 127 0" result="hardAlpha"/>
<feMorphology radius="4" operator="erode" in="SourceAlpha" result="effect1_dropShadow_3_581"/>
<feOffset/>
<feGaussianBlur stdDeviation="12"/>
<feComposite in2="hardAlpha" operator="out"/>
<feColorMatrix type="matrix" values="0 0 0 0 1 0 0 0 0 1 0 0 0 0 1 0 0 0 1 0"/>
<feBlend mode="normal" in2="BackgroundImageFix" result="effect1_dropShadow_3_581"/>
<feBlend mode="normal" in="SourceGraphic" in2="effect1_dropShadow_3_581" result="shape"/>
</filter>
<filter id="filter2_d_3_581" x="128" y="60" width="70" height="70" filterUnits="userSpaceOnUse" color-interpolation-filters="sRGB">
<feFlood flood-opacity="0" result="BackgroundImageFix"/>
<feColorMatrix in="SourceAlpha" type="matrix" values="0 0 0 0 0 0 0 0 0 0 0 0 0 0 0 0 0 0 127 0" result="hardAlpha"/>
<feMorphology radius="4" operator="erode" in="SourceAlpha" result="effect1_dropShadow_3_581"/>
<feOffset/>
<feGaussianBlur stdDeviation="12"/>
<feComposite in2="hardAlpha" operator="out"/>
<feColorMatrix type="matrix" values="0 0 0 0 1 0 0 0 0 1 0 0 0 0 1 0 0 0 1 0"/>
<feBlend mode="normal" in2="BackgroundImageFix" result="effect1_dropShadow_3_581"/>
<feBlend mode="normal" in="SourceGraphic" in2="effect1_dropShadow_3_581" result="shape"/>
</filter>
</defs>
</svg>
