<svg width="65" height="56" viewBox="0 0 65 56" fill="none" xmlns="http://www.w3.org/2000/svg">
<g filter="url(#filter0_d_9_904)">
<path fill-rule="evenodd" clip-rule="evenodd" d="M43.1546 14.1757L33.6382 10.0419C32.7478 9.65512 31.7368 9.65512 30.8464 10.0419L21.3301 14.1757L12.8871 17.9805C11.6427 18.5412 10.8372 19.7736 10.8231 21.1384L10.7519 28L10.8231 34.8616C10.8372 36.2264 11.6427 37.4588 12.8871 38.0195L21.3299 41.8242L30.8464 45.9581C31.7368 46.3449 32.7478 46.3449 33.6382 45.9581L43.1547 41.8242L51.5975 38.0195C52.8419 37.4588 53.6474 36.2264 53.6615 34.8616L53.7327 28L53.6615 21.1384C53.6474 19.7736 52.8419 18.5412 51.5975 17.9805L43.1546 14.1757ZM43.8635 12.5737L34.3362 8.43515C33.0006 7.85495 31.4841 7.85495 30.1484 8.43515L20.6212 12.5737L12.1673 16.3833C10.3008 17.2245 9.09259 19.073 9.07136 21.1202L9 28L9.07136 34.8798C9.09259 36.927 10.3008 38.7755 12.1673 39.6167L20.6212 43.4263L30.1484 47.5648C31.4841 48.145 33.0006 48.145 34.3362 47.5648L43.8635 43.4263L52.3173 39.6167C54.1838 38.7755 55.392 36.927 55.4133 34.8798L55.4846 28L55.4133 21.1202C55.392 19.073 54.1838 17.2245 52.3173 16.3833L43.8635 12.5737Z" fill="white"/>
</g>
<path fill-rule="evenodd" clip-rule="evenodd" d="M31.3664 13.438C31.3664 12.9542 31.7585 12.5621 32.2423 12.5621C32.726 12.5621 33.1182 12.9542 33.1182 13.438V42.3431C33.1182 42.8268 32.726 43.219 32.2423 43.219C31.7585 43.219 31.3664 42.8268 31.3664 42.3431V13.438ZM40.1255 15.6278C40.1255 15.144 40.5176 14.7519 41.0014 14.7519C41.4851 14.7519 41.8773 15.144 41.8773 15.6278V21.6062C41.8773 22.0676 41.4628 22.4161 41.0014 22.4161C40.54 22.4161 40.1255 22.0675 40.1255 21.6061V15.6278ZM37.345 23.8161C37.4409 23.73 37.4978 23.6095 37.4978 23.4806V20.0073C37.4978 19.5236 37.1056 19.1314 36.6218 19.1314C36.1381 19.1314 35.7459 19.5236 35.7459 20.0073V23.3168C35.7459 23.819 36.9714 24.1517 37.345 23.8161ZM35.7459 32.4643C35.7459 31.9621 36.9714 31.6294 37.345 31.9649C37.4409 32.051 37.4978 32.1716 37.4978 32.3004V35.7737C37.4978 36.2575 37.1056 36.6496 36.6218 36.6496C36.1381 36.6496 35.7459 36.2575 35.7459 35.7737V32.4643ZM40.1255 34.1749C40.1255 33.7135 40.54 33.365 41.0014 33.365C41.4628 33.365 41.8773 33.7135 41.8773 34.1748V40.1533C41.8773 40.637 41.4851 41.0292 41.0014 41.0292C40.5176 41.0292 40.1255 40.637 40.1255 40.1533V34.1749ZM44.6578 31.965C44.5619 32.0511 44.505 32.1717 44.505 32.3006V36.8686C44.505 37.3524 44.8972 37.7445 45.381 37.7445C45.8647 37.7445 46.2569 37.3524 46.2569 36.8686V32.4643C46.2569 31.9621 45.0315 31.6294 44.6578 31.965ZM44.6578 23.8161C45.0315 24.1516 46.2569 23.8189 46.2569 23.3167V18.9124C46.2569 18.4287 45.8647 18.0365 45.381 18.0365C44.8972 18.0365 44.505 18.4287 44.505 18.9124V23.4805C44.505 23.6094 44.5619 23.73 44.6578 23.8161ZM27.8627 20.2263C27.379 20.2263 26.9868 20.6185 26.9868 21.1022V23.4805C26.9868 23.6094 27.0437 23.73 27.1396 23.8161C27.5133 24.1516 28.7386 23.8189 28.7386 23.3167V21.1022C28.7386 20.6185 28.3465 20.2263 27.8627 20.2263ZM28.7386 32.4643C28.7386 31.9621 27.5133 31.6294 27.1396 31.9649C27.0437 32.0511 26.9868 32.1717 26.9868 32.3005V34.6788C26.9868 35.1626 27.379 35.5547 27.8627 35.5547C28.3465 35.5547 28.7386 35.1626 28.7386 34.6788V32.4643ZM24.3591 34.1749C24.3591 33.7135 23.9446 33.365 23.4832 33.365C23.0218 33.365 22.6073 33.7135 22.6073 34.1749V40.1533C22.6073 40.637 22.9994 41.0292 23.4832 41.0292C23.9669 41.0292 24.3591 40.637 24.3591 40.1533V34.1749ZM19.9795 32.3005C19.9795 32.1716 19.9227 32.051 19.8268 31.9649C19.4531 31.6294 18.2277 31.9621 18.2277 32.4643V36.8686C18.2277 37.3524 18.6199 37.7445 19.1036 37.7445C19.5874 37.7445 19.9795 37.3524 19.9795 36.8686V32.3005ZM18.2277 23.3168C18.2277 23.819 19.4531 24.1517 19.8268 23.8161C19.9227 23.73 19.9795 23.6094 19.9795 23.4806V18.9124C19.9795 18.4287 19.5874 18.0365 19.1036 18.0365C18.6199 18.0365 18.2277 18.4287 18.2277 18.9124V23.3168ZM23.4832 22.4161C23.0218 22.4161 22.6073 22.0675 22.6073 21.6061V15.6278C22.6073 15.144 22.9994 14.7519 23.4832 14.7519C23.9669 14.7519 24.3591 15.144 24.3591 15.6278V21.6062C24.3591 22.0676 23.9446 22.4161 23.4832 22.4161ZM13.8481 22.1971C13.8481 21.7133 14.2403 21.3212 14.7241 21.3212C15.2078 21.3212 15.6 21.7133 15.6 22.1971V33.5839C15.6 34.0677 15.2078 34.4599 14.7241 34.4599C14.2403 34.4599 13.8481 34.0677 13.8481 33.5839V22.1971ZM49.7605 23.511C49.2768 23.511 48.8846 23.9031 48.8846 24.3869V31.3942C48.8846 31.8779 49.2768 32.2701 49.7605 32.2701C50.2443 32.2701 50.6364 31.8779 50.6364 31.3942V24.3869C50.6364 23.9031 50.2443 23.511 49.7605 23.511Z" fill="#37E4FF"/>
<g filter="url(#filter1_d_9_904)">
<circle cx="23.4832" cy="27.8905" r="3.28467" fill="white"/>
</g>
<g filter="url(#filter2_d_9_904)">
<circle cx="41.2204" cy="27.8905" r="3.28467" fill="white"/>
</g>
<defs>
<filter id="filter0_d_9_904" x="1" y="0" width="62.4846" height="56" filterUnits="userSpaceOnUse" color-interpolation-filters="sRGB">
<feFlood flood-opacity="0" result="BackgroundImageFix"/>
<feColorMatrix in="SourceAlpha" type="matrix" values="0 0 0 0 0 0 0 0 0 0 0 0 0 0 0 0 0 0 127 0" result="hardAlpha"/>
<feOffset/>
<feGaussianBlur stdDeviation="4"/>
<feColorMatrix type="matrix" values="0 0 0 0 1 0 0 0 0 1 0 0 0 0 1 0 0 0 1 0"/>
<feBlend mode="normal" in2="BackgroundImageFix" result="effect1_dropShadow_9_904"/>
<feBlend mode="normal" in="SourceGraphic" in2="effect1_dropShadow_9_904" result="shape"/>
</filter>
<filter id="filter1_d_9_904" x="0.198547" y="4.60583" width="46.5693" height="46.5693" filterUnits="userSpaceOnUse" color-interpolation-filters="sRGB">
<feFlood flood-opacity="0" result="BackgroundImageFix"/>
<feColorMatrix in="SourceAlpha" type="matrix" values="0 0 0 0 0 0 0 0 0 0 0 0 0 0 0 0 0 0 127 0" result="hardAlpha"/>
<feMorphology radius="4" operator="erode" in="SourceAlpha" result="effect1_dropShadow_9_904"/>
<feOffset/>
<feGaussianBlur stdDeviation="12"/>
<feComposite in2="hardAlpha" operator="out"/>
<feColorMatrix type="matrix" values="0 0 0 0 1 0 0 0 0 1 0 0 0 0 1 0 0 0 1 0"/>
<feBlend mode="normal" in2="BackgroundImageFix" result="effect1_dropShadow_9_904"/>
<feBlend mode="normal" in="SourceGraphic" in2="effect1_dropShadow_9_904" result="shape"/>
</filter>
<filter id="filter2_d_9_904" x="17.9357" y="4.60583" width="46.5693" height="46.5693" filterUnits="userSpaceOnUse" color-interpolation-filters="sRGB">
<feFlood flood-opacity="0" result="BackgroundImageFix"/>
<feColorMatrix in="SourceAlpha" type="matrix" values="0 0 0 0 0 0 0 0 0 0 0 0 0 0 0 0 0 0 127 0" result="hardAlpha"/>
<feMorphology radius="4" operator="erode" in="SourceAlpha" result="effect1_dropShadow_9_904"/>
<feOffset/>
<feGaussianBlur stdDeviation="12"/>
<feComposite in2="hardAlpha" operator="out"/>
<feColorMatrix type="matrix" values="0 0 0 0 1 0 0 0 0 1 0 0 0 0 1 0 0 0 1 0"/>
<feBlend mode="normal" in2="BackgroundImageFix" result="effect1_dropShadow_9_904"/>
<feBlend mode="normal" in="SourceGraphic" in2="effect1_dropShadow_9_904" result="shape"/>
</filter>
</defs>
</svg>
