<svg width="40" height="40" viewBox="0 0 40 40" fill="none" xmlns="http://www.w3.org/2000/svg">
<rect width="40" height="40" rx="16" fill="#303030" fill-opacity="0.5"/>
<path d="M10.4521 10H12.1921C13.2721 10 14.1221 10.93 14.0321 12L13.2021 21.96C13.1697 22.3459 13.2178 22.7342 13.3433 23.1005C13.4689 23.4669 13.6691 23.8031 13.9314 24.0879C14.1937 24.3728 14.5123 24.6001 14.867 24.7553C15.2218 24.9106 15.6049 24.9905 15.9921 24.99H26.6421C28.0821 24.99 29.3421 23.81 29.4521 22.38L29.9921 14.88C30.1121 13.22 28.8521 11.87 27.1821 11.87H14.2721M17.4521 16H29.4521M24.7021 30C25.0336 30 25.3516 29.8683 25.586 29.6339C25.8204 29.3995 25.9521 29.0815 25.9521 28.75C25.9521 28.4185 25.8204 28.1005 25.586 27.8661C25.3516 27.6317 25.0336 27.5 24.7021 27.5C24.3706 27.5 24.0526 27.6317 23.8182 27.8661C23.5838 28.1005 23.4521 28.4185 23.4521 28.75C23.4521 29.0815 23.5838 29.3995 23.8182 29.6339C24.0526 29.8683 24.3706 30 24.7021 30ZM16.7021 30C17.0336 30 17.3516 29.8683 17.586 29.6339C17.8204 29.3995 17.9521 29.0815 17.9521 28.75C17.9521 28.4185 17.8204 28.1005 17.586 27.8661C17.3516 27.6317 17.0336 27.5 16.7021 27.5C16.3706 27.5 16.0526 27.6317 15.8182 27.8661C15.5838 28.1005 15.4521 28.4185 15.4521 28.75C15.4521 29.0815 15.5838 29.3995 15.8182 29.6339C16.0526 29.8683 16.3706 30 16.7021 30Z" stroke="#37E4FF" stroke-width="1.5" stroke-miterlimit="10" stroke-linecap="round" stroke-linejoin="round"/>
</svg>
