<svg width="116" height="96" viewBox="0 0 116 96" fill="none" xmlns="http://www.w3.org/2000/svg">
<g filter="url(#filter0_b_21_491)">
<path d="M51.8591 10.2171C55.7762 8.5943 60.2238 8.59429 64.1409 10.2171L82 17.6159L96.8031 23.9781C102.277 26.3308 105.821 31.5012 105.883 37.2273L106 48L105.883 58.7727C105.821 64.4988 102.277 69.6692 96.8031 72.0219L82 78.384L64.1409 85.7829C60.2238 87.4057 55.7762 87.4057 51.8591 85.7829L34 78.384L19.1969 72.0219C13.7227 69.6692 10.1794 64.4988 10.1172 58.7727L10 48L10.1172 37.2273C10.1794 31.5012 13.7227 26.3308 19.1969 23.9781L34 17.6159L51.8591 10.2171Z" fill="#303030" fill-opacity="0.12"/>
</g>
<g filter="url(#filter1_d_21_491)">
<path fill-rule="evenodd" clip-rule="evenodd" d="M80.9826 21.438L61.972 13.7019C59.4324 12.6684 56.5676 12.6684 54.028 13.7019L35.0173 21.438L19.3504 28.0519C15.6688 29.6062 13.2738 33.0977 13.2309 36.9734L13.1088 48L13.2309 59.0266C13.2738 62.9023 15.6688 66.3938 19.3504 67.9481L35.0174 74.562L54.028 82.2981C56.5676 83.3316 59.4324 83.3316 61.972 82.2981L80.9825 74.562L96.6496 67.9481C100.331 66.3938 102.726 62.9023 102.769 59.0266L102.891 48L102.769 36.9734C102.726 33.0977 100.331 29.6062 96.6496 28.0519L80.9826 21.438ZM83 16.9115L63.958 9.16264C60.1486 7.61246 55.8514 7.61245 52.042 9.16264L33 16.9115L17.3019 23.5386C11.7794 25.87 8.18704 31.1072 8.12267 36.9208L8 48L8.12267 59.0792C8.18704 64.8928 11.7794 70.13 17.3019 72.4614L33 79.0885L52.042 86.8374C55.8514 88.3875 60.1486 88.3875 63.958 86.8374L83 79.0885L98.6981 72.4614C104.221 70.13 107.813 64.8928 107.877 59.0792L108 48L107.877 36.9208C107.813 31.1072 104.221 25.87 98.6981 23.5386L83 16.9115Z" fill="white"/>
</g>
<path d="M40.6154 43.9509V35.1509C40.6154 34.1803 40.9034 33.4069 41.4794 32.8309C42.0554 32.2443 42.8767 31.9509 43.9434 31.9509C44.306 31.9509 44.6527 31.9883 44.9834 32.0629C45.3247 32.1376 45.6127 32.2549 45.8474 32.4149L45.1914 34.2229C45.0527 34.1269 44.898 34.0523 44.7274 33.9989C44.5567 33.9456 44.3754 33.9189 44.1834 33.9189C43.8207 33.9189 43.538 34.0256 43.3354 34.2389C43.1434 34.4416 43.0474 34.7509 43.0474 35.1669V35.9669L43.1114 37.0389V43.9509H40.6154ZM39.2874 37.4549V35.5349H45.2554V37.4549H39.2874ZM46.5614 43.9509V35.3429H48.9454V37.7749L48.6094 37.0709C48.8654 36.4629 49.276 36.0043 49.8414 35.6949C50.4067 35.3749 51.0947 35.2149 51.9054 35.2149V37.5189C51.7987 37.5083 51.7027 37.5029 51.6174 37.5029C51.532 37.4923 51.4414 37.4869 51.3454 37.4869C50.6627 37.4869 50.108 37.6843 49.6814 38.0789C49.2654 38.4629 49.0574 39.0656 49.0574 39.8869V43.9509H46.5614ZM57.423 44.0789C56.5057 44.0789 55.6897 43.8869 54.975 43.5029C54.271 43.1189 53.711 42.5963 53.295 41.9349C52.8897 41.2629 52.687 40.5003 52.687 39.6469C52.687 38.7829 52.8897 38.0203 53.295 37.3589C53.711 36.6869 54.271 36.1643 54.975 35.7909C55.6897 35.4069 56.5057 35.2149 57.423 35.2149C58.3297 35.2149 59.1403 35.4069 59.855 35.7909C60.5697 36.1643 61.1297 36.6816 61.535 37.3429C61.9403 38.0043 62.143 38.7723 62.143 39.6469C62.143 40.5003 61.9403 41.2629 61.535 41.9349C61.1297 42.5963 60.5697 43.1189 59.855 43.5029C59.1403 43.8869 58.3297 44.0789 57.423 44.0789ZM57.423 42.0309C57.839 42.0309 58.2123 41.9349 58.543 41.7429C58.8737 41.5509 59.135 41.2789 59.327 40.9269C59.519 40.5643 59.615 40.1376 59.615 39.6469C59.615 39.1456 59.519 38.7189 59.327 38.3669C59.135 38.0149 58.8737 37.7429 58.543 37.5509C58.2123 37.3589 57.839 37.2629 57.423 37.2629C57.007 37.2629 56.6337 37.3589 56.303 37.5509C55.9723 37.7429 55.7057 38.0149 55.503 38.3669C55.311 38.7189 55.215 39.1456 55.215 39.6469C55.215 40.1376 55.311 40.5643 55.503 40.9269C55.7057 41.2789 55.9723 41.5509 56.303 41.7429C56.6337 41.9349 57.007 42.0309 57.423 42.0309ZM74.8354 35.2149C75.518 35.2149 76.1207 35.3536 76.6434 35.6309C77.1767 35.8976 77.5927 36.3136 77.8914 36.8789C78.2007 37.4336 78.3554 38.1483 78.3554 39.0229V43.9509H75.8594V39.4069C75.8594 38.7136 75.7154 38.2016 75.4274 37.8709C75.1394 37.5403 74.734 37.3749 74.2114 37.3749C73.8487 37.3749 73.5234 37.4603 73.2354 37.6309C72.9474 37.7909 72.7234 38.0363 72.5634 38.3669C72.4034 38.6976 72.3234 39.1189 72.3234 39.6309V43.9509H69.8274V39.4069C69.8274 38.7136 69.6834 38.2016 69.3954 37.8709C69.118 37.5403 68.718 37.3749 68.1954 37.3749C67.8327 37.3749 67.5074 37.4603 67.2194 37.6309C66.9314 37.7909 66.7074 38.0363 66.5474 38.3669C66.3874 38.6976 66.3074 39.1189 66.3074 39.6309V43.9509H63.8114V35.3429H66.1954V37.6949L65.7474 37.0069C66.046 36.4203 66.4674 35.9776 67.0114 35.6789C67.566 35.3696 68.1954 35.2149 68.8994 35.2149C69.6887 35.2149 70.3767 35.4176 70.9634 35.8229C71.5607 36.2176 71.9554 36.8256 72.1474 37.6469L71.2674 37.4069C71.5554 36.7349 72.014 36.2016 72.6434 35.8069C73.2834 35.4123 74.014 35.2149 74.8354 35.2149Z" fill="white"/>
<path d="M32.5638 64.1429C31.7851 64.1429 31.0118 64.0416 30.2438 63.8389C29.4758 63.6256 28.8251 63.3269 28.2918 62.9429L29.2998 60.9589C29.7265 61.2683 30.2225 61.5136 30.7878 61.6949C31.3531 61.8763 31.9238 61.9669 32.4998 61.9669C33.1505 61.9669 33.6625 61.8389 34.0358 61.5829C34.4091 61.3269 34.5958 60.9749 34.5958 60.5269C34.5958 60.1003 34.4305 59.7643 34.0998 59.5189C33.7691 59.2736 33.2358 59.1509 32.4998 59.1509H31.3158V57.4389L34.4358 53.9029L34.7238 54.8309H28.8518V52.7509H36.6918V54.4309L33.5878 57.9669L32.2758 57.2149H33.0278C34.4038 57.2149 35.4438 57.5243 36.1478 58.1429C36.8518 58.7616 37.2038 59.5563 37.2038 60.5269C37.2038 61.1563 37.0385 61.7483 36.7078 62.3029C36.3771 62.8469 35.8705 63.2896 35.1878 63.6309C34.5051 63.9723 33.6305 64.1429 32.5638 64.1429ZM48.6918 55.2149C49.3745 55.2149 49.9825 55.3536 50.5158 55.6309C51.0598 55.8976 51.4865 56.3136 51.7958 56.8789C52.1051 57.4336 52.2598 58.1483 52.2598 59.0229V63.9509H49.7638V59.4069C49.7638 58.7136 49.6091 58.2016 49.2998 57.8709C49.0011 57.5403 48.5745 57.3749 48.0198 57.3749C47.6251 57.3749 47.2678 57.4603 46.9478 57.6309C46.6385 57.7909 46.3931 58.0416 46.2118 58.3829C46.0411 58.7243 45.9558 59.1616 45.9558 59.6949V63.9509H43.4598V52.0789H45.9558V57.7269L45.3958 57.0069C45.7051 56.4309 46.1478 55.9883 46.7238 55.6789C47.2998 55.3696 47.9558 55.2149 48.6918 55.2149ZM58.6808 64.0789C57.7635 64.0789 56.9475 63.8869 56.2328 63.5029C55.5288 63.1189 54.9688 62.5963 54.5528 61.9349C54.1475 61.2629 53.9448 60.5003 53.9448 59.6469C53.9448 58.7829 54.1475 58.0203 54.5528 57.3589C54.9688 56.6869 55.5288 56.1643 56.2328 55.7909C56.9475 55.4069 57.7635 55.2149 58.6808 55.2149C59.5875 55.2149 60.3981 55.4069 61.1128 55.7909C61.8275 56.1643 62.3875 56.6816 62.7928 57.3429C63.1981 58.0043 63.4008 58.7723 63.4008 59.6469C63.4008 60.5003 63.1981 61.2629 62.7928 61.9349C62.3875 62.5963 61.8275 63.1189 61.1128 63.5029C60.3981 63.8869 59.5875 64.0789 58.6808 64.0789ZM58.6808 62.0309C59.0968 62.0309 59.4701 61.9349 59.8008 61.7429C60.1315 61.5509 60.3928 61.2789 60.5848 60.9269C60.7768 60.5643 60.8728 60.1376 60.8728 59.6469C60.8728 59.1456 60.7768 58.7189 60.5848 58.3669C60.3928 58.0149 60.1315 57.7429 59.8008 57.5509C59.4701 57.3589 59.0968 57.2629 58.6808 57.2629C58.2648 57.2629 57.8915 57.3589 57.5608 57.5509C57.2301 57.7429 56.9635 58.0149 56.7608 58.3669C56.5688 58.7189 56.4728 59.1456 56.4728 59.6469C56.4728 60.1376 56.5688 60.5643 56.7608 60.9269C56.9635 61.2789 57.2301 61.5509 57.5608 61.7429C57.8915 61.9349 58.2648 62.0309 58.6808 62.0309ZM68.7012 64.0789C67.9865 64.0789 67.3465 63.9403 66.7812 63.6629C66.2265 63.3856 65.7945 62.9643 65.4852 62.3989C65.1758 61.8229 65.0212 61.0923 65.0212 60.2069V55.3429H67.5172V59.8389C67.5172 60.5536 67.6665 61.0816 67.9652 61.4229C68.2745 61.7536 68.7065 61.9189 69.2612 61.9189C69.6452 61.9189 69.9865 61.8389 70.2852 61.6789C70.5838 61.5083 70.8185 61.2523 70.9892 60.9109C71.1598 60.5589 71.2452 60.1216 71.2452 59.5989V55.3429H73.7412V63.9509H71.3732V61.5829L71.8052 62.2709C71.5172 62.8683 71.0905 63.3216 70.5252 63.6309C69.9705 63.9296 69.3625 64.0789 68.7012 64.0789ZM76.0536 63.9509V55.3429H78.4376V57.7749L78.1016 57.0709C78.3576 56.4629 78.7682 56.0043 79.3336 55.6949C79.8989 55.3749 80.5869 55.2149 81.3976 55.2149V57.5189C81.2909 57.5083 81.1949 57.5029 81.1096 57.5029C81.0242 57.4923 80.9336 57.4869 80.8376 57.4869C80.1549 57.4869 79.6002 57.6843 79.1736 58.0789C78.7576 58.4629 78.5496 59.0656 78.5496 59.8869V63.9509H76.0536ZM85.8402 64.0789C85.1042 64.0789 84.3948 63.9936 83.7122 63.8229C83.0402 63.6416 82.5068 63.4176 82.1122 63.1509L82.9442 61.3589C83.3388 61.6043 83.8028 61.8069 84.3362 61.9669C84.8802 62.1163 85.4135 62.1909 85.9362 62.1909C86.5122 62.1909 86.9175 62.1216 87.1522 61.9829C87.3975 61.8443 87.5202 61.6523 87.5202 61.4069C87.5202 61.2043 87.4242 61.0549 87.2322 60.9589C87.0508 60.8523 86.8055 60.7723 86.4962 60.7189C86.1868 60.6656 85.8455 60.6123 85.4722 60.5589C85.1095 60.5056 84.7415 60.4363 84.3682 60.3509C83.9948 60.2549 83.6535 60.1163 83.3442 59.9349C83.0348 59.7536 82.7842 59.5083 82.5922 59.1989C82.4108 58.8896 82.3202 58.4896 82.3202 57.9989C82.3202 57.4549 82.4748 56.9749 82.7842 56.5589C83.1042 56.1429 83.5628 55.8176 84.1602 55.5829C84.7575 55.3376 85.4722 55.2149 86.3042 55.2149C86.8908 55.2149 87.4882 55.2789 88.0962 55.4069C88.7042 55.5349 89.2108 55.7216 89.6162 55.9669L88.7842 57.7429C88.3682 57.4976 87.9468 57.3323 87.5202 57.2469C87.1042 57.1509 86.6988 57.1029 86.3042 57.1029C85.7495 57.1029 85.3442 57.1776 85.0882 57.3269C84.8322 57.4763 84.7042 57.6683 84.7042 57.9029C84.7042 58.1163 84.7948 58.2763 84.9762 58.3829C85.1682 58.4896 85.4188 58.5749 85.7282 58.6389C86.0375 58.7029 86.3735 58.7616 86.7362 58.8149C87.1095 58.8576 87.4828 58.9269 87.8562 59.0229C88.2295 59.1189 88.5655 59.2576 88.8642 59.4389C89.1735 59.6096 89.4242 59.8496 89.6162 60.1589C89.8082 60.4576 89.9042 60.8523 89.9042 61.3429C89.9042 61.8763 89.7442 62.3509 89.4242 62.7669C89.1042 63.1723 88.6402 63.4923 88.0322 63.7269C87.4348 63.9616 86.7042 64.0789 85.8402 64.0789Z" fill="#37E4FF"/>
<defs>
<filter id="filter0_b_21_491" x="-2" y="-3" width="120" height="102" filterUnits="userSpaceOnUse" color-interpolation-filters="sRGB">
<feFlood flood-opacity="0" result="BackgroundImageFix"/>
<feGaussianBlur in="BackgroundImageFix" stdDeviation="6"/>
<feComposite in2="SourceAlpha" operator="in" result="effect1_backgroundBlur_21_491"/>
<feBlend mode="normal" in="SourceGraphic" in2="effect1_backgroundBlur_21_491" result="shape"/>
</filter>
<filter id="filter1_d_21_491" x="0" y="0" width="116" height="96" filterUnits="userSpaceOnUse" color-interpolation-filters="sRGB">
<feFlood flood-opacity="0" result="BackgroundImageFix"/>
<feColorMatrix in="SourceAlpha" type="matrix" values="0 0 0 0 0 0 0 0 0 0 0 0 0 0 0 0 0 0 127 0" result="hardAlpha"/>
<feOffset/>
<feGaussianBlur stdDeviation="4"/>
<feColorMatrix type="matrix" values="0 0 0 0 1 0 0 0 0 1 0 0 0 0 1 0 0 0 1 0"/>
<feBlend mode="normal" in2="BackgroundImageFix" result="effect1_dropShadow_21_491"/>
<feBlend mode="normal" in="SourceGraphic" in2="effect1_dropShadow_21_491" result="shape"/>
</filter>
</defs>
</svg>
