<svg width="40" height="40" viewBox="0 0 40 40" fill="none" xmlns="http://www.w3.org/2000/svg">
<rect width="40" height="40" rx="16" fill="black" fill-opacity="0.25"/>
<path d="M26 20C26 19.4696 26.2107 18.9609 26.5858 18.5858C26.9609 18.2107 27.4696 18 28 18C28.5304 18 29.0391 18.2107 29.4142 18.5858C29.7893 18.9609 30 19.4696 30 20C30 20.5304 29.7893 21.0391 29.4142 21.4142C29.0391 21.7893 28.5304 22 28 22C27.4696 22 26.9609 21.7893 26.5858 21.4142C26.2107 21.0391 26 20.5304 26 20ZM26 20H14M14 20C14 20.5304 13.7893 21.0391 13.4142 21.4142C13.0391 21.7893 12.5304 22 12 22C11.4696 22 10.9609 21.7893 10.5858 21.4142C10.2107 21.0391 10 20.5304 10 20C10 19.4696 10.2107 18.9609 10.5858 18.5858C10.9609 18.2107 11.4696 18 12 18C12.5304 18 13.0391 18.2107 13.4142 18.5858C13.7893 18.9609 14 19.4696 14 20ZM28 14C28.5304 14 29.0391 13.7893 29.4142 13.4142C29.7893 13.0391 30 12.5304 30 12C30 11.4696 29.7893 10.9609 29.4142 10.5858C29.0391 10.2107 28.5304 10 28 10C27.4696 10 26.9609 10.2107 26.5858 10.5858C26.2107 10.9609 26 11.4696 26 12C26 12.5304 26.2107 13.0391 26.5858 13.4142C26.9609 13.7893 27.4696 14 28 14ZM28 30C28.5304 30 29.0391 29.7893 29.4142 29.4142C29.7893 29.0391 30 28.5304 30 28C30 27.4696 29.7893 26.9609 29.4142 26.5858C29.0391 26.2107 28.5304 26 28 26C27.4696 26 26.9609 26.2107 26.5858 26.5858C26.2107 26.9609 26 27.4696 26 28C26 28.5304 26.2107 29.0391 26.5858 29.4142C26.9609 29.7893 27.4696 30 28 30Z" stroke="#37E4FF" stroke-width="1.5" stroke-linecap="round" stroke-linejoin="round"/>
<path d="M26 12H22C20 12 19 13 19 15V25C19 27 20 28 22 28H26" stroke="#37E4FF" stroke-width="1.5" stroke-linecap="round" stroke-linejoin="round"/>
</svg>
