<svg width="40" height="40" viewBox="0 0 40 40" fill="none" xmlns="http://www.w3.org/2000/svg">
<rect width="40" height="40" rx="16" fill="black" fill-opacity="0.25"/>
<path d="M11 30H29M13.6 16.38H12C11.45 16.38 11 16.83 11 17.38V26C11 26.55 11.45 27 12 27H13.6C14.15 27 14.6 26.55 14.6 26V17.38C14.6 16.83 14.15 16.38 13.6 16.38ZM20.8 13.19H19.2C18.65 13.19 18.2 13.64 18.2 14.19V26C18.2 26.55 18.65 27 19.2 27H20.8C21.35 27 21.8 26.55 21.8 26V14.19C21.8 13.64 21.35 13.19 20.8 13.19ZM28 10H26.4C25.85 10 25.4 10.45 25.4 11V26C25.4 26.55 25.85 27 26.4 27H28C28.55 27 29 26.55 29 26V11C29 10.45 28.55 10 28 10Z" stroke="#37E4FF" stroke-width="1.5" stroke-linecap="round" stroke-linejoin="round"/>
</svg>
