<svg width="245" height="132" viewBox="0 0 245 132" fill="none" xmlns="http://www.w3.org/2000/svg">
<path fill-rule="evenodd" clip-rule="evenodd" d="M51.7144 47.8571C51.7144 46.2792 52.9935 45 54.5715 45C56.1495 45 57.4286 46.2792 57.4286 47.8571V122.143C57.4286 123.721 56.1495 125 54.5715 125C52.9935 125 51.7144 123.721 51.7144 122.143V47.8571ZM65.9999 62.1428C64.4219 62.1428 63.1428 63.422 63.1428 65V105C63.1428 106.578 64.4219 107.857 65.9999 107.857C67.5779 107.857 68.8571 106.578 68.8571 105V65C68.8571 63.422 67.5779 62.1428 65.9999 62.1428ZM74.5714 74.7145C74.5714 73.1365 75.8506 71.8573 77.4286 71.8573C79.0065 71.8573 80.2857 73.1365 80.2857 74.7145V95.2859C80.2857 96.8639 79.0065 98.1431 77.4286 98.1431C75.8506 98.1431 74.5714 96.8639 74.5714 95.2859V74.7145ZM86.0001 82.7142C86.0001 81.1363 87.2793 79.8571 88.8573 79.8571C90.4352 79.8571 91.7144 81.1363 91.7144 82.7142V87.2857C91.7144 88.8636 90.4352 90.1428 88.8573 90.1428C87.2793 90.1428 86.0001 88.8636 86.0001 87.2857V82.7142ZM43.1428 65.0007C41.5648 65.0007 40.2856 66.2798 40.2856 67.8578V102.144C40.2856 103.721 41.5648 105.001 43.1428 105.001C44.7207 105.001 45.9999 103.721 45.9999 102.144V67.8578C45.9999 66.2798 44.7207 65.0007 43.1428 65.0007ZM28.8572 61.5716C28.8572 59.9936 30.1364 58.7144 31.7144 58.7144C33.2923 58.7144 34.5715 59.9936 34.5715 61.5716V108.429C34.5715 110.007 33.2923 111.286 31.7144 111.286C30.1364 111.286 28.8572 110.007 28.8572 108.429V61.5716ZM20.2857 71.8573C18.7077 71.8573 17.4285 73.1365 17.4285 74.7145V95.2859C17.4285 96.8639 18.7077 98.1431 20.2857 98.1431C21.8637 98.1431 23.1428 96.8639 23.1428 95.2859V74.7145C23.1428 73.1365 21.8637 71.8573 20.2857 71.8573ZM6 70.7146C6 69.1366 7.27919 67.8574 8.85715 67.8574C10.4351 67.8574 11.7143 69.1366 11.7143 70.7146V99.286C11.7143 100.864 10.4351 102.143 8.85715 102.143C7.27919 102.143 6 100.864 6 99.286V70.7146ZM100.286 73.572C98.7077 73.572 97.4286 74.8512 97.4286 76.4292V93.572C97.4286 95.15 98.7077 96.4292 100.286 96.4292C101.864 96.4292 103.143 95.15 103.143 93.572V76.4292C103.143 74.8512 101.864 73.572 100.286 73.572Z" fill="url(#paint0_linear_23_1052)" fill-opacity="0.24"/>
<path fill-rule="evenodd" clip-rule="evenodd" d="M192.714 32.8571C192.714 31.2792 193.994 30 195.571 30C197.149 30 198.429 31.2792 198.429 32.8571V107.143C198.429 108.721 197.149 110 195.571 110C193.994 110 192.714 108.721 192.714 107.143V32.8571ZM207 47.1428C205.422 47.1428 204.143 48.422 204.143 50V90C204.143 91.5779 205.422 92.8571 207 92.8571C208.578 92.8571 209.857 91.578 209.857 90V50C209.857 48.422 208.578 47.1428 207 47.1428ZM215.571 59.7145C215.571 58.1365 216.851 56.8573 218.429 56.8573C220.007 56.8573 221.286 58.1365 221.286 59.7145V80.2859C221.286 81.8639 220.007 83.1431 218.429 83.1431C216.851 83.1431 215.571 81.8639 215.571 80.2859V59.7145ZM227 67.7142C227 66.1363 228.279 64.8571 229.857 64.8571C231.435 64.8571 232.714 66.1363 232.714 67.7142V72.2857C232.714 73.8636 231.435 75.1428 229.857 75.1428C228.279 75.1428 227 73.8636 227 72.2857V67.7142ZM184.143 50.0007C182.565 50.0007 181.286 51.2798 181.286 52.8578V87.1435C181.286 88.7215 182.565 90.0006 184.143 90.0006C185.721 90.0006 187 88.7215 187 87.1435V52.8578C187 51.2798 185.721 50.0007 184.143 50.0007ZM169.857 46.5716C169.857 44.9936 171.136 43.7144 172.714 43.7144C174.292 43.7144 175.572 44.9936 175.572 46.5716V93.4287C175.572 95.0067 174.292 96.2859 172.714 96.2859C171.136 96.2859 169.857 95.0067 169.857 93.4287V46.5716ZM161.286 56.8573C159.708 56.8573 158.429 58.1365 158.429 59.7145V80.2859C158.429 81.8639 159.708 83.1431 161.286 83.1431C162.864 83.1431 164.143 81.8639 164.143 80.2859V59.7145C164.143 58.1365 162.864 56.8573 161.286 56.8573ZM147 55.7146C147 54.1366 148.279 52.8574 149.857 52.8574C151.435 52.8574 152.714 54.1366 152.714 55.7146V84.286C152.714 85.864 151.435 87.1431 149.857 87.1431C148.279 87.1431 147 85.864 147 84.286V55.7146ZM241.286 58.572C239.708 58.572 238.429 59.8512 238.429 61.4292V78.572C238.429 80.15 239.708 81.4292 241.286 81.4292C242.864 81.4292 244.143 80.15 244.143 78.572V61.4292C244.143 59.8512 242.864 58.572 241.286 58.572Z" fill="url(#paint1_linear_23_1052)" fill-opacity="0.24"/>
<g filter="url(#filter0_b_23_1052)">
<path d="M117.836 13.498C122.406 11.5007 127.594 11.5007 132.164 13.498L153 22.6042L170.27 30.4346C176.657 33.3302 180.791 39.6938 180.863 46.7413L181 60L180.863 73.2587C180.791 80.3062 176.657 86.6698 170.27 89.5654L153 97.3958L132.164 106.502C127.594 108.499 122.406 108.499 117.836 106.502L97 97.3958L79.7297 89.5654C73.3432 86.6698 69.2093 80.3062 69.1367 73.2587L69 60L69.1367 46.7413C69.2093 39.6938 73.3432 33.3302 79.7297 30.4346L97 22.6042L117.836 13.498Z" fill="#303030" fill-opacity="0.12"/>
</g>
<g filter="url(#filter1_d_23_1052)">
<path fill-rule="evenodd" clip-rule="evenodd" d="M152.231 25.4393L128.483 15.1048C126.261 14.1378 123.739 14.1378 121.517 15.1048L97.7691 25.4393L76.7 34.9511C73.5947 36.353 71.5847 39.434 71.5494 42.846L71.3718 60L71.5494 77.154C71.5847 80.566 73.5947 83.6469 76.7 85.0489L97.7687 94.5605L121.517 104.895C123.739 105.862 126.261 105.862 128.483 104.895L152.231 94.5605L173.3 85.0489C176.405 83.6469 178.415 80.566 178.451 77.154L178.628 60L178.451 42.846C178.415 39.434 176.405 36.353 173.3 34.9511L152.231 25.4393ZM154 21.4343L130.225 11.0879C126.892 9.63738 123.108 9.63738 119.775 11.0879L96 21.4343L74.9039 30.9583C70.246 33.0611 67.2311 37.6825 67.1781 42.8006L67 60L67.1781 77.1994C67.2311 82.3175 70.246 86.9389 74.9039 89.0417L96 98.5657L119.775 108.912C123.108 110.363 126.892 110.363 130.225 108.912L154 98.5657L175.096 89.0417C179.754 86.9389 182.769 82.3175 182.822 77.1994L183 60L182.822 42.8006C182.769 37.6825 179.754 33.0611 175.096 30.9583L154 21.4343Z" fill="white"/>
</g>
<path fill-rule="evenodd" clip-rule="evenodd" d="M122.815 23.593C122.815 22.3858 123.794 21.4072 125.001 21.4072C126.208 21.4072 127.187 22.3858 127.187 23.593V95.8637C127.187 97.0709 126.208 98.0495 125.001 98.0495C123.794 98.0495 122.815 97.0708 122.815 95.8637V23.593ZM144.672 29.0631C144.672 27.8559 145.651 26.8773 146.858 26.8773C148.065 26.8773 149.044 27.8559 149.044 29.0631V45.0412C149.044 45.657 148.492 46.124 147.878 46.0786C147.541 46.0537 147.201 46.041 146.858 46.041C146.515 46.041 146.175 46.0537 145.838 46.0786C145.224 46.1241 144.672 45.6571 144.672 45.0413V29.0631ZM137.761 49.5163C137.982 49.3187 138.115 49.0391 138.115 48.7428V40.0116C138.115 38.8044 137.137 37.8258 135.929 37.8258C134.722 37.8258 133.744 38.8044 133.744 40.0116V48.8819C133.744 50.0383 136.479 50.7534 137.305 49.9439C137.454 49.798 137.606 49.6554 137.761 49.5163ZM133.744 70.5723C133.744 69.4159 136.479 68.7008 137.305 69.5103C137.454 69.6562 137.606 69.7988 137.761 69.9379C137.982 70.1355 138.115 70.4151 138.115 70.7114V79.4356C138.115 80.6428 137.137 81.6214 135.929 81.6214C134.722 81.6214 133.744 80.6428 133.744 79.4356V70.5723ZM144.672 74.4129C144.672 73.7971 145.224 73.3301 145.838 73.3756C146.175 73.4005 146.515 73.4132 146.858 73.4132C147.201 73.4132 147.541 73.4005 147.878 73.3756C148.492 73.3302 149.044 73.7972 149.044 74.413V90.3848C149.044 91.592 148.065 92.5706 146.858 92.5706C145.651 92.5706 144.672 91.592 144.672 90.3848V74.4129ZM155.955 69.9379C155.734 70.1355 155.601 70.4151 155.601 70.7114V82.1757C155.601 83.3829 156.58 84.3615 157.787 84.3615C158.994 84.3615 159.973 83.3829 159.973 82.1757V70.5724C159.973 69.416 157.237 68.7008 156.411 69.5103C156.263 69.6563 156.11 69.7988 155.955 69.9379ZM156.411 49.9439C157.237 50.7534 159.973 50.0382 159.973 48.8818V37.2772C159.973 36.07 158.994 35.0914 157.787 35.0914C156.58 35.0914 155.601 36.07 155.601 37.2772V48.7428C155.601 49.0391 155.734 49.3187 155.955 49.5163C156.11 49.6554 156.263 49.7979 156.411 49.9439ZM114.071 40.5651C112.864 40.5651 111.886 41.5437 111.886 42.7509V48.7435C111.886 49.0399 112.018 49.3194 112.239 49.517C112.394 49.6556 112.546 49.7976 112.694 49.9429C113.52 50.7524 116.257 50.0367 116.257 48.8803V42.7509C116.257 41.5437 115.279 40.5651 114.071 40.5651ZM105.327 29.0631V45.0415C105.327 45.6572 104.776 46.1242 104.162 46.0788C103.825 46.0539 103.485 46.0413 103.142 46.0413C102.799 46.0413 102.458 46.0539 102.122 46.0789C101.507 46.1243 100.956 45.6573 100.956 45.0415V29.0631C100.956 27.8559 101.934 26.8773 103.142 26.8773C104.349 26.8773 105.327 27.8559 105.327 29.0631ZM90.0262 70.5771C90.0262 69.4206 92.7652 68.7044 93.5914 69.5138C93.7391 69.6585 93.89 69.7998 94.0441 69.9377C94.2649 70.1353 94.3978 70.4148 94.3978 70.7112V82.1757C94.3978 83.3829 93.4192 84.3615 92.212 84.3615C91.0048 84.3615 90.0262 83.3829 90.0262 82.1757V70.5771ZM100.956 74.4138C100.956 73.798 101.507 73.331 102.122 73.3764C102.458 73.4014 102.799 73.414 103.142 73.414C103.485 73.414 103.825 73.4014 104.162 73.3765C104.776 73.3311 105.327 73.7981 105.327 74.4138V90.3848C105.327 91.592 104.349 92.5706 103.142 92.5706C101.934 92.5706 100.956 91.592 100.956 90.3848V74.4138ZM112.239 69.9383C112.018 70.1359 111.886 70.4154 111.886 70.7118V76.7004C111.886 77.9076 112.864 78.8862 114.071 78.8862C115.279 78.8862 116.257 77.9076 116.257 76.7004V70.575C116.257 69.4186 113.52 68.7029 112.694 69.5124C112.546 69.6577 112.394 69.7997 112.239 69.9383ZM94.3978 37.2772V48.7441C94.3978 49.0404 94.2649 49.32 94.0441 49.5176C93.89 49.6555 93.7391 49.7968 93.5914 49.9415C92.7652 50.7509 90.0262 50.0347 90.0262 48.8782V37.2772C90.0262 36.07 91.0048 35.0914 92.212 35.0914C93.4192 35.0914 94.3978 36.07 94.3978 37.2772ZM79.0973 45.4904C79.0973 44.2832 80.0759 43.3046 81.2831 43.3046C82.4903 43.3046 83.4689 44.2832 83.4689 45.4904V73.9654C83.4689 75.1726 82.4903 76.1512 81.2831 76.1512C80.0759 76.1512 79.0973 75.1726 79.0973 73.9654V45.4904ZM168.716 48.7755C167.509 48.7755 166.531 49.7541 166.531 50.9613V68.4875C166.531 69.6947 167.509 70.6733 168.716 70.6733C169.924 70.6733 170.902 69.6947 170.902 68.4875V50.9613C170.902 49.7541 169.924 48.7755 168.716 48.7755Z" fill="#37E4FF"/>
<g filter="url(#filter2_d_23_1052)">
<ellipse cx="103.142" cy="59.7251" rx="8.19673" ry="8.21166" fill="white"/>
</g>
<g filter="url(#filter3_d_23_1052)">
<ellipse cx="147.404" cy="59.7251" rx="8.19673" ry="8.21166" fill="white"/>
</g>
<defs>
<filter id="filter0_b_23_1052" x="57" y="0" width="136" height="120" filterUnits="userSpaceOnUse" color-interpolation-filters="sRGB">
<feFlood flood-opacity="0" result="BackgroundImageFix"/>
<feGaussianBlur in="BackgroundImageFix" stdDeviation="6"/>
<feComposite in2="SourceAlpha" operator="in" result="effect1_backgroundBlur_23_1052"/>
<feBlend mode="normal" in="SourceGraphic" in2="effect1_backgroundBlur_23_1052" result="shape"/>
</filter>
<filter id="filter1_d_23_1052" x="59" y="2" width="132" height="116" filterUnits="userSpaceOnUse" color-interpolation-filters="sRGB">
<feFlood flood-opacity="0" result="BackgroundImageFix"/>
<feColorMatrix in="SourceAlpha" type="matrix" values="0 0 0 0 0 0 0 0 0 0 0 0 0 0 0 0 0 0 127 0" result="hardAlpha"/>
<feOffset/>
<feGaussianBlur stdDeviation="4"/>
<feColorMatrix type="matrix" values="0 0 0 0 1 0 0 0 0 1 0 0 0 0 1 0 0 0 1 0"/>
<feBlend mode="normal" in2="BackgroundImageFix" result="effect1_dropShadow_23_1052"/>
<feBlend mode="normal" in="SourceGraphic" in2="effect1_dropShadow_23_1052" result="shape"/>
</filter>
<filter id="filter2_d_23_1052" x="74.9448" y="31.5134" width="56.3935" height="56.4233" filterUnits="userSpaceOnUse" color-interpolation-filters="sRGB">
<feFlood flood-opacity="0" result="BackgroundImageFix"/>
<feColorMatrix in="SourceAlpha" type="matrix" values="0 0 0 0 0 0 0 0 0 0 0 0 0 0 0 0 0 0 127 0" result="hardAlpha"/>
<feMorphology radius="4" operator="erode" in="SourceAlpha" result="effect1_dropShadow_23_1052"/>
<feOffset/>
<feGaussianBlur stdDeviation="12"/>
<feComposite in2="hardAlpha" operator="out"/>
<feColorMatrix type="matrix" values="0 0 0 0 1 0 0 0 0 1 0 0 0 0 1 0 0 0 1 0"/>
<feBlend mode="normal" in2="BackgroundImageFix" result="effect1_dropShadow_23_1052"/>
<feBlend mode="normal" in="SourceGraphic" in2="effect1_dropShadow_23_1052" result="shape"/>
</filter>
<filter id="filter3_d_23_1052" x="119.208" y="31.5134" width="56.3935" height="56.4233" filterUnits="userSpaceOnUse" color-interpolation-filters="sRGB">
<feFlood flood-opacity="0" result="BackgroundImageFix"/>
<feColorMatrix in="SourceAlpha" type="matrix" values="0 0 0 0 0 0 0 0 0 0 0 0 0 0 0 0 0 0 127 0" result="hardAlpha"/>
<feMorphology radius="4" operator="erode" in="SourceAlpha" result="effect1_dropShadow_23_1052"/>
<feOffset/>
<feGaussianBlur stdDeviation="12"/>
<feComposite in2="hardAlpha" operator="out"/>
<feColorMatrix type="matrix" values="0 0 0 0 1 0 0 0 0 1 0 0 0 0 1 0 0 0 1 0"/>
<feBlend mode="normal" in2="BackgroundImageFix" result="effect1_dropShadow_23_1052"/>
<feBlend mode="normal" in="SourceGraphic" in2="effect1_dropShadow_23_1052" result="shape"/>
</filter>
<linearGradient id="paint0_linear_23_1052" x1="6" y1="85" x2="103.143" y2="85" gradientUnits="userSpaceOnUse">
<stop stop-color="#64E7FC"/>
<stop offset="1" stop-color="#63C6D4"/>
</linearGradient>
<linearGradient id="paint1_linear_23_1052" x1="147" y1="70" x2="244.143" y2="70" gradientUnits="userSpaceOnUse">
<stop stop-color="#64E7FC"/>
<stop offset="1" stop-color="#63C6D4"/>
</linearGradient>
</defs>
</svg>
